<svg xmlns="http://www.w3.org/2000/svg" viewBox="0 0 500 500"><g id="freepik--Floor--inject-46"><path id="freepik--floor--inject-46" d="M77.66,236.19c-95.18,54.95-95.17,144,0,199s249.49,54.95,344.67,0,95.17-144,0-199S172.84,181.24,77.66,236.19Z" style="fill:#fafafa"></path></g><g id="freepik--Shadows--inject-46"><path id="freepik--Shadow--inject-46" d="M478.9,317.14,463.28,299.4h0L298.62,204.18c-4.1-2.8-10.24,2.88-12.63,8.61h0a13.38,13.38,0,0,0-.84,2.66c-.46,2.38-.06,4.53,1.71,5.74l166,96h0l22.78,4.5,6.2,1.23a.89.89,0,0,0,.85-1.47Z" style="fill:#e0e0e0"></path><path id="freepik--shadow--inject-46" d="M201.79,194.93,19.69,317.08c-2.71,1.82-2.7,4.57,0,6.15l246.2,142a10.17,10.17,0,0,0,9.85-.44l182.1-122.15c2.71-1.82,2.7-4.58,0-6.16L211.64,194.49A10.18,10.18,0,0,0,201.79,194.93Z" style="fill:#e0e0e0"></path></g><g id="freepik--Pencil--inject-46"><g id="freepik--pencil--inject-46"><path d="M305.9,223.6l2.13,1.22,2.56,1.48,145.21,84c-.8-1.79-.18-5.36,1.65-8.78,2.12-4,5.37-7.15,7.72-7.27L320.65,210.65l-4.91-2.82C318.82,209.83,309,225.56,305.9,223.6Z" style="fill:#455a64"></path><path d="M320.43,210.51l-4.76-2.72c-1.35-.83-3.91,1.6-6.16,4.81-3,4.26-5.42,9.9-3.63,11l3.51,2,1.26.69c-1.79-1.1.63-6.75,3.63-11,2.15-3.07,4.62-5.44,6-4.87h0A.31.31,0,0,1,320.43,210.51Z" style="fill:#ebebeb"></path><path d="M319.24,209.84c-3.14-1.94-12.92,13.87-9.79,15.81l4.75,2.73c-3.13-1.94,6.65-17.75,9.79-15.81Z" style="fill:#4E944F"></path><path d="M328.51,215.18l-4.69-2.7c-3.06-1.93-12.66,13.24-10.06,15.65a.76.76,0,0,0,.17.13l4.74,2.68C315.6,229,325.4,213.21,328.51,215.18Z" style="fill:#ebebeb"></path><path d="M315.74,207.8v0l-.07,0c-1.34-.86-3.9,1.59-6.15,4.81-3,4.18-5.38,9.71-3.71,10.94L286,212.16c-1.59-1.09-2-3-1.54-5.17,1.1-5.78,7.86-13.11,12.14-10.19Z" style="fill:#f28f8f"></path><path d="M477.83,311c-1.64,2.22-1.48,3.31-1.48,3.31l-20.55-4.05c-2-3.11-.7-8.17,2.12-11.77l.9.51Z" style="fill:#f28f8f"></path><path d="M481.94,315.42l-5.59-1.09s-.25-1.09,1.48-3.31l4.88,3.08h0a.81.81,0,0,1-.06,1.12A.76.76,0,0,1,481.94,315.42Z" style="fill:#37474f"></path><path d="M465.16,294.23h0l14.1,16a2.56,2.56,0,0,0-1.45.8l-19-12-.9-.51C459.84,296.05,462.46,294.26,465.16,294.23Z" style="fill:#ffa8a7"></path><path d="M477.83,311a1.94,1.94,0,0,1,1.45-.8l3.43,3.88Z" style="fill:#455a64"></path><path d="M457.92,298.51,286.45,202.17a14.76,14.76,0,0,0-2,4.82c-.42,2.15-.05,4.07,1.55,5.17l19.9,11.44,2.13,1.22,2.56,1.48,145.21,84C453.29,306.42,456,300.7,457.92,298.51Z" style="opacity:0.2"></path></g></g><g id="freepik--Notebook--inject-46"><g id="freepik--notebook--inject-46"><path d="M206.49,201.09,33.83,307.41l-3.53,6.21,0,4.88a6.77,6.77,0,0,0,3.58,5.89L262.63,456.65a11,11,0,0,0,5.95,1.32,11.67,11.67,0,0,0,5.93-1.85L443.27,342.86l0-4.87Z" style="fill:#263238"></path><path d="M268.55,453.1a10.94,10.94,0,0,1-5.94-1.33L33.88,319.51a6.76,6.76,0,0,1-3.58-5.89,7.47,7.47,0,0,1,3.53-6.21l165-110.74L443.25,338,274.48,451.24A11.71,11.71,0,0,1,268.55,453.1Z" style="fill:#4E944F"></path><path d="M198.79,182.37,35.64,291.85,34,294.46l.08,19h0a2.94,2.94,0,0,0,1.69,2.46L264.47,448.17a8.39,8.39,0,0,0,8.12-.36L435.75,338.33l-.09-19Z" style="fill:#ebebeb"></path><path d="M435.67,319.34l-2,1.37-26.55,17.81-4.94,3.33-129.62,87a8.4,8.4,0,0,1-8.12.36L35.65,296.92c-2.23-1.3-2.24-3.58,0-5.08l2.17-1.45,161-108L433.64,318.16l.49.3Z" style="fill:#f0f0f0"></path><path d="M268.45,430.06l.08,19a7.5,7.5,0,0,1-4-.88L35.74,315.91a2.92,2.92,0,0,1-1.68-2.46l-.09-19a3,3,0,0,0,1.68,2.46L264.4,429.18A7.5,7.5,0,0,0,268.45,430.06Z" style="fill:#e0e0e0"></path><path d="M435.66,316.81l-29.37,19.7-4.61,3.09L272.51,426.28a8.4,8.4,0,0,1-8.12.37L59.55,308.21c-1.84-1-3.55-2-5.15-3-8.34-5.1-13.37-9.77-16.6-14.84l-.39-.64a3.47,3.47,0,0,1-.52-1.29,4.13,4.13,0,0,1,2.84-4.59,76.34,76.34,0,0,0,15.37-7.63l.2-.13,143.47-96.28Z" style="fill:#fff"></path><path d="M198.81,181l235,135.86-28,18.81-4.6,3.09L272,425.45a7.3,7.3,0,0,1-3.93,1.07,6.34,6.34,0,0,1-3.14-.74L60,307.33c-1.67-.92-3.35-1.89-5.11-2.95-7.85-4.81-13-9.42-16.27-14.52l-.18-.29-.22-.35a2.58,2.58,0,0,1-.38-1,3.14,3.14,0,0,1,2.2-3.45,76.74,76.74,0,0,0,15.56-7.73l.12-.07.06,0,0,0h0l143-95.93m0-1.18L55.3,276.11l-.2.13a76.34,76.34,0,0,1-15.37,7.63,4.13,4.13,0,0,0-2.84,4.59,3.47,3.47,0,0,0,.52,1.29l.39.64c3.23,5.07,8.26,9.74,16.6,14.84,1.6,1,3.31,2,5.15,3L264.39,426.65a7.32,7.32,0,0,0,3.64.87,8.24,8.24,0,0,0,4.48-1.24L401.68,339.6l4.61-3.09,29.37-19.7-236.89-137Z" style="fill:#e0e0e0"></path><path d="M405.16,315.94c-2.08,1.41-2.07,3.54,0,4.76a7.82,7.82,0,0,0,7.59-.34c2.09-1.41,2.09-3.54,0-4.76A7.79,7.79,0,0,0,405.16,315.94Z" style="opacity:0.1"></path><path d="M429.47,299.46c-2.9-1.67-6.52-1.23-10.21,1.23-5.7,3.85-10.62,12.07-12.74,20.54a6.89,6.89,0,0,0,2.8.24c2-7.55,6.31-14.79,11.36-18.2a9.42,9.42,0,0,1,4.65-1.75,4.94,4.94,0,0,1,2.74.64c2.45,1.42,3.87,5.07,3.89,10a19.94,19.94,0,0,1-.12,2.44l2.67,1.55a32.25,32.25,0,0,0,.27-4.12C434.75,306,432.82,301.4,429.47,299.46Z" style="fill:#263238"></path><path d="M434.26,317.74a5.24,5.24,0,0,1-.13.72l-.49-.3Z" style="fill:#263238"></path><path d="M382.24,302.68c-2.08,1.41-2.07,3.54,0,4.76a7.82,7.82,0,0,0,7.59-.34c2.09-1.41,2.09-3.54,0-4.76A7.81,7.81,0,0,0,382.24,302.68Z" style="opacity:0.1"></path><path d="M406.55,286.21c-2.9-1.68-6.52-1.24-10.2,1.22-5.71,3.85-10.63,12.07-12.75,20.55a7.25,7.25,0,0,0,2.8.24c2-7.56,6.32-14.8,11.36-18.21a9.42,9.42,0,0,1,4.65-1.75,4.93,4.93,0,0,1,2.74.65c2.45,1.41,3.87,5.06,3.89,10a19.94,19.94,0,0,1-.12,2.44l2.67,1.55a29,29,0,0,0,.27-4.12C411.83,292.73,409.9,288.15,406.55,286.21Z" style="fill:#263238"></path><path d="M359.31,289.43c-2.07,1.4-2.07,3.53,0,4.76a7.87,7.87,0,0,0,7.59-.34c2.1-1.41,2.09-3.54,0-4.76A7.81,7.81,0,0,0,359.31,289.43Z" style="opacity:0.1"></path><path d="M383.62,273c-2.89-1.68-6.51-1.23-10.2,1.22-5.71,3.85-10.62,12.07-12.75,20.55a7.27,7.27,0,0,0,2.8.24c2-7.56,6.32-14.8,11.37-18.21a9.35,9.35,0,0,1,4.64-1.75,5.07,5.07,0,0,1,2.75.65c2.44,1.41,3.87,5.06,3.89,10a20.11,20.11,0,0,1-.13,2.45l2.68,1.54a30.35,30.35,0,0,0,.26-4.11C388.9,279.47,387,274.89,383.62,273Z" style="fill:#263238"></path><path d="M336.39,276.17c-2.08,1.41-2.07,3.54,0,4.76a7.84,7.84,0,0,0,7.59-.33c2.09-1.42,2.09-3.55,0-4.77A7.84,7.84,0,0,0,336.39,276.17Z" style="opacity:0.1"></path><path d="M360.7,259.7c-2.9-1.68-6.52-1.23-10.2,1.23-5.71,3.84-10.63,12.06-12.75,20.54a7.25,7.25,0,0,0,2.8.24c1.95-7.56,6.31-14.8,11.37-18.21a9.35,9.35,0,0,1,4.64-1.75,5.07,5.07,0,0,1,2.75.65c2.44,1.41,3.86,5.06,3.88,10a20.2,20.2,0,0,1-.12,2.45l2.68,1.54a32.06,32.06,0,0,0,.26-4.11C366,266.22,364.05,261.64,360.7,259.7Z" style="fill:#263238"></path><path d="M313.47,262.92c-2.08,1.41-2.07,3.54,0,4.76a7.8,7.8,0,0,0,7.58-.34c2.1-1.41,2.09-3.54,0-4.76A7.79,7.79,0,0,0,313.47,262.92Z" style="opacity:0.1"></path><path d="M337.78,246.44c-2.9-1.68-6.52-1.23-10.2,1.23-5.71,3.85-10.63,12.06-12.75,20.54a6.87,6.87,0,0,0,2.8.24c1.95-7.55,6.31-14.79,11.36-18.2a9.5,9.5,0,0,1,4.65-1.76,5.06,5.06,0,0,1,2.74.65c2.45,1.42,3.87,5.07,3.89,10a20,20,0,0,1-.12,2.44l2.67,1.54a30.25,30.25,0,0,0,.26-4.11C343.06,253,341.12,248.38,337.78,246.44Z" style="fill:#263238"></path><path d="M290.54,249.66c-2.08,1.41-2.07,3.54,0,4.76a7.8,7.8,0,0,0,7.58-.34c2.1-1.41,2.09-3.54,0-4.76A7.81,7.81,0,0,0,290.54,249.66Z" style="opacity:0.1"></path><path d="M314.85,233.18c-2.9-1.67-6.52-1.22-10.2,1.23C298.94,238.26,294,246.48,291.9,255a7.24,7.24,0,0,0,2.8.24c1.95-7.56,6.31-14.8,11.36-18.21a9.42,9.42,0,0,1,4.65-1.75,5,5,0,0,1,2.74.65c2.45,1.41,3.87,5.06,3.89,10a19.94,19.94,0,0,1-.12,2.44l2.67,1.55a32.1,32.1,0,0,0,.27-4.11C320.13,239.71,318.2,235.12,314.85,233.18Z" style="fill:#263238"></path><path d="M267.62,236.41c-2.08,1.41-2.07,3.54,0,4.76a7.8,7.8,0,0,0,7.58-.34c2.1-1.41,2.09-3.54,0-4.76A7.79,7.79,0,0,0,267.62,236.41Z" style="opacity:0.1"></path><path d="M291.93,219.93c-2.9-1.67-6.52-1.23-10.21,1.23C276,225,271.1,233.23,269,241.7a6.87,6.87,0,0,0,2.8.24c2-7.55,6.31-14.79,11.36-18.21a9.49,9.49,0,0,1,4.65-1.74,5,5,0,0,1,2.74.64c2.45,1.42,3.87,5.07,3.89,10a22.27,22.27,0,0,1-.12,2.44l2.67,1.54a32,32,0,0,0,.27-4.11C297.21,226.46,295.28,221.87,291.93,219.93Z" style="fill:#263238"></path><path d="M244.69,223.15c-2.08,1.41-2.07,3.54,0,4.76a7.82,7.82,0,0,0,7.59-.34c2.09-1.4,2.09-3.54,0-4.76A7.84,7.84,0,0,0,244.69,223.15Z" style="opacity:0.1"></path><path d="M269,206.68c-2.9-1.68-6.51-1.23-10.2,1.22-5.71,3.85-10.63,12.07-12.75,20.55a7.24,7.24,0,0,0,2.8.24c2-7.56,6.31-14.8,11.37-18.21a9.35,9.35,0,0,1,4.64-1.75,5,5,0,0,1,2.74.65c2.45,1.41,3.87,5.06,3.89,10a19.94,19.94,0,0,1-.12,2.44l2.68,1.55a32.06,32.06,0,0,0,.26-4.11C274.28,213.2,272.35,208.62,269,206.68Z" style="fill:#263238"></path><path d="M221.77,209.9c-2.08,1.4-2.07,3.53,0,4.76a7.84,7.84,0,0,0,7.59-.34c2.09-1.41,2.09-3.54,0-4.76A7.81,7.81,0,0,0,221.77,209.9Z" style="opacity:0.1"></path><path d="M246.08,193.42c-2.9-1.68-6.52-1.23-10.2,1.23-5.71,3.85-10.63,12.06-12.75,20.54a7.06,7.06,0,0,0,2.8.24c1.95-7.56,6.31-14.8,11.36-18.21a9.51,9.51,0,0,1,4.65-1.75,5,5,0,0,1,2.74.65c2.45,1.41,3.87,5.06,3.89,10a20.1,20.1,0,0,1-.12,2.45l2.67,1.54a30.38,30.38,0,0,0,.27-4.11C251.36,199.94,249.43,195.36,246.08,193.42Z" style="fill:#263238"></path><path d="M198.84,196.64c-2.08,1.41-2.07,3.54,0,4.76a7.82,7.82,0,0,0,7.59-.34c2.1-1.41,2.09-3.54,0-4.76A7.84,7.84,0,0,0,198.84,196.64Z" style="opacity:0.1"></path><path d="M223.15,180.17c-2.89-1.68-6.51-1.23-10.2,1.22-5.71,3.85-10.62,12.07-12.75,20.55a7.25,7.25,0,0,0,2.8.24c2-7.56,6.32-14.8,11.37-18.21a9.35,9.35,0,0,1,4.64-1.75,5,5,0,0,1,2.75.65c2.44,1.41,3.87,5.06,3.89,10a22,22,0,0,1-.12,2.44l2.67,1.55a30.35,30.35,0,0,0,.26-4.11C228.43,186.69,226.5,182.11,223.15,180.17Z" style="fill:#263238"></path><path d="M245.47,402a2.43,2.43,0,0,1-2.24-1.29,3,3,0,0,1,.92-3.85l125.52-84.23a2.42,2.42,0,0,1,3.52.86,3,3,0,0,1-.92,3.85L246.76,401.6A2.54,2.54,0,0,1,245.47,402Z" style="fill:#ebebeb"></path><path d="M230.19,393.2a2.43,2.43,0,0,1-2.24-1.29,3,3,0,0,1,.93-3.85l125.51-84.24a2.44,2.44,0,0,1,3.53.86,3,3,0,0,1-.93,3.85L231.48,392.77A2.51,2.51,0,0,1,230.19,393.2Z" style="fill:#ebebeb"></path><path d="M214.9,384.36a2.42,2.42,0,0,1-2.23-1.3,3,3,0,0,1,.92-3.85L339.11,295a2.44,2.44,0,0,1,3.52.86,3,3,0,0,1-.92,3.85L216.19,383.92A2.53,2.53,0,0,1,214.9,384.36Z" style="fill:#ebebeb"></path><path d="M199.62,375.53a2.44,2.44,0,0,1-2.24-1.3,3,3,0,0,1,.92-3.85l125.52-84.23a2.41,2.41,0,0,1,3.52.86,3,3,0,0,1-.92,3.85L200.9,375.09A2.49,2.49,0,0,1,199.62,375.53Z" style="fill:#ebebeb"></path><path d="M184.33,366.68a2.43,2.43,0,0,1-2.24-1.29,3,3,0,0,1,.93-3.85l125.52-84.23a2.44,2.44,0,0,1,3.53.86,3,3,0,0,1-.93,3.85L185.62,366.25A2.51,2.51,0,0,1,184.33,366.68Z" style="fill:#ebebeb"></path><path d="M169.05,357.85a2.42,2.42,0,0,1-2.24-1.3,3,3,0,0,1,.93-3.85l125.51-84.23a2.43,2.43,0,0,1,3.53.86,3,3,0,0,1-.92,3.85L170.34,357.41A2.44,2.44,0,0,1,169.05,357.85Z" style="fill:#ebebeb"></path><path d="M153.77,349a2.44,2.44,0,0,1-2.24-1.3,3,3,0,0,1,.92-3.85L278,259.63a2.42,2.42,0,0,1,3.52.86,3,3,0,0,1-.92,3.85L155.05,348.57A2.52,2.52,0,0,1,153.77,349Z" style="fill:#ebebeb"></path><path d="M138.48,340.17a2.43,2.43,0,0,1-2.24-1.29,3,3,0,0,1,.93-3.85L262.69,250.8a2.41,2.41,0,0,1,3.52.86,3,3,0,0,1-.92,3.85L139.77,339.74A2.54,2.54,0,0,1,138.48,340.17Z" style="fill:#ebebeb"></path><path d="M123.2,331.33A2.43,2.43,0,0,1,121,330a3,3,0,0,1,.93-3.85L247.4,242a2.42,2.42,0,0,1,3.53.86,3,3,0,0,1-.93,3.85L124.49,330.9A2.51,2.51,0,0,1,123.2,331.33Z" style="fill:#ebebeb"></path><path d="M107.91,322.5a2.42,2.42,0,0,1-2.23-1.3,3,3,0,0,1,.92-3.85l125.52-84.23a2.42,2.42,0,0,1,3.52.86,3,3,0,0,1-.92,3.85L109.2,322.06A2.53,2.53,0,0,1,107.91,322.5Z" style="fill:#ebebeb"></path><path d="M92.63,313.67a2.44,2.44,0,0,1-2.24-1.3,3,3,0,0,1,.92-3.85l125.53-84.24a2.42,2.42,0,0,1,3.52.86,3,3,0,0,1-.92,3.85L93.91,313.23A2.52,2.52,0,0,1,92.63,313.67Z" style="fill:#ebebeb"></path><path d="M77.34,304.82a2.43,2.43,0,0,1-2.24-1.29,3,3,0,0,1,.93-3.85l125.52-84.23a2.43,2.43,0,0,1,3.53.86,3,3,0,0,1-.93,3.85L78.63,304.39A2.51,2.51,0,0,1,77.34,304.82Z" style="fill:#ebebeb"></path><path d="M62.06,296a2.44,2.44,0,0,1-2.24-1.29,3,3,0,0,1,.93-3.85l125.51-84.24a2.44,2.44,0,0,1,3.53.86,3,3,0,0,1-.93,3.85L63.35,295.56A2.51,2.51,0,0,1,62.06,296Z" style="fill:#ebebeb"></path><path d="M261,410.87a2.44,2.44,0,0,1-2.24-1.3,3,3,0,0,1,.92-3.85l132.76-89.25a2.43,2.43,0,0,1,3.53.86,3,3,0,0,1-.93,3.86L262.28,410.43A2.56,2.56,0,0,1,261,410.87Z" style="fill:#4E944F"></path></g></g><g id="freepik--Line--inject-46"><g id="freepik--line--inject-46"><path d="M274.19,357.25c-.19-.55-.47-1.11-.87-1a.71.71,0,0,0-.39.65,1.5,1.5,0,0,0,.1.52c.12.4.37.61.5,1,1.48,4.89-3.37,6.44-5.93,6.62-7.26.54-14.39-2.73-21.06-6.29-9.57-5.1-19.1-10.71-29.12-14C209,342,196,339.27,191.16,352c-.09.26.21.73.34.44,5.25-11.8,17.26-9.36,25.54-6.62,10.12,3.35,19.73,9.05,29.41,14.19,6.47,3.43,13.27,6.42,20.29,6.24,3.21-.07,9.68-1.93,7.68-8.31C274.36,357.8,274.28,357.53,274.19,357.25Z" style="fill:#263238"></path></g></g><g id="freepik--Hand--inject-46"><g id="freepik--hand--inject-46"><g id="freepik--hand--inject-46"><path d="M314,207.17c-4.52-8.16-9.85-17.15-15.46-30.32s-10.38-13.28-23-17.8c-10.47-3.74-39-15.75-50.39-20.6-14.66-6.25-18.71-7-31.2-21.14-13.59-15.43-59.22-66.08-59.22-66.08l-58,107.35C96.1,169.72,112.31,179,124.1,186.53c10.3,6.56,16.61,12.24,22.37,32.51,3.92,13.76,4.38,19.73,15.15,32,8.35,9.54,10.79,12.24,20.46,22.83L220,258a14.82,14.82,0,0,1-2.18-6.34c-.32-8.13,11.15-6.86,16.4-6.31,12.29,1.3,51.76,18.76,51.76,18.76l23.32-18.43c3.78-4,7.48-8.87,3.61-20C315.51,222.73,318.52,215.34,314,207.17Z" style="fill:#ffa8a7"></path><path d="M285.16,176.23a14.82,14.82,0,0,0-3.69-3.28c-.76-.52-1.51-1-2.27-1.53a23.47,23.47,0,0,0-2.74-1.69c-.18-.08-.15.22-.08.3,2.55,2.56,6,4,8.07,7.07a27.72,27.72,0,0,1,2.15,4.07c.82,1.77,1.66,3.51,2.55,5.25.07.13.16,0,.14-.11C288.36,182.82,287.33,179.19,285.16,176.23Z" style="fill:#f28f8f"></path><path d="M313,225.76a12.85,12.85,0,0,0,1.67-2.6c-2.67-5.59-9-15.57-14.07-28C304.11,205.06,307.11,210,313,225.76Z" style="fill:#f28f8f"></path><path d="M293.61,175.94a10.26,10.26,0,0,0-.6-2.3,11.56,11.56,0,0,0-2.18-3.67,13.23,13.23,0,0,0-3.92-2.69,20.2,20.2,0,0,0-4.91-1.89s0,.06,0,.08c1.44.82,2.93,1.56,4.37,2.38a12.57,12.57,0,0,1,3.66,2.72c1.78,2.11,2.44,4.9,3.62,7.34.07.14.22.11.22,0A11.33,11.33,0,0,0,293.61,175.94Z" style="fill:#f28f8f"></path><path d="M312.3,242.08c-.44-5.83-3.48-9.59-6.65-16.84-4-9.1-12.82-26.48-15.79-36.67,1,9.15,7.11,40.8,11.56,63.4l7.92-6.26A24.23,24.23,0,0,0,312.3,242.08Z" style="fill:#f28f8f"></path><path d="M219.21,256.81a22,22,0,0,0-1.64-3.39c-.57-1.1-1.07-2.24-1.56-3.38a52.44,52.44,0,0,1-2.33-6.54,30.91,30.91,0,0,1-1.11-6.95,28.22,28.22,0,0,1,.07-3.44c.05-.6.13-1.2.22-1.8.07-.45.2-.95.23-1.4s0-.69.06-1c0-.2-.36-.68-.51-.36a10.31,10.31,0,0,0-.67,1.61,15.42,15.42,0,0,0-.34,1.53,22.36,22.36,0,0,0-.31,3.05,28.73,28.73,0,0,0,.41,5.71,36.27,36.27,0,0,0,3.69,10.69c.51,1,1.06,1.91,1.61,2.86a15.55,15.55,0,0,0,2,3C219.18,257.08,219.24,256.9,219.21,256.81Z" style="fill:#f28f8f"></path><path d="M291.49,249.55,267.6,204.39s-24.41,7-36,13.41-17,28.6-12.55,39.17l.47.1a12.92,12.92,0,0,1-1.68-5.38c-.32-8.13,11.15-6.86,16.4-6.31,12.29,1.3,51.76,18.76,51.76,18.76l5.8-4.59Z" style="fill:#f28f8f"></path><ellipse cx="103.01" cy="102.7" rx="61.86" ry="35" transform="translate(-31.83 157.27) rotate(-66.95)" style="fill:#ffa8a7"></ellipse><path d="M272.73,168.2c13.85,6.11,15.48,13.72,17.93,23.57s11.82,30.83,15.49,40.31,4.48,11.91.81,24.75-14.07,38-14.07,38S261.72,196.15,259.69,186,258.87,164.55,272.73,168.2Z" style="fill:#ffa8a7"></path><path d="M303.87,250.23a.17.17,0,0,0,0,.17c.44.14,1.11-.16,1.55-.24s1.12-.22,1.68-.3,1.1-.13,1.68-.16c.07-.37.13-.73.19-1.07a17.7,17.7,0,0,0-4.14,1A1.75,1.75,0,0,0,303.87,250.23Zm-.06-6.7a21.68,21.68,0,0,1,4.27-1.13,10.92,10.92,0,0,1,1.15-.09c0-.38-.09-.76-.16-1.13-.42,0-.83.06-1.25.12a11.61,11.61,0,0,0-4.48,1.47C302.89,243,303.39,243.67,303.81,243.53Zm4.64,1.47a21.29,21.29,0,0,0-2.64.28,14.73,14.73,0,0,0-5.12,1.74c-.38.23.13.74.46.63a31.73,31.73,0,0,1,4.58-1.37A17.62,17.62,0,0,1,308,246c.39,0,.82,0,1.24,0,0-.35.05-.68.06-1C309,245,308.73,245,308.45,245Z" style="fill:#f28f8f"></path><path d="M294.81,229.84a285.16,285.16,0,0,1-14.75-34.21l-12.46-3.86-4.13,7.94c8.79,29.79,29.42,95.11,29.42,95.11s1.54-3.73,3.65-9c0,0,2.78-23.08,4-33.41S298.82,237.37,294.81,229.84Z" style="fill:#f28f8f"></path><path d="M249.9,286.5c-.77-.52-1.54-1-2.3-1.59C237.29,277.33,226.31,269.52,220,258l-38,15.88a240.57,240.57,0,0,0,20.66,20.16c6.15,5.58,24.85,13.24,37,19.35s17.25,9.14,20.31,7.42C263.55,318.89,267.94,298.76,249.9,286.5Z" style="fill:#ffa8a7"></path><path d="M206.08,296.57c.13-.44.26-.87.42-1.3a25.37,25.37,0,0,1,1.15-2.62,14.76,14.76,0,0,0,1.3-2.57c.05-.22-.25-.59-.47-.42a8.24,8.24,0,0,0-1.88,2.57,21,21,0,0,0-1.37,3.06c-.07.19-.12.39-.19.58Z" style="fill:#f28f8f"></path><path d="M210.05,298.58a24.7,24.7,0,0,1,1.62-4.35,17.45,17.45,0,0,1,2.13-3.31,14.89,14.89,0,0,1,1.93-2c.58-.47,1.19-.89,1.72-1.41.14-.14-.06-.51-.26-.46a8.7,8.7,0,0,0-3.84,2.46,16.38,16.38,0,0,0-2.83,3.78,22.17,22.17,0,0,0-1.9,4.78v0l1.35.78C210,298.8,210,298.69,210.05,298.58Z" style="fill:#f28f8f"></path><path d="M214.21,298.25a25,25,0,0,1,1.49-3.34,14.12,14.12,0,0,1,.82-1.34,4.26,4.26,0,0,0,.81-1.35c0-.22-.26-.57-.49-.45a7.86,7.86,0,0,0-2.38,2.82,22.1,22.1,0,0,0-1.62,3.27c-.28.72-.53,1.45-.76,2.19l1.3.69C213.64,299.9,213.9,299.07,214.21,298.25Z" style="fill:#f28f8f"></path><path d="M234.6,310.9a16.62,16.62,0,0,1,5.22-9.92s8.71,3.65,12.43,7,6.59,10.74,4.27,13.11C251.19,321.11,244,315.86,234.6,310.9Z" style="fill:#ffc4c3"></path><path d="M234.6,310.9c1.1.58,2.16,1.16,3.2,1.74a48.73,48.73,0,0,0,2-11.66A16.62,16.62,0,0,0,234.6,310.9Z" style="fill:#fff;opacity:0.30000000000000004"></path><path d="M250.62,225.37c6.1,10,15.48,28,15.59,30.32.62,13.13-.13,26.85-.13,41.05s-.12,24.57,6.11,34c5.64,8.5,16,10.84,17.47,1.55,1.28-7.95,2.08-24.13,3.23-37.44s4.2-32.59,5-43.36-6.28-21.34-11.05-35.27c-4.14-12.11-7.65-27.41-14.14-33.9s-31.05-18.65-40-23.37Z" style="fill:#ffa8a7"></path><path d="M297.18,252.32a16.19,16.19,0,0,1-2.31,0,30.61,30.61,0,0,1-4.74-.86c-.4-.08-.3.49-.06.62a12.73,12.73,0,0,0,5,1.15,17.1,17.1,0,0,0,2.58,0h.08c0-.33.05-.64.07-.95Z" style="fill:#f28f8f"></path><path d="M288,242.67c-.27.13.07.6.31.54a14.06,14.06,0,0,1,5.7-.32,12.18,12.18,0,0,1,2.46.71l.73.35c-.09-.43-.19-.86-.29-1.29a12.28,12.28,0,0,0-2.65-.74A10.57,10.57,0,0,0,288,242.67Z" style="fill:#f28f8f"></path><path d="M291.67,246.15a18.54,18.54,0,0,0-4.52.38c-1.25.28-3.08.59-3.9,1.68,0,0,0,.17.05.17a7.24,7.24,0,0,0,2.05-.36c.72-.18,1.44-.34,2.17-.45a18.72,18.72,0,0,1,8.09.48,16.92,16.92,0,0,1,2.26.84c0-.51,0-1-.09-1.54-.55-.2-1.11-.38-1.65-.53A18.8,18.8,0,0,0,291.67,246.15Z" style="fill:#f28f8f"></path><path d="M292.11,302.42c-.52-.17-1.06-.32-1.59-.47-1.1-.29-2.2-.55-3.32-.76a.43.43,0,0,0-.53.35c0,.28.26.47.5.51,1,.2,2,.42,3.05.69l1.47.43.53.17.06-.87Z" style="fill:#f28f8f"></path><path d="M288.78,298.78A28,28,0,0,1,292.1,300l.36.16.09-1.18-.12-.06a29.14,29.14,0,0,0-3.53-1.16,29.49,29.49,0,0,0-3.61-.7,11.3,11.3,0,0,0-3.89-.07c-.24,0-.13.43.07.47,1.27.25,2.57.32,3.84.54A31.67,31.67,0,0,1,288.78,298.78Z" style="fill:#f28f8f"></path><path d="M286.91,295.63a43.67,43.67,0,0,1,4.67,1.32c.37.13.73.28,1.09.43,0-.33.06-.65.08-1l-.76-.29a29.07,29.07,0,0,0-5.13-1.16C286.41,294.9,286.58,295.56,286.91,295.63Z" style="fill:#f28f8f"></path><path d="M291.49,313.35c-5.86-5.65-12-3.64-12-3.64a76.22,76.22,0,0,0-.81,14.45c.42,6.76,4.88,10.07,8.29,10.65S290.83,328.72,291.49,313.35Z" style="fill:#ffc4c3"></path><path d="M291.38,315.84c0-.8.07-1.63.11-2.49-5.86-5.65-12-3.64-12-3.64C280.66,311.79,287.14,315.44,291.38,315.84Z" style="fill:#fff;opacity:0.30000000000000004"></path><path d="M276,184.11c-2.71-3.7-6.77-5.88-10.77-7.92a61.2,61.2,0,0,1-6.56-3.69c-.12-.09-.15.17-.08.24,3.17,2.8,7,4.75,10.46,7.09a21.08,21.08,0,0,1,8.39,10.06c1.06,2.41,1.94,4.89,2.9,7.34.07.19.22.07.2-.09C280,192.6,278.72,187.84,276,184.11Z" style="fill:#f28f8f"></path></g><g id="freepik--Pen--inject-46"><path d="M207.4,66.3a3.8,3.8,0,0,1,.42.86l-.54-1.93a3.38,3.38,0,0,0-.11-.34l0-.07a2,2,0,0,0-.14-.34l-.08-.16c0-.09-.09-.17-.15-.26l-.28-.4c-.11-.13-.22-.26-.34-.38l0,0a7.5,7.5,0,0,0-3.44-1.83c-5.13-1.35-12.32.6-16.06,4.36a8.22,8.22,0,0,0-1.3,1.63,2.07,2.07,0,0,0-.19.32.5.5,0,0,0-.1.19,2.32,2.32,0,0,0-.18.39,4.74,4.74,0,0,0-.39,1.36,4,4,0,0,0,.09,1.65l.61,2.21a3.85,3.85,0,0,1-.14-1.13,6.67,6.67,0,0,0,4.11,2.65c5.13,1.36,12.33-.59,16.07-4.35A6.63,6.63,0,0,0,207.4,66.3Z" style="fill:#4E944F"></path><path d="M277.77,325.61l-22.71,6.2-.6-2.22-69.3-256a3.85,3.85,0,0,1-.14-1.13A6.71,6.71,0,0,1,187.24,68c3.74-3.76,10.93-5.7,16.06-4.34a7.39,7.39,0,0,1,3.44,1.81,4.62,4.62,0,0,1,.66.83,3.8,3.8,0,0,1,.42.86s0,.11.05.15v.06s0,0,0,0Z" style="fill:#f0f0f0"></path><path d="M273.18,321.88c5.13,1.35,6.26,5.51,2.51,9.27s-10.93,5.71-16.06,4.35-6.25-5.51-2.51-9.27S268.05,320.52,273.18,321.88Z" style="fill:#4E944F"></path><path d="M277.15,343.26c0-.1,0-.21,0-.31l.7-15.77s0,0,0,0V327a2.81,2.81,0,0,0,0-.29v-.16h0c-.05-2.1-1.67-3.89-4.71-4.69-5.13-1.36-12.32.59-16.06,4.35-2.17,2.18-2.69,4.5-1.76,6.32h0l.08.11a4.13,4.13,0,0,0,.33.52l.07.11,0,0,8.54,13.24a3.77,3.77,0,0,0,2.32,1.48,10.49,10.49,0,0,0,9.18-2.48A3.93,3.93,0,0,0,277.15,343.26Z" style="fill:#e0e0e0"></path><path d="M228.36,172.09a.07.07,0,0,0,0-.06l-.08-.31a2.2,2.2,0,0,0-1.57-1.17,6.57,6.57,0,0,0-5.72,1.56,2.17,2.17,0,0,0-.77,1.74,0,0,0,0,0,0,0l.11.4,44,162.46,9.29,2.46Z" style="fill:#455a64"></path><path d="M260.74,323.65l3.54,13.08,9.29,2.46-4.8-17.72A19.91,19.91,0,0,0,260.74,323.65Z" style="fill:#37474f"></path><path d="M276.2,350.14h0l.63-14.3a1.64,1.64,0,0,0,0-.38c0-1.52-1.16-2.8-3.34-3.38a13,13,0,0,0-11.35,3.08c-1.53,1.54-1.91,3.16-1.26,4.45l0,.08.22.34L269,352.17h0a2.13,2.13,0,0,0,1.31.83,5.89,5.89,0,0,0,5.17-1.4A2,2,0,0,0,276.2,350.14Z" style="fill:#4E944F"></path><path d="M276.2,350.14h0l.63-14.3a1.64,1.64,0,0,0,0-.38c0-1.52-1.16-2.8-3.34-3.38a13,13,0,0,0-11.35,3.08c-1.53,1.54-1.91,3.16-1.26,4.45l0,.08.22.34L269,352.17h0a2.13,2.13,0,0,0,1.31.83,5.89,5.89,0,0,0,5.17-1.4A2,2,0,0,0,276.2,350.14Z" style="opacity:0.1"></path><path d="M275.51,351.61a5.93,5.93,0,0,1-5.18,1.39,2.1,2.1,0,0,1-1.3-.83h0l-4-6.14c-.63-1-.4-2.23.79-3.44a9.49,9.49,0,0,1,8.27-2.24c1.56.41,2.4,1.33,2.42,2.42v.29l-.31,7.08h0A2.08,2.08,0,0,1,275.51,351.61Z" style="fill:#4E944F"></path><path d="M274.7,348.62c1.65.44,2,1.77.81,3a5.89,5.89,0,0,1-5.17,1.4c-1.65-.43-2-1.77-.81-3A5.91,5.91,0,0,1,274.7,348.62Z" style="opacity:0.1"></path><path d="M207.07,93.4a2,2,0,0,0-1.62-1.32,6.49,6.49,0,0,0-5.69,1.54,2.06,2.06,0,0,0-.73,2h0l21.18,78.26a2.17,2.17,0,0,1,.77-1.74,6.57,6.57,0,0,1,5.72-1.56,2.2,2.2,0,0,1,1.57,1.17Z" style="fill:#fafafa"></path><path d="M206.34,95.36a6.52,6.52,0,0,1-5.69,1.54,2,2,0,0,1-1.6-1.31,2,2,0,0,1,.71-2,6.49,6.49,0,0,1,5.69-1.54,2,2,0,0,1,1.62,1.32A2.07,2.07,0,0,1,206.34,95.36Z" style="fill:#f5f5f5"></path><path d="M210.55,81.78h0l0-.1a.83.83,0,0,0,0-.15l-3.71-13.67a3,3,0,0,0-.09-.32l0-.08h0c-.48-1.4-1.85-2.55-4-3.13a16.54,16.54,0,0,0-14.45,3.92c-1.7,1.7-2.28,3.49-1.86,5h0l3.76,13.85a.19.19,0,0,0,0,.07l0,.08h0c.45,1.46,1.83,2.65,4.08,3.25a16.56,16.56,0,0,0,14.45-3.92C210.27,85,210.87,83.26,210.55,81.78Z" style="fill:#4E944F"></path><path d="M210.55,81.78h0l0-.1a.83.83,0,0,0,0-.15l-3.71-13.67a3,3,0,0,0-.09-.32l0-.08h0c-.48-1.4-1.85-2.55-4-3.13a16.54,16.54,0,0,0-14.45,3.92c-1.7,1.7-2.28,3.49-1.86,5h0l3.76,13.85a.19.19,0,0,0,0,.07l0,.08h0c.45,1.46,1.83,2.65,4.08,3.25a16.56,16.56,0,0,0,14.45-3.92C210.27,85,210.87,83.26,210.55,81.78Z" style="opacity:0.05"></path><path d="M206.39,78.24c4.62,1.22,5.63,5,2.26,8.35a16.56,16.56,0,0,1-14.45,3.92c-4.62-1.23-5.63-5-2.26-8.35A16.54,16.54,0,0,1,206.39,78.24Z" style="opacity:0.1"></path><path d="M275.85,356.08h0l-1.45-5.74h0a.94.94,0,0,0-.76-.65,3.06,3.06,0,0,0-2.65.72,1,1,0,0,0-.34.91h0l1.43,5.74h0a1.93,1.93,0,0,0,.5.83,1.95,1.95,0,0,0,3.28-1.81Z" style="fill:#455a64"></path><path d="M275.89,356.45h0a1.32,1.32,0,0,0,0-.34v0a1.07,1.07,0,0,0-.74-.51,3,3,0,0,0-2.65.72.92.92,0,0,0-.33.89.35.35,0,0,0,0,.11.64.64,0,0,0,0,.1,1.55,1.55,0,0,0,.37.52,2,2,0,0,0,2.76,0A1.87,1.87,0,0,0,275.89,356.45Z" style="fill:#263238"></path></g><g id="freepik--Fingers--inject-46"><path d="M272.73,168.2c13.85,6.11,15.48,13.72,17.93,23.57s11.82,30.83,15.49,40.31,4.48,11.91.81,24.75-14.07,38-14.07,38S261.72,196.15,259.69,186,258.87,164.55,272.73,168.2Z" style="fill:#ffa8a7"></path><path d="M303.87,250.23a.17.17,0,0,0,0,.17c.44.14,1.11-.16,1.55-.24s1.12-.22,1.68-.3,1.1-.13,1.68-.16c.07-.37.13-.73.19-1.07a17.7,17.7,0,0,0-4.14,1A1.75,1.75,0,0,0,303.87,250.23Zm-.06-6.7a21.68,21.68,0,0,1,4.27-1.13,10.92,10.92,0,0,1,1.15-.09c0-.38-.09-.76-.16-1.13-.42,0-.83.06-1.25.12a11.61,11.61,0,0,0-4.48,1.47C302.89,243,303.39,243.67,303.81,243.53Zm4.64,1.47a21.29,21.29,0,0,0-2.64.28,14.73,14.73,0,0,0-5.12,1.74c-.38.23.13.74.46.63a31.73,31.73,0,0,1,4.58-1.37A17.62,17.62,0,0,1,308,246c.39,0,.82,0,1.24,0,0-.35.05-.68.06-1C309,245,308.73,245,308.45,245Z" style="fill:#f28f8f"></path><path d="M294.81,229.84a285.16,285.16,0,0,1-14.75-34.21l-12.46-3.86-4.13,7.94c8.79,29.79,29.42,95.11,29.42,95.11s1.54-3.73,3.65-9c0,0,2.78-23.08,4-33.41S298.82,237.37,294.81,229.84Z" style="fill:#f28f8f"></path><path d="M249.9,286.5c-.77-.52-1.54-1-2.3-1.59C237.29,277.33,226.31,269.52,220,258l-38,15.88a240.57,240.57,0,0,0,20.66,20.16c6.15,5.58,24.85,13.24,37,19.35s17.25,9.14,20.31,7.42C263.55,318.89,267.94,298.76,249.9,286.5Z" style="fill:#ffa8a7"></path><path d="M206.08,296.57c.13-.44.26-.87.42-1.3a25.37,25.37,0,0,1,1.15-2.62,14.76,14.76,0,0,0,1.3-2.57c.05-.22-.25-.59-.47-.42a8.24,8.24,0,0,0-1.88,2.57,21,21,0,0,0-1.37,3.06c-.07.19-.12.39-.19.58Z" style="fill:#f28f8f"></path><path d="M210.05,298.58a24.7,24.7,0,0,1,1.62-4.35,17.45,17.45,0,0,1,2.13-3.31,14.89,14.89,0,0,1,1.93-2c.58-.47,1.19-.89,1.72-1.41.14-.14-.06-.51-.26-.46a8.7,8.7,0,0,0-3.84,2.46,16.38,16.38,0,0,0-2.83,3.78,22.17,22.17,0,0,0-1.9,4.78v0l1.35.78C210,298.8,210,298.69,210.05,298.58Z" style="fill:#f28f8f"></path><path d="M214.21,298.25a25,25,0,0,1,1.49-3.34,14.12,14.12,0,0,1,.82-1.34,4.26,4.26,0,0,0,.81-1.35c0-.22-.26-.57-.49-.45a7.86,7.86,0,0,0-2.38,2.82,22.1,22.1,0,0,0-1.62,3.27c-.28.72-.53,1.45-.76,2.19l1.3.69C213.64,299.9,213.9,299.07,214.21,298.25Z" style="fill:#f28f8f"></path><path d="M234.6,310.9a16.62,16.62,0,0,1,5.22-9.92s8.71,3.65,12.43,7,6.59,10.74,4.27,13.11C251.19,321.11,244,315.86,234.6,310.9Z" style="fill:#ffc4c3"></path><path d="M234.6,310.9c1.1.58,2.16,1.16,3.2,1.74a48.73,48.73,0,0,0,2-11.66A16.62,16.62,0,0,0,234.6,310.9Z" style="fill:#fff;opacity:0.30000000000000004"></path><path d="M250.62,225.37c6.1,10,15.48,28,15.59,30.32.62,13.13-.13,26.85-.13,41.05s-.12,24.57,6.11,34c5.64,8.5,16,10.84,17.47,1.55,1.28-7.95,2.08-24.13,3.23-37.44s4.2-32.59,5-43.36-6.28-21.34-11.05-35.27c-4.14-12.11-7.65-27.41-14.14-33.9s-31.05-18.65-40-23.37Z" style="fill:#ffa8a7"></path><path d="M297.18,252.32a16.19,16.19,0,0,1-2.31,0,30.61,30.61,0,0,1-4.74-.86c-.4-.08-.3.49-.06.62a12.73,12.73,0,0,0,5,1.15,17.1,17.1,0,0,0,2.58,0h.08c0-.33.05-.64.07-.95Z" style="fill:#f28f8f"></path><path d="M288,242.67c-.27.13.07.6.31.54a14.06,14.06,0,0,1,5.7-.32,12.18,12.18,0,0,1,2.46.71l.73.35c-.09-.43-.19-.86-.29-1.29a12.28,12.28,0,0,0-2.65-.74A10.57,10.57,0,0,0,288,242.67Z" style="fill:#f28f8f"></path><path d="M291.67,246.15a18.54,18.54,0,0,0-4.52.38c-1.25.28-3.08.59-3.9,1.68,0,0,0,.17.05.17a7.24,7.24,0,0,0,2.05-.36c.72-.18,1.44-.34,2.17-.45a18.72,18.72,0,0,1,8.09.48,16.92,16.92,0,0,1,2.26.84c0-.51,0-1-.09-1.54-.55-.2-1.11-.38-1.65-.53A18.8,18.8,0,0,0,291.67,246.15Z" style="fill:#f28f8f"></path><path d="M292.11,302.42c-.52-.17-1.06-.32-1.59-.47-1.1-.29-2.2-.55-3.32-.76a.43.43,0,0,0-.53.35c0,.28.26.47.5.51,1,.2,2,.42,3.05.69l1.47.43.53.17.06-.87Z" style="fill:#f28f8f"></path><path d="M288.78,298.78A28,28,0,0,1,292.1,300l.36.16.09-1.18-.12-.06a29.14,29.14,0,0,0-3.53-1.16,29.49,29.49,0,0,0-3.61-.7,11.3,11.3,0,0,0-3.89-.07c-.24,0-.13.43.07.47,1.27.25,2.57.32,3.84.54A31.67,31.67,0,0,1,288.78,298.78Z" style="fill:#f28f8f"></path><path d="M286.91,295.63a43.67,43.67,0,0,1,4.67,1.32c.37.13.73.28,1.09.43,0-.33.06-.65.08-1l-.76-.29a29.07,29.07,0,0,0-5.13-1.16C286.41,294.9,286.58,295.56,286.91,295.63Z" style="fill:#f28f8f"></path><path d="M291.49,313.35c-5.86-5.65-12-3.64-12-3.64a76.22,76.22,0,0,0-.81,14.45c.42,6.76,4.88,10.07,8.29,10.65S290.83,328.72,291.49,313.35Z" style="fill:#ffc4c3"></path><path d="M291.38,315.84c0-.8.07-1.63.11-2.49-5.86-5.65-12-3.64-12-3.64C280.66,311.79,287.14,315.44,291.38,315.84Z" style="fill:#fff;opacity:0.30000000000000004"></path><path d="M276,184.11c-2.71-3.7-6.77-5.88-10.77-7.92a61.2,61.2,0,0,1-6.56-3.69c-.12-.09-.15.17-.08.24,3.17,2.8,7,4.75,10.46,7.09a21.08,21.08,0,0,1,8.39,10.06c1.06,2.41,1.94,4.89,2.9,7.34.07.19.22.07.2-.09C280,192.6,278.72,187.84,276,184.11Z" style="fill:#f28f8f"></path></g></g></g><g id="freepik--speech-bubble--inject-46"><g id="freepik--speech-bubble--inject-46"><path d="M296,105c0-32.24,36.48-58.37,81.48-58.37S459,72.75,459,105s-36.49,58.38-81.49,58.38q-4.07,0-8-.29c-8.9,16.73-24,19.6-35.8,18.27a22.07,22.07,0,0,0,12.57-22.44C316.74,150.13,296,129.3,296,105Z" style="fill:#fff"></path><path d="M333.56,182.19a.84.84,0,0,1-.74-.71.85.85,0,0,1,.49-.91,21.23,21.23,0,0,0,12.12-21c-30.56-9.29-50.28-30.66-50.28-54.57,0-32.65,36.94-59.22,82.33-59.22S459.82,72.34,459.82,105s-36.94,59.23-82.34,59.23c-2.46,0-5-.09-7.53-.25-8.41,15.34-21.76,18.51-31.34,18.51A45,45,0,0,1,333.56,182.19Zm36-20c2.68.19,5.36.29,8,.29,44.46,0,80.63-25.81,80.63-57.53s-36.17-57.52-80.63-57.52S296.85,73.27,296.85,105c0,23.28,19.48,44.13,49.63,53.11a.85.85,0,0,1,.6.73,23.17,23.17,0,0,1-10.48,21.9c9.32.43,23.54-1.93,32.11-18a.85.85,0,0,1,.75-.45Z" style="fill:#e0e0e0"></path><path d="M397,144l3.2.43-.23,1.87h-10.7l.24-1.87,3.12-.47-1.72-6.6h-9.17l-2.31,6.6,3.52.47-.24,1.87h-9.21l.23-1.87,2.93-.47,9-24.79,4.3-.47Zm-6.71-9L387,122.3h-.12L382.5,135Z" style="fill:#e0e0e0"></path><path d="M340.63,122l.47-13.46-1.88-.43.12-1h3.15l.33.23-.25,6.69-.54,4.75.16,0,.75-2.79c.73-2.75,1.65-3.94,3.47-3.94,2.09,0,3,1.63,3,4.3,0,4.21-2.05,6.51-4.9,6.51A9,9,0,0,1,340.63,122Zm2.51-3.11-.67,2.32a4.69,4.69,0,0,0,2,.47c1.88,0,3.1-2.13,3.1-5.12,0-1.13,0-3-1.44-3C344.55,113.57,344.15,115.47,343.14,118.93Z" style="fill:#e0e0e0"></path><path d="M326.75,88.69a1.26,1.26,0,0,1-1.3,1.35,1.43,1.43,0,0,1-1.31-.89l.42-.5c.79-.89,0-1.4-1-1.4-1.86,0-2.93,1.7-2.93,4.77,0,1.92.73,3.46,2.37,3.46a4,4,0,0,0,2.75-1.54l.74.77a5,5,0,0,1-3.88,2.21c-2.62,0-4-2-4-4.83,0-3.48,1.9-6,5-6C325.39,86.06,326.75,87,326.75,88.69Z" style="fill:#e0e0e0"></path><path d="M388.72,79.8c.93,2-.55,3.53-1.94,4.63L385,85.87c.68,1.18,2,2.32,3.58,1.62a3.89,3.89,0,0,0,1.83-2.29l.94.39a4.8,4.8,0,0,1-2.58,3.28c-2.37,1.09-4.5-.19-5.66-2.71-1.45-3.16-.74-6.25,1.9-7.46C386.82,77.85,388.07,78.39,388.72,79.8Zm-3.39,0c-1.52.71-1.82,2.58-.84,5l1.63-1.33c1.14-.92,1.54-1.69,1-2.88C386.78,79.89,386.17,79.39,385.33,79.78Z" style="fill:#e0e0e0"></path><path d="M379.54,99.77l-1.2,2.9,4.33,1.52-.81,1.89-4.2-1.47-4,10.06c-1.47,3.66-3.85,7.26-6.31,8.78a3.69,3.69,0,0,1-3.27.57c-1.28-.45-1.88-1.38-1.6-2.38a3.85,3.85,0,0,1,1.57-1.92l1.17,1.06c.94.86,1.95.83,2.71-.7.49-1,.86-1.94,1.38-3.22l5.23-13.35-2.7-1,.83-1.64,2.63.64L376,100c1.65-4,4.88-6.26,8.95-4.82,2,.7,4.22,2.52,3.29,5.16a1.89,1.89,0,0,1-2.61,1.22,2.39,2.39,0,0,1-1.49-1.45l.63-.78c1-1.24.83-2.14-.57-2.63C382.08,96,380.49,97.49,379.54,99.77Z" style="fill:#e0e0e0"></path><path d="M414,102.68l-1.59,2.08c-2.49,3.22-4.32,4.56-7,3.44-2.9-1.21-3-4.36-1.65-7.59,2.1-5.07,6-7.5,9.86-5.92a10.41,10.41,0,0,1,3.2,2.09l1.32-.25.7.61-5.29,11.51c-1.94,4.22-5.23,7.71-10.6,5.49-1.9-.79-3.85-2.36-3-4.34a1.94,1.94,0,0,1,2.56-1.26,2.2,2.2,0,0,1,1.25,1.34l-.57.69c-.93,1-.72,1.8.77,2.42,2.82,1.17,5.4-.91,7.56-5l2.72-5.16Zm-.49-1.5,2.26-2.91a8.47,8.47,0,0,0-2.65-1.83c-2.54-1.06-5.28,1.17-6.89,5-.48,1.14-1.74,4.18.35,5S410.41,105.12,413.48,101.18Z" style="fill:#e0e0e0"></path><path d="M321.8,118.53a7.09,7.09,0,0,0-1.93,1.37l-1.27-1.67a10.09,10.09,0,0,1,4-3c2.18-.83,3.85,0,4.73,3L330.9,130c.31,1,.64,1.57,1.46,1.26a4.08,4.08,0,0,0,1.71-1.71l1.51,1.29a7.89,7.89,0,0,1-3.95,3.74c-2.62,1-3.92-.19-4.6-2.43l-3.71-12.5C323.05,118.69,322.65,118.21,321.8,118.53Zm-1.74-12.23a2.79,2.79,0,1,1-1.66,3.64A2.71,2.71,0,0,1,320.06,106.3Z" style="fill:#e0e0e0"></path><path d="M375.46,74.09c-1.55,0-2-.91-1.89-2.15l.65-7.4c.15-1.84-.16-2.41-1-2.41-1,0-1.43.73-2.24,3l-3,8.56h-2.13l.41-10.8c0-.72-.15-1-.7-1a4.87,4.87,0,0,0-1.53.46l-.44-1.29a7.31,7.31,0,0,1,3-.86c1.48,0,2,.91,1.81,2.65l-.65,6.93.19,0,1.89-5.63c.93-2.76,2-4,4-4,2.31,0,2.93,1.48,2.67,4.49l-.57,6.69c-.08.78,0,1.12.6,1.12a2.62,2.62,0,0,0,1.45-.62l.6.93A5.37,5.37,0,0,1,375.46,74.09Z" style="fill:#e0e0e0"></path><path d="M429.3,80.11c3.53,0,5.56,2.62,5.56,6.61s-1.79,7.7-6.34,7.7c-3.53,0-5.5-2.62-5.5-6.66S424.73,80.11,429.3,80.11Zm3.05,6.58c0-2.92-.83-5-3.26-5-2.87,0-3.53,3-3.53,6.21,0,3,1,5,3.12,5C431.55,92.84,432.35,89.92,432.35,86.69Z" style="fill:#e0e0e0"></path><path d="M341.82,64.46c6.72-2.43,13.33.33,16.37,8.73,3.33,9.19.06,15.4-6.7,18.7l.11.32a12.91,12.91,0,0,1,6.79.39c3.45,1,4.7,1,4.59-.57l-.12-1.45c2.44-.89,4-.09,4.56,1.47.71,2-.49,3.66-2.32,4.32-2,.73-4.37.32-7.3-.66-3.84-1.36-5.25-1.89-7.57-1-1.68.6-2.69,1.56-4.4,3.22L344,96.05a16.31,16.31,0,0,1,3.16-2.63l-.09-.24c-6.37.63-11-3.39-13.07-9.11C330.05,73.16,335.19,66.87,341.82,64.46ZM350,90.16c4.72-1.71,6.78-7,4-14.74-2.53-7-6.9-9.94-11.82-8.16-4.51,1.64-7.21,6-4.05,14.77C340.67,89,344.81,92.05,350,90.16Z" style="fill:#e0e0e0"></path><path d="M410.81,128.56a3.81,3.81,0,0,0-1.19.36l-.34-1a5.76,5.76,0,0,1,2.32-.66c1.15,0,1.54.7,1.42,2.06l-.29,2.87.13,0,1.09-2.57c.66-1.58,1.17-2.38,2.36-2.38a1.39,1.39,0,0,1,1.56,1.37,1.5,1.5,0,0,1-.95,1.39l-.47-.54c-.22-.28-.38-.45-.68-.45s-.61.33-1.26,1.76c-1.49,3.36-1.78,4-1.88,5.34l-.18,1.66H411l.4-8.41C411.38,128.8,411.24,128.56,410.81,128.56Z" style="fill:#e0e0e0"></path><path d="M395.34,65.56c2.23-.52,3.25.59,3.51,2.53l1.48,10.5c.35,2.34.72,3.14,1.89,2.87s1.54-1.51,1.87-4.86l1.22-12.82,3.54-.82,2.94,15.32c.19,1,.51,1.38,1.28,1.2a7,7,0,0,0,1.94-1.1l1.08,1.67a10.61,10.61,0,0,1-4,2.28c-2.16.5-3.26-.59-3.6-3.09l-1.36-10-.3,0-.6,8.52c-.31,4-1.3,6.19-4.22,6.87-3.21.74-4.58-1.21-5.17-5.23l-1.41-9.71c-.12-1-.4-1.56-1.2-1.38a3.73,3.73,0,0,0-1.75,1.26l-1.15-1.31A8.22,8.22,0,0,1,395.34,65.56Z" style="fill:#e0e0e0"></path><path d="M359.17,135.32a38.13,38.13,0,0,1-1.3,5.16c-.52,1.7-.74,2.82.74,3.07,2.51.42,4.69-3.83,5.23-6.55.23-1.19,0-1.52-.62-1.89l-.89-.49c.06-1.43.86-2.29,2.11-2.08,1.61.27,2.08,1.53,1.78,3.32-.68,4-3.75,10.49-8.44,9.7a2.8,2.8,0,0,1-2.45-3.07,4.43,4.43,0,0,1-4.62,1.87c-1.38-.23-3.5-1.06-2.69-4.73l1.5-6.89c.17-.81-.27-1-1-.93l-.92.14-.2-1.43a7.86,7.86,0,0,1,3.3-.31,2,2,0,0,1,1.76,2.66L351,139.49c-.39,1.72-.4,2.69.83,2.9,2.55.43,3.84-3,4.52-7.06a30.06,30.06,0,0,0,.38-3.45l2.75.15A17.14,17.14,0,0,1,359.17,135.32Z" style="fill:#e0e0e0"></path><path d="M431.39,116.39l7.11-7.94-2.45-1.11.49-1.37,7.22,1.61-.55,1.48-2.51,0-9,9.67-1.57,5.9,2.73,1-.51,1.42-8.29-1.84.5-1.43,2.55.16,1.65-5.86-3.49-12.56-2.15-1,.55-1.45,8,1.77-.51,1.46-2.57-.16,2.69,10.18Z" style="fill:#e0e0e0"></path></g></g></svg>