<svg xmlns="http://www.w3.org/2000/svg" viewBox="0 0 500 500"><g id="freepik--background-complete--inject-44"><rect y="382.4" width="500" height="0.25" style="fill:#ebebeb"></rect><rect x="416.78" y="398.49" width="33.12" height="0.25" style="fill:#ebebeb"></rect><rect x="322.53" y="401.21" width="8.69" height="0.25" style="fill:#ebebeb"></rect><rect x="396.59" y="389.21" width="19.19" height="0.25" style="fill:#ebebeb"></rect><rect x="52.46" y="390.89" width="43.19" height="0.25" style="fill:#ebebeb"></rect><rect x="104.56" y="390.89" width="6.33" height="0.25" style="fill:#ebebeb"></rect><rect x="131.47" y="395.11" width="93.68" height="0.25" style="fill:#ebebeb"></rect><path d="M237,337.8H43.91a5.71,5.71,0,0,1-5.7-5.71V60.66A5.71,5.71,0,0,1,43.91,55H237a5.71,5.71,0,0,1,5.71,5.71V332.09A5.71,5.71,0,0,1,237,337.8ZM43.91,55.2a5.46,5.46,0,0,0-5.45,5.46V332.09a5.46,5.46,0,0,0,5.45,5.46H237a5.47,5.47,0,0,0,5.46-5.46V60.66A5.47,5.47,0,0,0,237,55.2Z" style="fill:#ebebeb"></path><path d="M453.31,337.8H260.21a5.72,5.72,0,0,1-5.71-5.71V60.66A5.72,5.72,0,0,1,260.21,55h193.1A5.71,5.71,0,0,1,459,60.66V332.09A5.71,5.71,0,0,1,453.31,337.8ZM260.21,55.2a5.47,5.47,0,0,0-5.46,5.46V332.09a5.47,5.47,0,0,0,5.46,5.46h193.1a5.47,5.47,0,0,0,5.46-5.46V60.66a5.47,5.47,0,0,0-5.46-5.46Z" style="fill:#ebebeb"></path><rect x="101.58" y="168.76" width="146.22" height="214.37" style="fill:#f0f0f0"></rect><rect x="106.75" y="175.51" width="135.88" height="39.59" style="fill:#e0e0e0"></rect><rect x="106.75" y="181.92" width="7.72" height="33.18" style="fill:#ebebeb"></rect><rect x="144.08" y="181.92" width="7.72" height="33.18" style="fill:#ebebeb"></rect><rect x="189.32" y="181.5" width="7.72" height="33.18" transform="translate(-30.84 35.69) rotate(-9.78)" style="fill:#ebebeb"></rect><rect x="116.32" y="186.29" width="7.72" height="28.81" style="fill:#ebebeb"></rect><rect x="134.06" y="186.29" width="7.72" height="28.81" style="fill:#ebebeb"></rect><rect x="178.84" y="186.29" width="7.72" height="28.81" style="fill:#ebebeb"></rect><rect x="157.43" y="185.8" width="7.72" height="28.81" transform="translate(-39.59 39.75) rotate(-12.53)" style="fill:#ebebeb"></rect><rect x="126.85" y="180.27" width="3.86" height="34.83" style="fill:#ebebeb"></rect><rect x="172.76" y="180.27" width="3.86" height="34.83" style="fill:#ebebeb"></rect><rect x="106.75" y="221.37" width="135.88" height="39.59" transform="translate(349.38 482.33) rotate(180)" style="fill:#e0e0e0"></rect><rect x="234.91" y="227.78" width="7.72" height="33.18" transform="translate(477.55 488.74) rotate(180)" style="fill:#ebebeb"></rect><rect x="197.59" y="227.78" width="7.72" height="33.18" transform="translate(402.9 488.74) rotate(180)" style="fill:#ebebeb"></rect><rect x="152.34" y="227.37" width="7.72" height="33.18" transform="translate(268.71 510.9) rotate(-170.22)" style="fill:#ebebeb"></rect><rect x="225.35" y="232.15" width="7.72" height="28.81" transform="translate(458.42 493.11) rotate(180)" style="fill:#ebebeb"></rect><rect x="207.61" y="232.15" width="7.72" height="28.81" transform="translate(422.93 493.11) rotate(180)" style="fill:#ebebeb"></rect><rect x="162.82" y="232.15" width="7.72" height="28.81" transform="translate(333.37 493.11) rotate(180)" style="fill:#ebebeb"></rect><rect x="184.23" y="231.66" width="7.72" height="28.81" transform="translate(318.34 527.07) rotate(-167.47)" style="fill:#ebebeb"></rect><rect x="218.67" y="226.13" width="3.86" height="34.83" transform="translate(441.21 487.09) rotate(180)" style="fill:#ebebeb"></rect><rect x="172.76" y="226.13" width="3.86" height="34.83" transform="translate(349.38 487.09) rotate(180)" style="fill:#ebebeb"></rect><rect x="106.75" y="227.78" width="7.72" height="33.18" style="fill:#ebebeb"></rect><rect x="116.32" y="232.15" width="7.72" height="28.81" style="fill:#ebebeb"></rect><rect x="134.06" y="232.15" width="7.72" height="28.81" style="fill:#ebebeb"></rect><rect x="126.85" y="226.13" width="3.86" height="34.83" style="fill:#ebebeb"></rect><rect x="106.75" y="267.23" width="135.88" height="39.59" style="fill:#e0e0e0"></rect><rect x="184.74" y="273.64" width="7.72" height="33.18" style="fill:#ebebeb"></rect><rect x="229.99" y="273.23" width="7.72" height="33.18" transform="translate(-45.83 43.93) rotate(-9.78)" style="fill:#ebebeb"></rect><rect x="156.98" y="278.01" width="7.72" height="28.81" style="fill:#ebebeb"></rect><rect x="174.73" y="278.01" width="7.72" height="28.81" style="fill:#ebebeb"></rect><rect x="219.51" y="278.01" width="7.72" height="28.81" style="fill:#ebebeb"></rect><rect x="198.1" y="277.52" width="7.72" height="28.81" transform="translate(-58.51 50.76) rotate(-12.53)" style="fill:#ebebeb"></rect><rect x="167.52" y="271.99" width="3.86" height="34.83" style="fill:#ebebeb"></rect><rect x="213.43" y="271.99" width="3.86" height="34.83" style="fill:#ebebeb"></rect><rect x="141.18" y="273.23" width="7.72" height="33.18" transform="translate(-47.12 28.85) rotate(-9.78)" style="fill:#ebebeb"></rect><rect x="130.7" y="278.01" width="7.72" height="28.81" style="fill:#ebebeb"></rect><rect x="109.29" y="277.52" width="7.72" height="28.81" transform="translate(-60.63 31.49) rotate(-12.53)" style="fill:#ebebeb"></rect><rect x="124.63" y="271.99" width="3.86" height="34.83" style="fill:#ebebeb"></rect><rect x="76.36" y="168.76" width="25.23" height="214.94" transform="translate(177.94 552.46) rotate(180)" style="fill:#e0e0e0"></rect><rect x="309.15" y="113.96" width="91.95" height="207.14" style="fill:#ebebeb"></rect><rect x="256.61" y="174.41" width="199.37" height="85.01" transform="translate(573.21 -139.38) rotate(90)" style="fill:#fafafa"></rect><rect x="354.14" y="116.85" width="1.95" height="202.31" style="fill:#f5f5f5"></rect><rect x="307.02" y="111.27" width="96.19" height="9.75" style="fill:#e0e0e0"></rect><rect x="307.02" y="122.09" width="96.19" height="1.16" style="fill:#f5f5f5"></rect><rect x="307.02" y="124.72" width="96.19" height="1.16" style="fill:#f5f5f5"></rect><rect x="307.02" y="127.34" width="96.19" height="1.16" style="fill:#f5f5f5"></rect><rect x="307.02" y="129.96" width="96.19" height="1.16" style="fill:#f5f5f5"></rect><rect x="307.02" y="132.58" width="96.19" height="1.16" style="fill:#f5f5f5"></rect><rect x="307.02" y="135.21" width="96.19" height="1.16" style="fill:#f5f5f5"></rect><rect x="307.02" y="137.83" width="96.19" height="1.16" style="fill:#f5f5f5"></rect><rect x="307.02" y="140.45" width="96.19" height="1.16" style="fill:#f5f5f5"></rect><rect x="307.02" y="143.07" width="96.19" height="1.16" style="fill:#f5f5f5"></rect><rect x="307.02" y="145.7" width="96.19" height="1.16" style="fill:#f5f5f5"></rect><rect x="307.02" y="148.32" width="96.19" height="1.16" style="fill:#f5f5f5"></rect><rect x="307.02" y="150.94" width="96.19" height="1.16" style="fill:#f5f5f5"></rect><rect x="307.02" y="153.56" width="96.19" height="1.16" style="fill:#f5f5f5"></rect><rect x="307.02" y="156.18" width="96.19" height="1.16" style="fill:#f5f5f5"></rect><rect x="307.02" y="158.81" width="96.19" height="1.16" style="fill:#f5f5f5"></rect><rect x="307.02" y="161.43" width="96.19" height="1.16" style="fill:#f5f5f5"></rect><rect x="307.02" y="164.05" width="96.19" height="1.16" style="fill:#f5f5f5"></rect><rect x="307.02" y="166.67" width="96.19" height="1.16" style="fill:#f5f5f5"></rect><circle cx="207.47" cy="114.04" r="16.3" style="fill:#e0e0e0"></circle><circle cx="207.47" cy="114.04" r="13.86" style="fill:#f0f0f0"></circle><polyline points="208.12 104.53 208.12 114.22 214.54 110.59" style="fill:#f0f0f0"></polyline><path d="M208.12,115.23a1,1,0,0,1-1-1v-9.7a1,1,0,1,1,2,0v8l4.93-2.79a1,1,0,0,1,1.36.38,1,1,0,0,1-.37,1.36l-6.43,3.64A1.05,1.05,0,0,1,208.12,115.23Z" style="fill:#e0e0e0"></path></g><g id="freepik--Shadow--inject-44"><ellipse id="freepik--path--inject-44" cx="250" cy="416.24" rx="193.89" ry="11.32" style="fill:#f5f5f5"></ellipse></g><g id="freepik--speech-bubble--inject-44"><path d="M281,207.62s-1.18,8.19-11.8,12.26c0,0,5.9-6.13,5.69-12Z" style="fill:#4E944F"></path><path d="M281,207.62s-1.18,8.19-11.8,12.26c0,0,5.9-6.13,5.69-12Z" style="fill:#fff;opacity:0.7000000000000001"></path><ellipse cx="305.76" cy="175.72" rx="55.88" ry="38.03" style="fill:#4E944F"></ellipse><ellipse cx="305.76" cy="175.72" rx="55.88" ry="38.03" style="fill:#fff;opacity:0.7000000000000001"></ellipse><path d="M292,124.62v70.9a7,7,0,0,0,7,7h32.6a7.33,7.33,0,0,0,3.81-1.08,7,7,0,0,1-3.3-5.94v-70.9Z" style="fill:#4E944F"></path><path d="M292,124.62v70.9a7,7,0,0,0,7,7h32.6a7.33,7.33,0,0,0,3.81-1.08,7,7,0,0,1-3.3-5.94v-70.9Z" style="fill:#fff;opacity:0.4"></path><rect x="303.3" y="130.64" width="23.36" height="1.19" style="fill:#4E944F"></rect><rect x="297.61" y="133.83" width="29.05" height="1.19" style="fill:#4E944F"></rect><rect x="297.61" y="137.01" width="29.05" height="1.19" style="fill:#4E944F"></rect><rect x="297.61" y="140.2" width="29.05" height="1.19" style="fill:#4E944F"></rect><rect x="297.61" y="143.39" width="29.05" height="1.19" style="fill:#4E944F"></rect><rect x="297.61" y="146.58" width="15.83" height="1.19" style="fill:#4E944F"></rect><rect x="303.3" y="171.2" width="23.36" height="1.19" style="fill:#4E944F"></rect><rect x="297.61" y="174.39" width="29.05" height="1.19" style="fill:#4E944F"></rect><rect x="297.61" y="177.57" width="29.05" height="1.19" style="fill:#4E944F"></rect><rect x="297.61" y="180.76" width="29.05" height="1.19" style="fill:#4E944F"></rect><rect x="297.61" y="183.95" width="29.05" height="1.19" style="fill:#4E944F"></rect><rect x="297.61" y="187.14" width="24.73" height="1.19" style="fill:#4E944F"></rect><rect x="303.3" y="152.95" width="23.36" height="1.19" style="fill:#4E944F"></rect><rect x="297.61" y="156.14" width="29.05" height="1.19" style="fill:#4E944F"></rect><rect x="297.61" y="159.33" width="29.05" height="1.19" style="fill:#4E944F"></rect><rect x="297.61" y="162.51" width="29.05" height="1.19" style="fill:#4E944F"></rect><rect x="297.61" y="165.26" width="15.83" height="1.19" style="fill:#4E944F"></rect><polygon points="282.36 130.19 278.58 121.58 278.61 121.57 278.04 120.25 277.99 120.27 276.45 120.92 276.45 120.92 272.04 122.78 272.62 124.09 277.03 122.23 280.81 130.85 282.36 130.19" style="fill:#263238"></polygon><polygon points="282.36 130.19 278.58 121.58 278.61 121.57 278.04 120.25 277.99 120.27 276.45 120.92 276.45 120.92 272.04 122.78 272.62 124.09 277.03 122.23 280.81 130.85 282.36 130.19" style="fill:#fff;opacity:0.5"></polygon><path d="M280.52,154.11q-11-13.63-12.93-29.44l6-2.52a68.24,68.24,0,0,1,12.93,29.44Z" style="fill:#263238"></path><polygon points="292.76 182 299.47 189.18 298.76 179.48 292.76 182" style="fill:#263238"></polygon><polygon points="292.76 182 297.41 186.98 299.47 189.18 298.76 179.48 292.76 182" style="fill:#fff;opacity:0.30000000000000004"></polygon><polygon points="297.53 187.11 298.87 188.54 299.47 189.18 299.26 186.38 297.53 187.11" style="fill:#263238"></polygon><polygon points="292.76 182 280.52 154.11 286.51 151.59 298.76 179.48 292.76 182" style="fill:#263238"></polygon><polygon points="292.76 182 280.52 154.11 286.51 151.59 298.76 179.48 292.76 182" style="fill:#fff;opacity:0.1"></polygon><path d="M267.59,124.67l6-2.52s-.57-2.12-3.69-.92S267.59,124.67,267.59,124.67Z" style="fill:#263238"></path><path d="M267.59,124.67l6-2.52s-.57-2.12-3.69-.92S267.59,124.67,267.59,124.67Z" style="fill:#fff;opacity:0.1"></path></g><g id="freepik--Books--inject-44"><path d="M333.18,386h76.37V402h-76.4A62.45,62.45,0,0,0,333.18,386Z" style="fill:#4E944F"></path><path d="M333.18,386h76.37V402h-76.4A62.45,62.45,0,0,0,333.18,386Z" style="fill:#fff;opacity:0.7000000000000001"></path><path d="M397.06,401.37a10.57,10.57,0,0,0,0-14.94L395.63,385h24l.25.24a12.25,12.25,0,0,1,0,17.31l-.25.25h-24Z" style="fill:#4E944F"></path><g style="opacity:0.30000000000000004"><path d="M397.06,401.37a10.57,10.57,0,0,0,0-14.94L395.63,385h24l.25.24a12.25,12.25,0,0,1,0,17.31l-.25.25h-24Z"></path></g><path d="M332.4,402.8h64.82l.07-.07a12.57,12.57,0,0,0,3.75-8.4,12.18,12.18,0,0,0-3.57-9.09l-.25-.24H332.4a.83.83,0,0,0-.84.83h0a.83.83,0,0,0,.84.84h64.12a10.56,10.56,0,0,1,0,14.45H332.4a.84.84,0,0,0-.84.84h0A.84.84,0,0,0,332.4,402.8Z" style="fill:#4E944F"></path><path d="M339.17,392h3.67a.63.63,0,0,0,.63-.63h0a.63.63,0,0,0-.63-.63h-3.67a.63.63,0,0,0-.63.63h0A.63.63,0,0,0,339.17,392Z" style="fill:#fff"></path><path d="M347.66,392h34a.63.63,0,0,0,.63-.63h0a.63.63,0,0,0-.63-.63h-34a.63.63,0,0,0-.63.63h0A.63.63,0,0,0,347.66,392Z" style="fill:#fff"></path><path d="M386.32,392h7.54a.63.63,0,0,0,.63-.63h0a.63.63,0,0,0-.63-.63h-7.54a.63.63,0,0,0-.63.63h0A.63.63,0,0,0,386.32,392Z" style="fill:#fff"></path><path d="M339.17,397.28h32.27a.63.63,0,0,0,.63-.63h0a.63.63,0,0,0-.63-.63H339.17a.63.63,0,0,0-.63.63h0A.63.63,0,0,0,339.17,397.28Z" style="fill:#fff"></path><path d="M376.16,397.28h17.7a.63.63,0,0,0,.63-.63h0a.63.63,0,0,0-.63-.63h-17.7a.63.63,0,0,0-.63.63h0A.63.63,0,0,0,376.16,397.28Z" style="fill:#fff"></path><path d="M335.2,353.89h68.73v14.33H335.18A55.88,55.88,0,0,0,335.2,353.89Z" style="fill:#4E944F"></path><path d="M335.2,353.89h68.73v14.33H335.18A55.88,55.88,0,0,0,335.2,353.89Z" style="fill:#fff;opacity:0.8"></path><path d="M392.7,367.69a9.52,9.52,0,0,0,0-13.45L391.41,353H413l.22.22a11,11,0,0,1,0,15.58L413,369h-21.6Z" style="fill:#4E944F"></path><g style="opacity:0.2"><path d="M392.7,367.69a9.52,9.52,0,0,0,0-13.45L391.41,353H413l.22.22a11,11,0,0,1,0,15.58L413,369h-21.6Z" style="fill:#fff"></path></g><path d="M334.5,369h58.34l.06-.06a11.28,11.28,0,0,0,3.38-7.55,10.94,10.94,0,0,0-3.22-8.19l-.22-.22H334.5a.76.76,0,0,0-.76.76h0a.76.76,0,0,0,.76.75h57.71a9.52,9.52,0,0,1,0,13H334.5a.75.75,0,0,0-.76.75h0A.75.75,0,0,0,334.5,369Z" style="fill:#4E944F"></path><g style="opacity:0.4"><path d="M334.5,369h58.34l.06-.06a11.28,11.28,0,0,0,3.38-7.55,10.94,10.94,0,0,0-3.22-8.19l-.22-.22H334.5a.76.76,0,0,0-.76.76h0a.76.76,0,0,0,.76.75h57.71a9.52,9.52,0,0,1,0,13H334.5a.75.75,0,0,0-.76.75h0A.75.75,0,0,0,334.5,369Z" style="fill:#fff"></path></g><path d="M340.6,359.23h3.3a.56.56,0,0,0,.56-.56h0a.56.56,0,0,0-.56-.57h-3.3a.57.57,0,0,0-.57.57h0A.57.57,0,0,0,340.6,359.23Z" style="fill:#fff"></path><path d="M348.24,359.23h30.64a.57.57,0,0,0,.57-.56h0a.57.57,0,0,0-.57-.57H348.24a.56.56,0,0,0-.57.57h0A.56.56,0,0,0,348.24,359.23Z" style="fill:#fff"></path><path d="M383,359.23h6.79a.56.56,0,0,0,.56-.56h0a.56.56,0,0,0-.56-.57H383a.57.57,0,0,0-.57.57h0A.57.57,0,0,0,383,359.23Z" style="fill:#fff"></path><path d="M340.6,364h29a.57.57,0,0,0,.57-.57h0a.57.57,0,0,0-.57-.56h-29a.57.57,0,0,0-.57.56h0A.57.57,0,0,0,340.6,364Z" style="fill:#fff"></path><path d="M373.88,364h15.94a.56.56,0,0,0,.56-.57h0a.56.56,0,0,0-.56-.56H373.88a.56.56,0,0,0-.56.56h0A.56.56,0,0,0,373.88,364Z" style="fill:#fff"></path><path d="M332.78,369.91h68.73v14.33H332.76A55.88,55.88,0,0,0,332.78,369.91Z" style="fill:#4E944F"></path><path d="M332.78,369.91h68.73v14.33H332.76A55.88,55.88,0,0,0,332.78,369.91Z" style="fill:#fff;opacity:0.7000000000000001"></path><path d="M390.28,383.71a9.52,9.52,0,0,0,0-13.45L389,369h21.6l.22.23a11,11,0,0,1,0,15.57l-.22.23H389Z" style="fill:#4E944F"></path><path d="M332.08,385h58.34l.06-.07a11.28,11.28,0,0,0,3.38-7.55,10.9,10.9,0,0,0-3.22-8.18l-.22-.23H332.08a.76.76,0,0,0-.76.76h0a.75.75,0,0,0,.76.75h57.71a9.52,9.52,0,0,1,0,13H332.08a.75.75,0,0,0-.76.75h0A.76.76,0,0,0,332.08,385Z" style="fill:#4E944F"></path><g style="opacity:0.30000000000000004"><path d="M332.08,385h58.34l.06-.07a11.28,11.28,0,0,0,3.38-7.55,10.9,10.9,0,0,0-3.22-8.18l-.22-.23H332.08a.76.76,0,0,0-.76.76h0a.75.75,0,0,0,.76.75h57.71a9.52,9.52,0,0,1,0,13H332.08a.75.75,0,0,0-.76.75h0A.76.76,0,0,0,332.08,385Z" style="fill:#fff"></path></g><path d="M387.4,378.9h-3.3a.57.57,0,0,0-.57.56h0a.57.57,0,0,0,.57.57h3.3a.56.56,0,0,0,.56-.57h0A.56.56,0,0,0,387.4,378.9Z" style="fill:#fff"></path><path d="M379.76,378.9H349.12a.56.56,0,0,0-.57.56h0a.56.56,0,0,0,.57.57h30.64a.57.57,0,0,0,.57-.57h0A.57.57,0,0,0,379.76,378.9Z" style="fill:#fff"></path><path d="M345,378.9h-6.79a.57.57,0,0,0-.57.56h0a.57.57,0,0,0,.57.57H345a.56.56,0,0,0,.56-.57h0A.56.56,0,0,0,345,378.9Z" style="fill:#fff"></path><path d="M387.4,374.12h-29a.56.56,0,0,0-.57.57h0a.56.56,0,0,0,.57.56h29a.56.56,0,0,0,.56-.56h0A.56.56,0,0,0,387.4,374.12Z" style="fill:#fff"></path><path d="M354.11,374.12H338.18a.57.57,0,0,0-.57.57h0a.57.57,0,0,0,.57.56h15.93a.56.56,0,0,0,.57-.56h0A.56.56,0,0,0,354.11,374.12Z" style="fill:#fff"></path></g><g id="freepik--Character--inject-44"><path d="M255.18,289.14l14.07,7.1c4.73,2.35,9.47,4.68,14.21,6.9s9.48,4.33,14.16,6.28c2.35,1,4.68,1.86,7,2.67s4.52,1.53,6.55,2c1,.26,1.95.45,2.74.57.4.06,0,0-.2.06a.88.88,0,0,0-.29.07c-.07,0,0,0,0,.05a1.49,1.49,0,0,0,.25,0,11.73,11.73,0,0,0,2.09-.64,28.36,28.36,0,0,0,2.8-1.31c2-1,4-2.31,6.13-3.64s4.19-2.79,6.28-4.31c8.41-6,16.79-12.82,25.14-19.4l9.27,8.57c-3.26,4.67-6.68,9-10.3,13.27s-7.41,8.41-11.47,12.45A104.55,104.55,0,0,1,330,331.39a50.09,50.09,0,0,1-4.28,2.69,31.85,31.85,0,0,1-5.43,2.44c-.51.19-1.14.36-1.71.52s-1.25.3-2,.41a19.23,19.23,0,0,1-2.31.25c-.84,0-2,0-2.24,0-1.91-.11-3.65-.32-5.31-.58a84.53,84.53,0,0,1-9.2-2q-4.33-1.23-8.43-2.62c-5.49-1.85-10.74-4-15.93-6.14s-10.25-4.52-15.25-7c-2.5-1.22-5-2.45-7.46-3.75s-4.87-2.59-7.43-4Z" style="fill:#e4897b"></path><polygon points="378.75 258.5 381.32 257.45 381.68 256.7 378.75 258.5" style="opacity:0.2"></polygon><path d="M384.74,255.68l-8.26,4.54-7.3,4.1,14.33,11.86s4-7,4.61-9.83C388.41,264.93,384.74,255.68,384.74,255.68Z" style="fill:#e4897b"></path><path d="M367.32,263a58,58,0,0,1,3.31-5.93c.7-.69,11.69-.36,11.69-.36L380.54,258l-4.44,4-4.48,4.05Z" style="fill:#e4897b"></path><path d="M355.9,286.15,367.32,263l16.56,11.78S380,293.39,365,294.18Z" style="fill:#e4897b"></path><rect x="338.62" y="266.44" width="55.05" height="2.7" transform="matrix(0.85, -0.52, 0.52, 0.85, -85.95, 230.58)" style="fill:#263238"></rect><polygon points="390.33 254.57 394.96 250.15 388.92 252.27 390.33 254.57" style="fill:#263238"></polygon><polygon points="390.33 254.57 393.54 251.51 394.96 250.15 388.92 252.27 390.33 254.57" style="fill:#fff;opacity:0.30000000000000004"></polygon><polygon points="393.63 251.43 394.55 250.54 394.96 250.15 393.22 250.76 393.63 251.43" style="fill:#263238"></polygon><polygon points="365.54 266.58 363.31 271.11 361.89 271.98 363.87 267.61 365.54 266.58" style="opacity:0.2"></polygon><polygon points="373.68 261.6 372.73 265.37 371.62 266.05 366.22 267.84 366.88 265.76 373.68 261.6" style="opacity:0.2"></polygon><path d="M371.62,266.05l-4.86,1.72-3.61,5,4,11.65c4.81-4.13,4.62-7.74,1.75-11.07l-1.7-2c2.63-1.08,5.09-2.24,6.25-4l5.52-5.19c4-1.78,6.3-3.39,6.63-4.26l-.06-.33-6.9,4.22Z" style="opacity:0.2"></path><path d="M355.9,286.15s-.78-7.52.35-11,7.12-8.55,8.12-9.66,7.7-2.17,7.7-2.17c-.34,1.57-1,2.87-2.53,3.36l-2.78,1.13-3.61,5s6,3.59,6.08,6.41-7.07,12.53-7.07,12.53Z" style="fill:#e4897b"></path><path d="M204.63,285.35c3.64,33.8,58.48,44.42,58.48,44.42l11.28-35.43s-17.95-14-36.3-25.34C218.87,257.12,202.71,267.55,204.63,285.35Z" style="fill:#4E944F"></path><path d="M257.81,328.51c-6.74-6.13-11.41-15.18-14.62-26.27l-3.76,19.92A130.9,130.9,0,0,0,257.81,328.51Z" style="opacity:0.2"></path><path d="M235.43,266.84s20.47,52.76.67,150.89l-93.38-.23c-.61-14.33,5.88-81.43-7.78-149,0,0,3.83-4.68,34-6.67,11.91-.79,29.2-.88,39.69.1A174.63,174.63,0,0,1,235.43,266.84Z" style="fill:#4E944F"></path><path d="M244.52,348.6c-.12,3.57-.3,7.24-.55,11-.2,3.07-.43,6.22-.71,9.44q-.52,5.76-1.25,11.84c-.38,3.31-.82,6.68-1.3,10.12q-.89,6.23-2,12.74-1.15,6.81-2.6,14l-93.38-.22c-.13-3.12.07-8.74.33-16.31.11-3,.22-6.38.32-10,.08-2.63.15-5.43.2-8.34.07-3.24.13-6.65.15-10.22q0-4.15,0-8.58c0-3.41-.06-6.93-.13-10.54,0-2.68-.13-5.4-.22-8.17-.32-9.85-.92-20.28-1.89-31.07a428.56,428.56,0,0,0-6.55-45.78s3.83-4.68,34-6.67c11.92-.79,29.2-.89,39.69.1a176,176,0,0,1,26.84,4.91S246.38,295.05,244.52,348.6Z" style="fill:#fafafa;opacity:0.6000000000000001"></path><path d="M153.12,310s-.83,22.28-9.74,35.37c-.32-9.85-.92-20.28-1.89-31.07C145.13,311.51,149.1,309.86,153.12,310Z" style="opacity:0.2"></path><path d="M167.69,220.64c3.69,12.49,8.36,35.55.26,44.87,12.67,4,21.78,6.7,33,15,2.94-8.15,6.53-18.72,6.53-18.72-14.5-2.06-15.12-12.61-13.57-22.72Z" style="fill:#e4897b"></path><path d="M178.38,228.17l15.5,10.91a41.22,41.22,0,0,0-.56,7.12c-5.49-.27-13.49-5.52-14.59-11.14A18.87,18.87,0,0,1,178.38,228.17Z" style="opacity:0.2"></path><polygon points="157.09 262.78 166.04 254.37 190.01 262.6 200.49 278.71 204.41 262.38 209.82 257.49 219.31 263.3 217.85 273.65 210.98 270.29 202.7 283.86 184.16 272.98 179 277.94 157.09 262.78" style="fill:#4E944F"></polygon><polygon points="202.7 283.86 207.53 266.9 217.85 273.65 210.98 270.29 202.7 283.86" style="opacity:0.2"></polygon><polygon points="202.7 283.86 186.36 267.86 179 277.94 184.16 272.98 202.7 283.86" style="opacity:0.2"></polygon><path d="M173.65,304.37l10,12.16c3.4,4.05,6.8,8.08,10.25,12s6.95,7.78,10.45,11.45q2.64,2.76,5.31,5.23c1.77,1.65,3.52,3.23,5.18,4.5.82.64,1.61,1.19,2.28,1.62.35.22,0,0-.21,0a.74.74,0,0,0-.29-.06c-.08,0,0,0,0,.05s.1.06.24.08a11.73,11.73,0,0,0,2.17.24,29.81,29.81,0,0,0,3.09-.06c2.23-.15,4.63-.51,7.08-.89s5-.87,7.48-1.42c10.11-2.12,20.82-4,31.11-6.71l4.76,10.61c-4.87,3-9.73,5.54-14.76,8s-10.17,4.73-15.51,6.79a103.9,103.9,0,0,1-17.11,5.13c-1.58.3-3.23.56-5,.74a32.43,32.43,0,0,1-6,.06c-.54,0-1.19-.14-1.78-.22s-1.26-.22-2-.42a19.84,19.84,0,0,1-2.21-.7,21.4,21.4,0,0,1-2-.94,51.59,51.59,0,0,1-4.63-2.66,83,83,0,0,1-7.6-5.56q-3.5-2.86-6.67-5.79c-4.29-3.89-8.26-7.94-12.13-12s-7.57-8.26-11.17-12.51c-1.8-2.12-3.59-4.25-5.32-6.43s-3.43-4.33-5.19-6.67Z" style="fill:#e4897b"></path><path d="M128.14,279.39c-10.23,32.42,35.73,64.17,35.73,64.17l24.56-27.93s-10.82-20-23.08-37.77C152.51,259.25,133.53,262.32,128.14,279.39Z" style="fill:#4E944F"></path><path d="M266.4,343s4.63-7.17,6.56-8.3,10.23-6.38,10.23-6.38L291.9,334l-1.64,1.75-7-.32-5.1,1.83-1.73,8.33-7.38,8.73Z" style="fill:#e4897b"></path><polygon points="286.54 332.12 285.88 331.9 283.48 332.88 284.93 332.98 286.54 332.12" style="opacity:0.2"></polygon><path d="M299.14,298.31l2.76-3.9c12.73,4.34,31.67,7.89,32.94,12.26-.88-3.76,9.59-5.1,15.9-7.57l2.1.81-17.42,23.68Z" style="fill:#4E944F"></path><path d="M299.14,298.31l2.76-3.9c12.73,4.34,31.67,7.89,32.94,12.26-.88-3.76,9.59-5.1,15.9-7.57l2.1.81-17.42,23.68Z" style="fill:#fff;opacity:0.6000000000000001"></path><polygon points="296.07 294.28 270.42 361.31 305.76 377.61 312.7 377.1 328.19 366.43 354.13 298.62 338.96 308.49 332.34 308.16 296.07 294.28" style="fill:#263238"></polygon><polygon points="296.07 294.28 270.42 361.31 305.76 377.61 332.34 308.16 296.07 294.28" style="fill:#fff;opacity:0.30000000000000004"></polygon><polygon points="338.96 308.49 312.7 377.1 328.19 366.43 354.13 298.62 338.96 308.49" style="fill:#fff;opacity:0.30000000000000004"></polygon><polygon points="305.76 377.61 312.7 377.1 338.96 308.49 332.34 308.16 305.76 377.61" style="fill:#fff;opacity:0.1"></polygon><path d="M304.66,338.12v0c0-.05,0-.16-.24-.39-1-1-9.48-9.36-10.16-9.36S266.4,343,266.4,343l2.65,11.39c12.24,7.78,25.62-4.92,25.62-4.92h0l3.5-2.85s2.87,1.64,3.73,1.56C302.37,348.1,305.29,339.58,304.66,338.12ZM290,336h0m.3.87,1.08,3.1,2.34,6.75Z" style="fill:#e4897b"></path><path d="M214,164s10.15,26.23-2,39.86S188.71,167,188.71,167Z" style="fill:#263238"></path><path d="M214,164s10.15,26.23-2,39.86S188.71,167,188.71,167Z" style="fill:#fff;opacity:0"></path><path d="M175,234.71c9.22,8.5,21.21,8.6,30.41,3.27a28.08,28.08,0,0,0,12.83-16.23,26.55,26.55,0,0,0,.73-2.89c3.41-18.17-.78-47.68-20.73-54.67a27.37,27.37,0,0,0-36.33,29.18C164,213.24,164.36,225,175,234.71Z" style="fill:#e4897b"></path><path d="M192.45,197.46c0,1.61,1,2.89,2.07,2.84s1.86-1.43,1.79-3.05-1-2.89-2.07-2.84S192.38,195.81,192.45,197.46Z" style="fill:#263238"></path><path d="M210.83,196.55c0,1.62,1,2.9,2.07,2.84s1.85-1.42,1.78-3-1-2.9-2.07-2.84S210.76,195,210.83,196.55Z" style="fill:#263238"></path><path d="M205,197.64a57.78,57.78,0,0,0,8.45,13.52,9.44,9.44,0,0,1-7.74,1.85Z" style="fill:#de5753"></path><path d="M186.46,191.79a1,1,0,0,0,.91-.42,7.68,7.68,0,0,1,5.95-3.5,1,1,0,0,0,0-1.9h0a9.5,9.5,0,0,0-7.56,4.31,1,1,0,0,0,.21,1.33h0A1.33,1.33,0,0,0,186.46,191.79Z" style="fill:#263238"></path><path d="M218.41,189.83a1,1,0,0,0,.57,0,1,1,0,0,0,.39-1.29h0a9.48,9.48,0,0,0-7.13-5,1,1,0,0,0-1,.88h0a1,1,0,0,0,.87,1h0a7.67,7.67,0,0,1,5.59,4.07A1,1,0,0,0,218.41,189.83Z" style="fill:#263238"></path><path d="M175.3,167.74l1.92,8.67a6.56,6.56,0,0,0-2.48,8.55c3.54,7.1.47,18.94-4.74,24.06,0,0-.49-3.18-3.11-2.16s-.26,17.58,5.77,25c0,0-8.65-6.41-14.84-23.44-5.73-15.75-7.55-29.16-4.84-35.73Z" style="fill:#263238"></path><path d="M175.3,167.74l1.92,8.67a6.56,6.56,0,0,0-2.48,8.55c3.54,7.1.47,18.94-4.74,24.06,0,0-.49-3.18-3.11-2.16s-.26,17.58,5.77,25c0,0-8.65-6.41-14.84-23.44-5.73-15.75-7.55-29.16-4.84-35.73Z" style="fill:#fff;opacity:0"></path><path d="M154,210.16a19,19,0,0,0,11.36,9.07c6.41,1.81,9.64-3.93,7.88-10-1.61-5.38-6.87-13-13.33-12.06S151,204.72,154,210.16Z" style="fill:#e4897b"></path><path d="M177.22,176.41s34.51,5.5,40.18-10.13-17.75-24.7-21.45-22.82,1.1,5.51,1.1,5.51-22.11-5.9-25.79-2.5,4.91,4.37,4.91,4.37-36.25,6-24.39,28.08A36.36,36.36,0,0,1,177.22,176.41Z" style="fill:#263238"></path><path d="M205.1,218.64a62.45,62.45,0,0,0-3.41,8.37c-.52-.07-1.05-.15-1.57-.25-7.12-1.17-10-4.07-11.11-6.93a9.24,9.24,0,0,1-.43-4.38,8.94,8.94,0,0,1,.61-2.45c3.41,2.88,10,4.49,13.49,5.2C204.16,218.52,205.1,218.64,205.1,218.64Z" style="fill:#263238"></path><path d="M202.68,218.2l-1.07,2.44c-6.7-1.12-11.27-2.81-13-5.19a8.94,8.94,0,0,1,.61-2.45C192.6,215.88,199.15,217.49,202.68,218.2Z" style="fill:#fff"></path><path d="M200.12,226.76c-7.12-1.17-10-4.07-11.11-6.93a23.24,23.24,0,0,1,7.65,2.88A8.73,8.73,0,0,1,200.12,226.76Z" style="fill:#dd5753"></path><path d="M194.72,207.4a8.44,8.44,0,0,1-2.25.13,8.12,8.12,0,1,1,2.25-.13Zm-3.13-15.57a7.72,7.72,0,0,0-3.48,1.7,7.69,7.69,0,1,0,5.6-1.82A7.5,7.5,0,0,0,191.59,191.83Z" style="fill:#263238"></path><path d="M215.7,205.85a7.89,7.89,0,0,1-2.23.13,8.18,8.18,0,0,1,1.27-16.32,8.2,8.2,0,0,1,7.53,8.8h0A8.19,8.19,0,0,1,215.7,205.85Zm-3.11-15.57a7.73,7.73,0,1,0,2.12-.12A8.32,8.32,0,0,0,212.59,190.28Zm9.43,8.16Z" style="fill:#263238"></path><path d="M206.22,198.26a.26.26,0,0,1-.26-.1,2.15,2.15,0,0,0-1.55-1.06c-1.55-.18-3.25,1.38-3.27,1.39a.25.25,0,0,1-.35,0,.24.24,0,0,1,0-.35c.08-.08,1.89-1.74,3.67-1.52a2.62,2.62,0,0,1,1.91,1.27.26.26,0,0,1-.07.35A.16.16,0,0,1,206.22,198.26Z" style="fill:#263238"></path><path d="M185.25,199h-.06l-17.48-.16a.25.25,0,1,1,0-.5l17.48.16a.25.25,0,0,1,.25.25A.27.27,0,0,1,185.25,199Z" style="fill:#263238"></path><rect x="80.03" y="401.93" width="338.98" height="15.8" style="fill:#4E944F"></rect><rect x="80.03" y="401.93" width="338.98" height="15.8" style="fill:#fafafa;opacity:0.2"></rect><path d="M424.07,401.93H75.93a4,4,0,0,0-4,3.95h0a4,4,0,0,0,4,3.95H424.07a4,4,0,0,0,3.95-3.95h0A4,4,0,0,0,424.07,401.93Z" style="fill:#4E944F"></path><path d="M424.07,401.93H75.93a4,4,0,0,0-4,3.95h0a4,4,0,0,0,4,3.95H424.07a4,4,0,0,0,3.95-3.95h0A4,4,0,0,0,424.07,401.93Z" style="fill:#fafafa;opacity:0.4"></path></g><g id="freepik--Sheets--inject-44"><polygon points="84.32 401.49 84.32 374.01 185.03 374.01 185.03 402.07 84.32 401.49" style="fill:#4E944F"></polygon><polygon points="84.32 401.49 84.32 374.01 185.03 374.01 185.03 402.07 84.32 401.49" style="fill:#fff;opacity:0.7000000000000001"></polygon><rect x="135.34" y="374.01" width="49.69" height="28.06" style="opacity:0.2"></rect><polygon points="84.32 377.95 79.86 379.32 128.53 379.32 84.32 377.95" style="fill:#4E944F"></polygon><polygon points="84.32 388.04 135.34 389.34 178.5 389.34 136.28 391.68 84.32 388.04" style="fill:#4E944F"></polygon><polygon points="128.53 396.53 84.32 396.53 79.86 397.85 128.53 396.53" style="fill:#4E944F"></polygon><polygon points="139.96 378.63 185.03 378.16 187.48 379.32 139.96 378.63" style="fill:#4E944F"></polygon><polygon points="147.8 395.23 185.03 395.23 187.48 397.85 147.8 395.23" style="fill:#4E944F"></polygon><polygon points="84.32 377.95 79.86 379.32 128.53 379.32 84.32 377.95" style="fill:#fff;opacity:0.5"></polygon><polygon points="84.32 388.04 135.34 389.34 178.5 389.34 136.28 391.68 84.32 388.04" style="fill:#fff;opacity:0.7000000000000001"></polygon><polygon points="128.53 396.53 84.32 396.53 79.86 397.85 128.53 396.53" style="fill:#fff;opacity:0.5"></polygon><polygon points="139.96 378.63 185.03 378.16 187.48 379.32 139.96 378.63" style="fill:#fff;opacity:0.7000000000000001"></polygon><polyline points="187.48 397.85 147.8 395.23 185.03 395.23" style="fill:#fff;opacity:0.7000000000000001"></polyline></g></svg>