<svg xmlns="http://www.w3.org/2000/svg" viewBox="0 0 500 500"><g id="freepik--background-complete--inject-114"><polygon points="401.63 65.15 406.55 59.88 416.67 68.28 435.32 49.06 440.23 54 416.28 78.13 401.63 65.15" style="fill:#e0e0e0"></polygon><path d="M461.37,63.9s0-.22-.05-.65-.07-1.07-.13-1.89c0-.42-.05-.88-.08-1.39s-.16-1.07-.25-1.67-.2-1.25-.31-1.94a20.5,20.5,0,0,0-.52-2.17,37.8,37.8,0,0,0-4.42-10.58,39.73,39.73,0,0,0-10.1-11.27l-1.72-1.27c-.6-.4-1.23-.76-1.86-1.15s-1.25-.81-1.94-1.12l-2.06-1-1.05-.49-1.1-.4-2.23-.82c-.76-.25-1.55-.41-2.34-.62a19,19,0,0,0-2.4-.54,35.72,35.72,0,0,0-5-.58c-.86,0-1.72-.12-2.59-.1l-2.62.13c-.44,0-.89,0-1.33.09l-1.32.2c-.88.15-1.78.25-2.67.44a43.52,43.52,0,0,0-10.45,3.82c-.84.45-1.64,1-2.47,1.47a14,14,0,0,0-1.22.78l-1.17.87a46.16,46.16,0,0,0-4.5,3.82,45.34,45.34,0,0,0-3.88,4.6l-.91,1.22-.8,1.3-.8,1.31-.4.66-.33.69L385,48.46l-1.08,2.93a42.49,42.49,0,0,0-2,12.5,42.55,42.55,0,0,0,2,12.51L385,79.34c.45.93.9,1.86,1.34,2.79l.34.69.4.66.8,1.32.8,1.3.91,1.22a45.22,45.22,0,0,0,3.88,4.59,44.92,44.92,0,0,0,4.5,3.83l1.16.87c.39.29.82.52,1.23.77.83.5,1.63,1,2.47,1.48a42,42,0,0,0,5.17,2.27,40.69,40.69,0,0,0,5.28,1.55c.89.19,1.79.29,2.67.44l1.32.2c.45.06.89.06,1.33.09l2.62.13c.87,0,1.73-.07,2.59-.1a35.72,35.72,0,0,0,5-.58,19.54,19.54,0,0,0,2.41-.54c.78-.21,1.57-.38,2.33-.63l2.24-.81,1.1-.4,1-.5L440,99c.69-.31,1.3-.75,1.94-1.11s1.26-.75,1.87-1.15l1.71-1.28a39.42,39.42,0,0,0,10.1-11.26A37.8,37.8,0,0,0,460,73.61a21.11,21.11,0,0,0,.52-2.17c.11-.69.21-1.34.31-1.94s.2-1.16.25-1.67.06-1,.08-1.39c.06-.82.1-1.45.13-1.9s.05-.64.05-.64,0,.22,0,.65,0,1.07-.07,1.89l-.06,1.4c0,.52-.15,1.07-.23,1.68s-.18,1.26-.28,2-.33,1.42-.5,2.19a37.92,37.92,0,0,1-4.37,10.68,39.76,39.76,0,0,1-10.12,11.41L444,97c-.61.41-1.25.77-1.88,1.17s-1.26.82-1.95,1.13l-2.08,1-1.06.5c-.36.14-.73.28-1.11.41l-2.25.83c-.77.26-1.57.42-2.36.64a19.5,19.5,0,0,1-2.43.56,38,38,0,0,1-5.06.6c-.87,0-1.74.12-2.62.1l-2.65-.13c-.45,0-.9,0-1.34-.08l-1.34-.2c-.9-.15-1.8-.25-2.7-.44a40.75,40.75,0,0,1-5.36-1.56,41.48,41.48,0,0,1-5.23-2.29c-.85-.46-1.67-1-2.5-1.49-.42-.26-.85-.48-1.25-.78l-1.18-.88a46,46,0,0,1-4.56-3.87,44.07,44.07,0,0,1-3.93-4.65l-.93-1.23-.81-1.32-.81-1.33-.4-.67-.34-.7c-.46-.94-.91-1.89-1.37-2.83s-.72-2-1.09-3a42.93,42.93,0,0,1-2.07-12.67,42.92,42.92,0,0,1,2.07-12.66l1.09-3c.46-.95.92-1.89,1.37-2.83l.34-.71.41-.66.81-1.33.8-1.32.93-1.24a43.87,43.87,0,0,1,3.94-4.64,44.78,44.78,0,0,1,4.55-3.87l1.19-.88c.39-.3.83-.52,1.24-.78.84-.5,1.65-1,2.5-1.49a40.09,40.09,0,0,1,5.23-2.29,40.75,40.75,0,0,1,5.36-1.56c.9-.19,1.8-.29,2.7-.44l1.33-.2c.45-.06.9-.05,1.35-.08l2.65-.14c.88,0,1.75.08,2.61.11a38,38,0,0,1,5.07.6,19.5,19.5,0,0,1,2.43.56c.79.22,1.59.38,2.36.64l2.25.83,1.11.4,1.06.51,2.08,1c.69.32,1.3.77,1.95,1.14s1.27.76,1.88,1.16l1.72,1.3a39.67,39.67,0,0,1,10.13,11.41,37.8,37.8,0,0,1,4.37,10.68c.17.77.42,1.48.5,2.19s.19,1.34.28,2,.18,1.16.23,1.67,0,1,.06,1.4c0,.83.05,1.46.07,1.9S461.37,63.9,461.37,63.9Z" style="fill:#e0e0e0"></path><path d="M387.74,103.78c-.05,0-.05-.41-.25-1.1a4.58,4.58,0,0,0-1.69-2.42,4.4,4.4,0,1,0,0,7,4.59,4.59,0,0,0,1.69-2.42c.2-.7.2-1.11.25-1.11a.78.78,0,0,1,0,.3,3.3,3.3,0,0,1-.08.86A4.6,4.6,0,0,1,386,107.6a4.79,4.79,0,0,1-4.56.75,4.85,4.85,0,0,1,0-9.13A4.79,4.79,0,0,1,386,100a4.62,4.62,0,0,1,1.67,2.67,3.26,3.26,0,0,1,.08.85A.78.78,0,0,1,387.74,103.78Z" style="fill:#e0e0e0"></path><rect x="9.94" y="283.01" width="28.51" height="28.51" style="fill:#f5f5f5"></rect><rect x="9.94" y="314.55" width="28.51" height="28.51" style="fill:#f5f5f5"></rect><rect x="9.94" y="346.08" width="28.51" height="28.51" style="fill:#f5f5f5"></rect><rect x="42.19" y="283.01" width="28.51" height="28.51" style="fill:#f5f5f5"></rect><rect x="42.19" y="314.55" width="28.51" height="28.51" style="fill:#f5f5f5"></rect><rect x="42.19" y="346.08" width="28.51" height="28.51" style="fill:#f5f5f5"></rect><rect x="74.45" y="283.01" width="28.51" height="28.51" style="fill:#f5f5f5"></rect><rect x="74.45" y="314.55" width="28.51" height="28.51" style="fill:#f5f5f5"></rect><rect x="74.45" y="346.08" width="28.51" height="28.51" style="fill:#f5f5f5"></rect><rect x="106.71" y="283.01" width="28.51" height="28.51" style="fill:#f5f5f5"></rect><rect x="106.71" y="314.55" width="28.51" height="28.51" style="fill:#f5f5f5"></rect><rect x="106.71" y="346.08" width="28.51" height="28.51" style="fill:#f5f5f5"></rect><rect x="138.97" y="283.01" width="28.51" height="28.51" style="fill:#f5f5f5"></rect><rect x="138.97" y="314.55" width="28.51" height="28.51" style="fill:#f5f5f5"></rect><rect x="138.97" y="346.08" width="28.51" height="28.51" style="fill:#f5f5f5"></rect><rect x="171.23" y="283.01" width="28.51" height="28.51" style="fill:#f5f5f5"></rect><rect x="171.23" y="314.55" width="28.51" height="28.51" style="fill:#f5f5f5"></rect><rect x="171.23" y="346.08" width="28.51" height="28.51" style="fill:#f5f5f5"></rect><rect x="203.48" y="283.01" width="28.51" height="28.51" style="fill:#f5f5f5"></rect><rect x="203.48" y="314.55" width="28.51" height="28.51" style="fill:#f5f5f5"></rect><rect x="203.48" y="346.08" width="28.51" height="28.51" style="fill:#f5f5f5"></rect><rect x="235.74" y="283.01" width="28.51" height="28.51" style="fill:#f5f5f5"></rect><rect x="235.74" y="314.55" width="28.51" height="28.51" style="fill:#f5f5f5"></rect><rect x="235.74" y="346.08" width="28.51" height="28.51" style="fill:#f5f5f5"></rect><rect x="268" y="283.01" width="28.51" height="28.51" style="fill:#f5f5f5"></rect><rect x="268" y="314.55" width="28.51" height="28.51" style="fill:#f5f5f5"></rect><rect x="268" y="346.08" width="28.51" height="28.51" style="fill:#f5f5f5"></rect><rect x="300.26" y="283.01" width="28.51" height="28.51" style="fill:#f5f5f5"></rect><rect x="300.26" y="314.55" width="28.51" height="28.51" style="fill:#f5f5f5"></rect><rect x="300.26" y="346.08" width="28.51" height="28.51" style="fill:#f5f5f5"></rect><rect x="332.52" y="283.01" width="28.51" height="28.51" style="fill:#f5f5f5"></rect><rect x="332.52" y="314.55" width="28.51" height="28.51" style="fill:#f5f5f5"></rect><rect x="332.52" y="346.08" width="28.51" height="28.51" style="fill:#f5f5f5"></rect><rect x="364.78" y="283.01" width="28.51" height="28.51" style="fill:#f5f5f5"></rect><rect x="364.78" y="314.55" width="28.51" height="28.51" style="fill:#f5f5f5"></rect><rect x="364.78" y="346.08" width="28.51" height="28.51" style="fill:#f5f5f5"></rect><rect x="397.03" y="283.01" width="28.51" height="28.51" style="fill:#f5f5f5"></rect><rect x="397.03" y="314.55" width="28.51" height="28.51" style="fill:#f5f5f5"></rect><rect x="397.03" y="346.08" width="28.51" height="28.51" style="fill:#f5f5f5"></rect><rect x="429.29" y="283.01" width="28.51" height="28.51" style="fill:#f5f5f5"></rect><rect x="429.29" y="314.55" width="28.51" height="28.51" style="fill:#f5f5f5"></rect><rect x="429.29" y="346.08" width="28.51" height="28.51" style="fill:#f5f5f5"></rect><rect x="461.55" y="283.01" width="28.51" height="28.51" style="fill:#f5f5f5"></rect><rect x="461.55" y="314.55" width="28.51" height="28.51" style="fill:#f5f5f5"></rect><rect x="461.55" y="346.08" width="28.51" height="28.51" style="fill:#f5f5f5"></rect><path d="M262.94,73.22s-9.89,1.58-15.26,19-10.84,45-10.65,46.38c.45,3.36,3.62,3.7,6.22,6.07,1.53,1.41,1.84,1,.79,6.67-.94,5.11-13.69,48.61-16.3,57.49a1.5,1.5,0,0,0,1.16,1.89l10.82,2a1.48,1.48,0,0,0,1.75-1.24l10.3-68.8s13.38-64.9,13.43-66S265.83,73.29,262.94,73.22Z" style="fill:#e0e0e0"></path><path d="M64.75,220.58c-2.74-2.05-3.73-9.43-7.46-14.26S29.46,187.8,27.65,186.79a2.47,2.47,0,0,0-1.63-.38.52.52,0,0,0-.21.92l21,15.68a.94.94,0,0,1,.31,1.16.91.91,0,0,1-1.34.31L24.57,189.42a1,1,0,0,0-1.24,1.67L44,206.91a.94.94,0,0,1,.3,1.16.9.9,0,0,1-1.34.31L21.77,193.24A1.07,1.07,0,0,0,20.49,195L41,210.81a.93.93,0,0,1,.3,1.16.9.9,0,0,1-1.34.31l-21.07-15.7a.56.56,0,0,0-.89.5,2.44,2.44,0,0,0,.84,1.48c1.48,1.45,21.49,20.62,27.18,22.82s13.06,1,15.8,3.07c2.51,1.86,54.32,43.11,63.33,50.29a1.66,1.66,0,0,0,2.36-.32l4.21-5.66a1.64,1.64,0,0,0-.38-2.35C121.85,259.88,67.25,222.44,64.75,220.58Z" style="fill:#e0e0e0"></path></g><g id="freepik--Table--inject-114"><path d="M467,472.39c0,.14-98,.26-218.94.26s-219-.12-219-.26,98-.26,219-.26S467,472.24,467,472.39Z" style="fill:#263238"></path></g><g id="freepik--Apple--inject-114"><path d="M123.48,423.61a14.67,14.67,0,0,0-12.37-16.75,1.51,1.51,0,0,0-1,.12,1.49,1.49,0,0,0-.39,1.41A17.72,17.72,0,0,0,123.46,424" style="fill:#455a64"></path><path d="M102.92,450.68c3.7,7.63,9,12.76,15.61,13,1.31.05,2.31-.82,3.57-.89a8.23,8.23,0,0,1,2.11.79,2.9,2.9,0,0,0,1.09.25c6.81-.36,12.61-5.15,16.52-13.16,5.44-11.21,3.76-23.26-3.75-26.92a17.79,17.79,0,0,0-3.07-1.2,12.54,12.54,0,0,0-3.74-.44,27.67,27.67,0,0,0-8.53,1.93l-.37.13c-6.1-2.69-11-2.71-15.71-.42C99.14,427.42,97.47,439.47,102.92,450.68Z" style="fill:#4E944F"></path><path d="M103.05,439.32a5.92,5.92,0,0,1-.62-2.25,12.13,12.13,0,0,1,3.81-10.31,5.86,5.86,0,0,1,1.94-1.31c0,.08-.7.56-1.69,1.57a13.29,13.29,0,0,0-3.7,10C102.89,438.44,103.14,439.29,103.05,439.32Z" style="fill:#fafafa"></path><path d="M104.43,444.65c-.14,0-.38-.5-.54-1.18s-.17-1.27,0-1.3.38.5.54,1.18S104.57,444.62,104.43,444.65Z" style="fill:#fafafa"></path><path d="M139,405.27c0,.09-1.41.63-3.53,1.9a28.35,28.35,0,0,0-3.52,2.5,31.51,31.51,0,0,0-3.71,3.76,30.89,30.89,0,0,0-3,4.38,28.38,28.38,0,0,0-1.76,3.95c-.82,2.32-1.06,3.85-1.16,3.83a3.8,3.8,0,0,1,.11-1.08,10.17,10.17,0,0,1,.25-1.25c.13-.48.24-1,.45-1.62a26,26,0,0,1,1.69-4.05,26.65,26.65,0,0,1,6.78-8.29,24.72,24.72,0,0,1,3.64-2.45,14.16,14.16,0,0,1,1.5-.76,9.92,9.92,0,0,1,1.17-.5A3.86,3.86,0,0,1,139,405.27Z" style="fill:#263238"></path><path d="M66.62,454.92v1.42l18.27,8.52s1.5,4.52,14.81,4.75,45.34.26,45.34.26,8.81.19,14.5-4.79L177,456.6l-.23-1.78Z" style="fill:#e0e0e0"></path><rect x="100.98" y="469.72" width="42.76" height="1.89" style="fill:#e0e0e0"></rect><path d="M159.84,465l-.19,0-.57,0-2.18.06-8,.15c-6.79.1-16.16.21-26.5.22s-19.73-.06-26.51-.23c-3.39-.08-6.13-.16-8-.26l-2.18-.1-.57,0-.19,0h.76l2.19.05c1.89.07,4.63.11,8,.17,6.78.11,16.15.16,26.51.14s19.71-.08,26.49-.13l8-.06h2.94Z" style="fill:#263238"></path><path d="M142.74,469.72c0,.08-9.49.15-21.18.15s-21.18-.07-21.18-.15,9.48-.14,21.18-.14S142.74,469.64,142.74,469.72Z" style="fill:#263238"></path><path d="M176.63,456.6c0,.08-24.66.14-55.07.14s-55.07-.06-55.07-.14,24.65-.14,55.07-.14S176.63,456.52,176.63,456.6Z" style="fill:#263238"></path></g><g id="freepik--Clock--inject-114"><path d="M211.92,148.58a68,68,0,1,1-66.84-69.13A68,68,0,0,1,211.92,148.58Z" style="fill:#4E944F"></path><g style="opacity:0.30000000000000004"><path d="M211.92,148.58a68,68,0,1,1-66.84-69.13A68,68,0,0,1,211.92,148.58Z"></path></g><circle cx="138.84" cy="145.26" r="68.47" transform="translate(-62.05 140.72) rotate(-45)" style="fill:#4E944F"></circle><circle cx="138.84" cy="145.26" r="61.16" transform="translate(-52.76 205.81) rotate(-63.83)" style="fill:#fff"></circle><path d="M200,146.29s0-.34,0-1,0-1.63-.09-2.91a61.13,61.13,0,0,0-23.29-45A60.89,60.89,0,0,0,151.1,85.57a61.75,61.75,0,0,0-23.88-.12A64.28,64.28,0,0,0,119,87.64a61,61,0,0,0-1.93,114.54,65.91,65.91,0,0,0,8.1,2.46,59.43,59.43,0,0,0,8.15,1.28,60.82,60.82,0,0,0,15.73-.59,61,61,0,0,0,25.86-11,61.25,61.25,0,0,0,22.85-33.2,62.36,62.36,0,0,0,1.94-11c.14-1.27.13-2.25.19-2.9s.06-1,.06-1,0,1.35-.15,3.9a59.49,59.49,0,0,1-1.85,11,61.11,61.11,0,0,1-22.82,33.45,61.2,61.2,0,0,1-26,11.07,60.77,60.77,0,0,1-15.84.63,61.87,61.87,0,0,1-8.21-1.28,64.77,64.77,0,0,1-8.17-2.47,61.42,61.42,0,0,1,1.94-115.45A67,67,0,0,1,127.13,85a61.25,61.25,0,0,1,49.68,12.1,61.83,61.83,0,0,1,15.24,17.73A60.17,60.17,0,0,1,200,142.39C200.06,145,200,146.29,200,146.29Z" style="fill:#263238"></path><path d="M110.56,227.11,113.84,208l10.73,3.9L116.41,229a3.08,3.08,0,0,1-3.49,1.69h0A3.1,3.1,0,0,1,110.56,227.11Z" style="fill:#4E944F"></path><path d="M204.75,201.13l-10.89-16-8.15,8,14.48,12.16a3.1,3.1,0,0,0,3.88.08h0A3.09,3.09,0,0,0,204.75,201.13Z" style="fill:#4E944F"></path><rect x="118.56" y="68.01" width="3.21" height="14.34" transform="translate(-17.16 40.06) rotate(-17.69)" style="fill:#4E944F"></rect><rect x="112.1" y="63" width="10.22" height="5.83" rx="2.13" transform="translate(-14.48 38.72) rotate(-17.68)" style="fill:#4E944F"></rect><path d="M137.59,131.09c-.73-2.23,1.65-6.76,1.48-10.94s-8.24-21.4-8.85-22.69a1.74,1.74,0,0,0-.77-.86A.35.35,0,0,0,129,97l5.57,17.13a.65.65,0,0,1-.29.77.62.62,0,0,1-.88-.36l-5.92-16.86a.71.71,0,0,0-1.35.45l5.26,17a.64.64,0,0,1-.29.77.61.61,0,0,1-.87-.36l-5.83-16.86a.74.74,0,0,0-1.4.46l5.22,17a.65.65,0,0,1-.29.77.62.62,0,0,1-.88-.36l-5.57-17.14a.38.38,0,0,0-.69-.07,1.66,1.66,0,0,0-.12,1.16c.26,1.39,3.85,20.06,6.17,23.55s6.9,5.75,7.63,8c.66,2,13.31,45.68,15.51,53.26a1.13,1.13,0,0,0,1.44.76l4.6-1.49a1.13,1.13,0,0,0,.72-1.47C154,175.73,138.25,133.12,137.59,131.09Z" style="fill:#e0e0e0"></path><path d="M175.73,102.83s-6.24-1.77-14.15,7-18.63,23.41-18.9,24.29c-.66,2.1,1.11,3.16,2,5.27.52,1.24.82,1.06-1.36,4.12-1.95,2.74-21.3,24.78-25.25,29.28a1,1,0,0,0,.17,1.42l5.79,4.14a1,1,0,0,0,1.37-.25l24.81-37.55s25.57-34.41,25.91-35.07S177.4,103.66,175.73,102.83Z" style="fill:#e0e0e0"></path><path d="M161.15,45.27a8.64,8.64,0,0,1,16.15,4.3Z" style="fill:#4E944F"></path><path d="M129.56,63S142,38.27,170.14,46.17s26.59,34.76,26.59,34.76Z" style="fill:#4E944F"></path><path d="M197.22,81.29c-1,3.57-16.89,2.4-35.57-2.62s-33.05-12-32.09-15.56,16.88-2.4,35.57,2.62S198.18,77.72,197.22,81.29Z" style="fill:#263238"></path><polygon points="159.86 64.4 156.24 80.01 165.21 81.86 169.23 66.89 159.86 64.4" style="fill:#4E944F"></polygon><g style="opacity:0.30000000000000004"><path d="M129.57,63.87s17.11,1.26,22.67,2.31,24.7,6,30.89,8.49,12.49,8,12.49,8l1.6-1.37s.63-1.85-3.13-4.09A128.86,128.86,0,0,0,152,62.73c-21.4-3.28-22.37-.59-22.61.76"></path></g><path d="M181.69,51.22c-.05.08-1.15-.73-3.05-1.79a40.93,40.93,0,0,0-7.8-3.33,33.64,33.64,0,0,0-8.34-1.5c-2.17-.09-3.52.12-3.53,0a3.55,3.55,0,0,1,.93-.21,9.62,9.62,0,0,1,1.12-.12,13.6,13.6,0,0,1,1.49-.06A29.63,29.63,0,0,1,171,45.6a35,35,0,0,1,7.84,3.51A21.36,21.36,0,0,1,181,50.59,3.69,3.69,0,0,1,181.69,51.22Z" style="fill:#263238"></path><g style="opacity:0.30000000000000004"><path d="M163.2,45.81a31.32,31.32,0,0,0-28,12.87l7.86.85C146.84,51.86,154.64,46.18,163.2,45.81Z" style="fill:#fff"></path></g><g style="opacity:0.30000000000000004"><path d="M171.67,42.92a10.62,10.62,0,0,0-3.74-.56,10.49,10.49,0,0,0-3.56,1.28c-.05,0,.23-.42.83-.84a5.84,5.84,0,0,1,5.49-.54C171.36,42.56,171.7,42.86,171.67,42.92Z" style="fill:#fff"></path></g><g style="opacity:0.30000000000000004"><path d="M77.57,168.88a3.42,3.42,0,0,1-.25-.57l-.63-1.67a26.51,26.51,0,0,1-.9-2.67c-.3-1.06-.72-2.25-1-3.61s-.68-2.83-.93-4.44-.5-3.34-.7-5.17a71.7,71.7,0,0,1,0-11.93,70.77,70.77,0,0,1,2.12-11.75c.51-1.76,1-3.44,1.58-5s1.14-2.94,1.69-4.22,1.13-2.38,1.61-3.37.95-1.82,1.35-2.48l.92-1.54a3.43,3.43,0,0,1,.34-.51,2.54,2.54,0,0,1-.25.57l-.83,1.57c-.37.68-.82,1.51-1.27,2.52s-1,2.1-1.53,3.39-1.12,2.67-1.62,4.21-1,3.19-1.53,5a67.82,67.82,0,0,0-2.06,23.51c.19,1.81.35,3.54.65,5.13s.56,3.09.86,4.43.64,2.55.92,3.61.56,2,.81,2.7l.54,1.69A2.34,2.34,0,0,1,77.57,168.88Z" style="fill:#fff"></path></g><path d="M171.31,85a2.87,2.87,0,0,1-.62-.25L169,83.88l-1.23-.6-1.51-.64-1.73-.73-2-.72a75.55,75.55,0,0,0-22.58-4.3,57.56,57.56,0,0,0-6,.06h0a47.44,47.44,0,0,0-10.39,1.49,73.41,73.41,0,0,0-8.06,2.42A53.28,53.28,0,0,0,110.26,83c-1.18.57-1.81.92-1.83.88a2.43,2.43,0,0,1,.44-.29c.29-.18.72-.45,1.31-.75a44,44,0,0,1,5.12-2.31A68.62,68.62,0,0,1,123.38,78q2.34-.6,5-1a35.89,35.89,0,0,1,5.51-.52h0a56.28,56.28,0,0,1,6.11-.07,72.41,72.41,0,0,1,22.68,4.47l2,.76,1.73.78,1.49.67c.46.23.86.46,1.23.65l1.67.91A4.49,4.49,0,0,1,171.31,85Z" style="fill:#263238"></path><path d="M120.52,68.32a6,6,0,0,1-2.24,1,5.76,5.76,0,0,1-2.39.47,5.89,5.89,0,0,1,2.24-1A5.76,5.76,0,0,1,120.52,68.32Z" style="fill:#263238"></path><path d="M55.18,84A8.65,8.65,0,0,1,66.5,71.72Z" style="fill:#4E944F"></path><path d="M56.23,120.25S40.06,97.76,60.16,76.48s43.13-7.38,43.13-7.38Z" style="fill:#4E944F"></path><path d="M103.58,69.11c2.72,2.51-5.67,16-18.73,30.13S59,122.8,56.29,120.29,62,104.29,75,90.16,100.87,66.6,103.58,69.11Z" style="fill:#263238"></path><polygon points="71.52 94.06 83.65 104.52 89.47 97.44 78.08 86.92 71.52 94.06" style="fill:#4E944F"></polygon><g style="opacity:0.30000000000000004"><path d="M57,120.63s9.07-14.57,12.58-19,16.79-19.08,21.88-23.4,12.68-7.56,12.68-7.56l-.19-1.1-.28-.42s-1.33-1.49-5.61,1.09c-3.74,2.25-18.82,12.61-31.66,30s-10.92,19.54-9.84,20.37"></path></g><path d="M70,68.6c0,.08-1.18.68-3,1.87a40.74,40.74,0,0,0-6.58,5.36,33.29,33.29,0,0,0-5.2,6.69c-1.09,1.88-1.54,3.16-1.63,3.13a3.74,3.74,0,0,1,.25-.92,8.87,8.87,0,0,1,.41-1,14.37,14.37,0,0,1,.64-1.34,29.32,29.32,0,0,1,5.16-6.87,34.74,34.74,0,0,1,6.75-5.31,19.52,19.52,0,0,1,2.31-1.22A3.57,3.57,0,0,1,70,68.6Z" style="fill:#263238"></path><path d="M94.87,92.28c0,.07-1.11,1-2.9,2.7a73,73,0,0,0-6.52,6.91,55.11,55.11,0,0,0-5.37,7.83c-1.2,2.12-1.8,3.51-1.88,3.47a4.53,4.53,0,0,1,.34-1,26.67,26.67,0,0,1,1.21-2.64,46.61,46.61,0,0,1,5.3-8,57.46,57.46,0,0,1,6.68-6.86c.92-.8,1.7-1.42,2.25-1.82A4,4,0,0,1,94.87,92.28Z" style="fill:#263238"></path><g style="opacity:0.30000000000000004"><path d="M57.51,81.27a31.35,31.35,0,0,0-1.63,30.8l4.41-6.57C55.26,98.57,53.86,89,57.51,81.27Z" style="fill:#fff"></path></g><g style="opacity:0.30000000000000004"><path d="M57.62,73.32a10.9,10.9,0,0,0-2.24,3.05,10.77,10.77,0,0,0-.52,3.75c-.06,0-.26-.39-.35-1.12a5.83,5.83,0,0,1,2.07-5.12C57.15,73.43,57.58,73.27,57.62,73.32Z" style="fill:#fff"></path></g><path d="M191.87,151.87c-1.43-.18-2.56-.54-2.53-.8s1.22-.36,2.65-.22,2.56.51,2.53.81S193.3,152.05,191.87,151.87Z" style="fill:#263238"></path><path d="M171.67,187.43c-.89-1.14-1.43-2.19-1.22-2.36s1.11.61,2,1.72,1.45,2.17,1.22,2.36S172.55,188.56,171.67,187.43Z" style="fill:#263238"></path><path d="M132.23,198.29c.18-1.43.54-2.56.81-2.53s.36,1.21.21,2.64-.51,2.56-.81,2.53S132.05,199.71,132.23,198.29Z" style="fill:#263238"></path><path d="M96.68,178.08c1.13-.88,2.19-1.43,2.35-1.22s-.6,1.11-1.72,2-2.17,1.45-2.36,1.22S95.54,179,96.68,178.08Z" style="fill:#263238"></path><path d="M85.82,138.65c1.43.18,2.56.54,2.53.8s-1.22.36-2.65.21-2.56-.51-2.53-.8S84.39,138.47,85.82,138.65Z" style="fill:#263238"></path><path d="M106,103.09c.89,1.14,1.43,2.19,1.22,2.36s-1.11-.61-2-1.72-1.45-2.18-1.22-2.36S105.14,102,106,103.09Z" style="fill:#263238"></path><path d="M145.46,92.23c-.18,1.43-.54,2.56-.81,2.53s-.36-1.21-.21-2.64.51-2.57.81-2.53S145.64,90.81,145.46,92.23Z" style="fill:#263238"></path><path d="M181,112.44c-1.13.88-2.19,1.42-2.35,1.22s.6-1.12,1.72-2,2.17-1.46,2.36-1.22S182.15,111.56,181,112.44Z" style="fill:#263238"></path><path d="M54.12,63.48a2,2,0,0,1-.3.4L52.88,65a22,22,0,0,0-1.43,1.72c-.53.7-1.19,1.46-1.78,2.38l-1,1.43c-.33.5-.63,1.05-1,1.6-.7,1.1-1.29,2.35-2,3.64a52.66,52.66,0,0,0-3.22,8.88A53.44,53.44,0,0,0,41.12,94c0,1.45-.11,2.83,0,4.13,0,.64,0,1.27.08,1.87s.12,1.17.17,1.72c.08,1.1.29,2.07.42,2.94a20.23,20.23,0,0,0,.44,2.2l.3,1.39a1.83,1.83,0,0,1,.07.5,1.64,1.64,0,0,1-.17-.47l-.4-1.37a17.9,17.9,0,0,1-.53-2.2,29.68,29.68,0,0,1-.49-3c-.07-.55-.14-1.13-.21-1.73s-.08-1.23-.12-1.89c-.1-1.3,0-2.7,0-4.17A49.77,49.77,0,0,1,42,84.49a51.4,51.4,0,0,1,3.3-9c.68-1.3,1.3-2.55,2-3.65.34-.55.65-1.1,1-1.6l1-1.42c.62-.92,1.3-1.67,1.85-2.35a19.81,19.81,0,0,1,1.51-1.68c.41-.4.74-.74,1-1A2.11,2.11,0,0,1,54.12,63.48Z" style="fill:#263238"></path><path d="M38.66,78.63c.14.07-.82,2.1-1.58,4.73s-1,4.86-1.2,4.85a12.92,12.92,0,0,1,.7-5A13.05,13.05,0,0,1,38.66,78.63Z" style="fill:#263238"></path><path d="M207.64,72.77a8.69,8.69,0,0,1-.38-1.55c-.1-.5-.22-1.11-.42-1.81s-.36-1.51-.65-2.38-.56-1.82-1-2.82-.82-2.06-1.3-3.16a51.39,51.39,0,0,0-3.84-6.83,52.7,52.7,0,0,0-4.91-6.09c-.86-.85-1.65-1.68-2.46-2.38s-1.56-1.36-2.27-1.93-1.38-1-2-1.49-1.1-.78-1.53-1.06a8.59,8.59,0,0,1-1.3-.92,10.63,10.63,0,0,1,1.4.75,17.86,17.86,0,0,1,1.59,1c.6.42,1.31.86,2,1.44s1.53,1.17,2.33,1.9,1.64,1.52,2.51,2.37a48.4,48.4,0,0,1,5,6.13,49.41,49.41,0,0,1,3.84,6.92c.47,1.12.94,2.18,1.27,3.21s.66,2,.9,2.87.43,1.7.59,2.41.26,1.34.33,1.85A10,10,0,0,1,207.64,72.77Z" style="fill:#263238"></path><path d="M208.27,62.25A29,29,0,0,0,207.09,58a30.29,30.29,0,0,0-2.27-3.81,7.55,7.55,0,0,1,2.75,3.61A7.56,7.56,0,0,1,208.27,62.25Z" style="fill:#263238"></path><path d="M102.18,212.14a2.22,2.22,0,0,1-.56-.17l-1.59-.58a24.58,24.58,0,0,1-2.46-1c-.95-.44-2-.9-3.19-1.55l-1.81-1c-.63-.34-1.25-.76-1.91-1.16-1.33-.79-2.66-1.77-4.08-2.77a62.27,62.27,0,0,1-15.36-16.46c-.9-1.49-1.79-2.88-2.48-4.27-.36-.68-.73-1.33-1-2s-.58-1.28-.86-1.88c-.57-1.18-.95-2.31-1.33-3.28a25.41,25.41,0,0,1-.86-2.53l-.48-1.63a3.46,3.46,0,0,1-.13-.57,2,2,0,0,1,.23.54l.57,1.59c.23.7.53,1.54.94,2.49s.81,2.07,1.4,3.24c.28.59.57,1.21.88,1.85s.69,1.28,1.05,2c.7,1.36,1.6,2.74,2.5,4.21A71.63,71.63,0,0,0,78.53,196a70.52,70.52,0,0,0,8.34,7.5c1.4,1,2.71,2,4,2.79.65.41,1.26.83,1.88,1.19l1.79,1c1.12.67,2.2,1.15,3.13,1.62s1.74.83,2.42,1.11l1.54.68A3.06,3.06,0,0,1,102.18,212.14Z" style="fill:#263238"></path><path d="M79.4,208.13a67.53,67.53,0,0,1-6.1-5.63,66.88,66.88,0,0,1-5.74-6,64.52,64.52,0,0,1,6.1,5.63A66.88,66.88,0,0,1,79.4,208.13Z" style="fill:#263238"></path><path d="M213,115.75a3,3,0,0,1,.3.57l.76,1.68c.34.73.73,1.63,1.11,2.7s.89,2.27,1.29,3.64l.68,2.15c.23.75.41,1.54.63,2.36.46,1.62.79,3.39,1.17,5.25a79.11,79.11,0,0,1,.64,24.57c-.29,1.87-.53,3.66-.9,5.3-.18.83-.31,1.63-.51,2.39s-.38,1.48-.56,2.18c-.33,1.39-.76,2.62-1.1,3.7s-.67,2-1,2.75l-.67,1.72a3.13,3.13,0,0,1-.27.58,2.68,2.68,0,0,1,.17-.62l.58-1.74c.27-.76.58-1.68.88-2.77s.72-2.32,1-3.72c.17-.69.35-1.42.53-2.17s.31-1.56.48-2.38c.35-1.64.57-3.42.84-5.28a88,88,0,0,0,.6-12.24,89.23,89.23,0,0,0-1.23-12.19c-.37-1.85-.68-3.61-1.12-5.23-.21-.81-.38-1.6-.6-2.35s-.43-1.46-.64-2.15c-.38-1.37-.85-2.58-1.21-3.65s-.72-2-1-2.72-.49-1.27-.67-1.71A2.58,2.58,0,0,1,213,115.75Z" style="fill:#263238"></path><path d="M225,132.86a4.07,4.07,0,0,1,.32,1.06c.17.68.38,1.69.59,2.93a59.33,59.33,0,0,1-.05,19.72c-.21,1.25-.42,2.25-.6,2.94a5.07,5.07,0,0,1-.32,1.05c-.09,0,.22-1.55.56-4a75.49,75.49,0,0,0,.69-9.81,74.56,74.56,0,0,0-.64-9.8C225.18,134.41,224.88,132.88,225,132.86Z" style="fill:#263238"></path><path d="M109.91,71.68s-.5-.29-1-1.05a5.59,5.59,0,0,1-.83-3.35,5.65,5.65,0,0,1,1.28-3.22c.57-.68,1.07-1,1.11-.9s-.35.42-.82,1.12a6,6,0,0,0-.41,6.18C109.62,71.21,110,71.62,109.91,71.68Z" style="fill:#263238"></path><path d="M124.74,69.71a14.64,14.64,0,0,0,.62-3.34,15.13,15.13,0,0,0-.65-3.35c.06,0,.34.27.62.86a5.76,5.76,0,0,1,.55,2.48,5.65,5.65,0,0,1-.53,2.49C125.07,69.45,124.79,69.75,124.74,69.71Z" style="fill:#263238"></path><path d="M91.94,74.45a7.16,7.16,0,0,1-1.08.91c-.71.55-1.73,1.37-3,2.4a119.92,119.92,0,0,0-9.23,8.58c-3.43,3.53-6.36,6.9-8.46,9.36l-2.47,2.92a7,7,0,0,1-1,1,7.68,7.68,0,0,1,.79-1.17c.54-.72,1.34-1.76,2.35-3,2-2.52,4.92-5.94,8.37-9.48a95.1,95.1,0,0,1,9.37-8.51c1.28-1,2.33-1.78,3.08-2.28A7.54,7.54,0,0,1,91.94,74.45Z" style="fill:#263238"></path><path d="M181.36,71.05a4.26,4.26,0,0,1-1-.29l-2.72-.93c-2.31-.8-5.49-1.87-9-2.94s-6.81-1.9-9.19-2.44-3.84-.83-3.83-.91a3.69,3.69,0,0,1,1.06.08c.68.08,1.65.24,2.85.47,2.4.45,5.69,1.24,9.25,2.3s6.75,2.21,9,3.09c1.14.44,2.05.82,2.68,1.09A4.81,4.81,0,0,1,181.36,71.05Z" style="fill:#263238"></path></g><g id="freepik--Text--inject-114"><path d="M108.53,129.28a6.14,6.14,0,0,1,4-3.48q2.88-.92,3.51,1.07a5.21,5.21,0,0,1,.15,2.65,6.11,6.11,0,0,1-1.1,2.4,14.76,14.76,0,0,1-4.25,3.58c.79,4.07,1,7.09.66,9.06q3.49.06,4.68,0a9.81,9.81,0,0,0,2.4-.44,1.73,1.73,0,0,0,1.34-1.53c.09-.75.2-1.15.34-1.19s.46,0,.57.38a3.85,3.85,0,0,1-.32,3.12,3.91,3.91,0,0,1-2.24,1.95,6.91,6.91,0,0,1-2.76.35l-1.66-.14-1.44-.19-1.51-.19a4.85,4.85,0,0,1-3.06,2.48,2.32,2.32,0,0,1-1.78-.15,2.17,2.17,0,0,1-1.17-1.32c-.42-1.3.12-2.19,1.6-2.66a11.8,11.8,0,0,1,2.81-.4,53.17,53.17,0,0,0-1-7.9c-.24.1-.58.22-1,.36s-.65.13-.7,0c-.13-.43.37-.89,1.52-1.39A11,11,0,0,1,108.53,129.28Zm.49,17.2a10.54,10.54,0,0,0-2.72-.07.43.43,0,0,0-.31.62,1.08,1.08,0,0,0,.69.69,1.82,1.82,0,0,0,1.22,0A2,2,0,0,0,109,146.48Zm4.69-14.78a3.85,3.85,0,0,0,.46-3.44c-.39-1.24-1-1.72-1.85-1.45q-2.77.89-1.7,7.67A9.15,9.15,0,0,0,113.71,131.7Z" style="fill:#263238"></path><path d="M120.64,141.8l-1-3.9q-1.17-3.66-.93-4.11a13,13,0,0,1,.89-1.4c.44-.63.79-1,1-1.07s.45-.09.54,0a1,1,0,0,1,.28.52,7.93,7.93,0,0,1,.3,3.18,35.42,35.42,0,0,0,1.13,5.33c.43,1.34.86,1.95,1.3,1.81s1-.82,1.41-2a17.91,17.91,0,0,0,.82-4.75,19.82,19.82,0,0,1-.68-3.85,9,9,0,0,1,.62-1.29,2.22,2.22,0,0,1,1-1.12c.33-.1.64.28.91,1.14a8,8,0,0,1,.24,1.4,5.24,5.24,0,0,1,0,1.57c-.05.72.46,2.73,1.51,6,.2.62.37.9.5.86.38-.15.76-.8,1.15-2a22.4,22.4,0,0,0,.87-4.29,7.24,7.24,0,0,1,.52-2.62c.15,0,.25,0,.31.21a8.54,8.54,0,0,1,0,3.36c-.58,4.4-1.48,6.8-2.72,7.2a3.34,3.34,0,0,1-2.19.09c-.21-.11-.45-.57-.71-1.39S127.25,139,127,138a15.42,15.42,0,0,1-1.06,4.24,3.41,3.41,0,0,1-2.06,2,2,2,0,0,1-2-.14A5.11,5.11,0,0,1,120.64,141.8Z" style="fill:#263238"></path><path d="M136.15,138.09l.38,1q.3,1-.24,1.14a6.34,6.34,0,0,1-1.65.28c-.55,0-.87-.12-.95-.38s-.31-1.18-.67-2.76-.67-2.76-.92-3.53l-.64-2a3.65,3.65,0,0,1-.3-2.1,14.61,14.61,0,0,1,.9-1.38c.45-.62.8-1,1.06-1s.44-.09.54,0a.94.94,0,0,1,.27.48,9.07,9.07,0,0,1,.4,3.64c.3,1.33.53,2.25.69,2.75,0-.16.28-1.09.7-2.78a23.61,23.61,0,0,1,1.21-3.82,2.62,2.62,0,0,1,1.31-1.51,2,2,0,0,1,1.44.07,1.56,1.56,0,0,1,.94,1,44.83,44.83,0,0,1,1.09,4.54c.41,2,.69,3.28.86,3.79s.31.75.45.71c.38-.15.76-.8,1.14-2A22.4,22.4,0,0,0,145,130c.2-1.7.38-2.57.53-2.62s.25,0,.31.2a9,9,0,0,1,0,3.36q-.87,6.62-2.72,7.2a3.32,3.32,0,0,1-2.2.1q-.31-.16-.63-1.17c-.22-.67-.5-1.79-.86-3.35s-.66-2.71-.9-3.46-.49-1.09-.75-1-.71,1.08-1.33,3a11.69,11.69,0,0,0-.82,3.56A14.73,14.73,0,0,0,136.15,138.09Z" style="fill:#263238"></path><path d="M150.24,126.48l-.28-1.83a1.11,1.11,0,0,0-.46-.61.76.76,0,0,0-.71-.11c-.85.27-1.38,1.13-1.59,2.59a8.78,8.78,0,0,0,.24,3.94,5.24,5.24,0,0,0,1.62,2.6,2.2,2.2,0,0,0,2.1.51,3.85,3.85,0,0,0,1.72-1.07,5.74,5.74,0,0,0,1.07-1.85,21.62,21.62,0,0,0,1.1-5.06c0-.47.1-.81.14-1s.13-.34.25-.38.22,0,.28.21a6.62,6.62,0,0,1,.07,3c-.19,1.21-.37,2.16-.54,2.83a15.13,15.13,0,0,1-.79,2.19,5.81,5.81,0,0,1-3.67,3.28,3.58,3.58,0,0,1-3.4-.44,5.14,5.14,0,0,1-1.95-2.64q-1.24-3.9-.2-6.47a5.59,5.59,0,0,1,3.64-3.41,2.66,2.66,0,0,1,1.91,0,1.8,1.8,0,0,1,1,1.08,3.5,3.5,0,0,1,.16,2.14,1.47,1.47,0,0,1-1,1C150.64,127.07,150.38,126.91,150.24,126.48Z" style="fill:#263238"></path><path d="M158.8,130.87l.38,1c.2.64.12,1-.25,1.13a5.48,5.48,0,0,1-1.64.28c-.55,0-.87-.11-.95-.37s-.31-1.18-.67-2.76-.68-2.76-.92-3.54l-.64-2q-2.79-8.76-.44-12.15a2.56,2.56,0,0,1,1.3-1c.23-.08.53.1.92.53a5,5,0,0,1,1,1.84,15.92,15.92,0,0,1,.76,5.83,17.89,17.89,0,0,1-.76,4.57c.16.58.43,1.48.81,2.68.05-.16.28-1.09.7-2.78a22.64,22.64,0,0,1,1.21-3.82c.4-.85.83-1.36,1.31-1.51a2,2,0,0,1,1.44.07,1.59,1.59,0,0,1,.94,1,43.83,43.83,0,0,1,1.09,4.53c.41,2,.69,3.29.85,3.8s.32.75.45.71c.39-.15.77-.81,1.15-2a22.73,22.73,0,0,0,.87-4.29c.2-1.7.38-2.57.53-2.62s.25,0,.31.2a8.81,8.81,0,0,1,0,3.36q-.87,6.62-2.71,7.2a3.32,3.32,0,0,1-2.2.1q-.32-.16-.63-1.17c-.22-.68-.51-1.79-.86-3.35s-.66-2.71-.9-3.46-.49-1.09-.75-1-.71,1.09-1.33,3a11.69,11.69,0,0,0-.82,3.56A14.73,14.73,0,0,0,158.8,130.87Zm-2.63-15.93c-.3-1-.58-1.4-.83-1.32-.41.13-.41,1.53,0,4.18.23,1.41.57,3,1.05,4.83A17.85,17.85,0,0,0,156.17,114.94Z" style="fill:#263238"></path><path d="M109.76,160.46l-6.41,2-1.49-4.68,18.69-6,1.5,4.68-6.38,2,5.16,16.19-5.91,1.89Z" style="fill:#263238"></path><path d="M122.76,151.15l5.9-1.88,6.66,20.87-5.9,1.89Z" style="fill:#263238"></path><path d="M158.37,162.79l-3.59-11-2.49,10.72-2.63.83-8.11-7L145,167.06l-5.46,1.74-6.65-20.87,4.86-1.55,11.17,9.71,3.32-14.33,4.86-1.55,6.71,20.85Z" style="fill:#263238"></path><path d="M183.27,149.83l1.46,4.56L168,159.73l-6.66-20.87,16.37-5.22,1.46,4.56-10.53,3.36,1.12,3.52,9.28-3,1.41,4.41-9.28,3,1.22,3.82Z" style="fill:#263238"></path></g><g id="freepik--Character--inject-114"><path d="M339.94,260.81A744.61,744.61,0,0,1,369,156.23l21.21-27.17c9.13-2.42,19.17,1.61,25.55,8.57s9.49,16.4,10.52,25.79.17,18.86-.46,28.29c-1.42,21.46-1.61,43.31-7.95,63.86-2.48,8.06-6.3,16.32-13.46,20.77-7.63,4.74-17.34,4.14-26.22,2.83a213.56,213.56,0,0,1-31.48-7.11c-2.52-.77-5.26-1.78-6.53-4.09C339,265.83,339.46,263.21,339.94,260.81Z" style="fill:#263238"></path><path d="M338.67,99.37c13.58-1.42,25.06,4.51,35.91,12.81s18.65,20.28,22.76,33.31c4.33,13.71,4.63,28.86-.25,42.39s-15.1,25.27-28.32,31c-18,7.76-40.2,3.23-55.08-9.59s-22.57-33-22.06-52.59c.35-13.53,4.46-27.13,12.72-37.85s20.83-18.32,34.32-19.43" style="fill:#263238"></path><path d="M374,147.52c-1.63-5.27-.5-11-.93-16.46-.94-12.11-10-22.34-20.87-27.74-10.12-5-22.89-4.88-35.68-1.64-8.76,2.23-17.15,6.55-23.33,13.16a37.74,37.74,0,0,0-9.09,33.4l61.95-5c5.44,5.13,11,10.34,17.82,13.44a12.73,12.73,0,0,0,6.34,1.43,5.74,5.74,0,0,0,5-3.63C375.89,152.18,374.66,149.8,374,147.52Z" style="fill:#263238"></path><path d="M304.56,284.62s3.64-41.42,3.63-41.32-21.75-4.18-25.56-32.8c-1.89-14.23-.59-37.45,1.08-56.42,1.51-17.07,13.37-37.77,30.37-35.53l52.86,14.79a10,10,0,0,1,8.71,10.39l-9.11,102.88-3.19,42.12Z" style="fill:#ffbf9d"></path><path d="M294.37,178.51a3.66,3.66,0,0,0,3.43,3.78,3.49,3.49,0,0,0,3.85-3.2,3.66,3.66,0,0,0-3.43-3.78A3.49,3.49,0,0,0,294.37,178.51Z" style="fill:#263238"></path><path d="M288.45,166.3c.44.48,3.26-1.49,7.2-1.39s6.76,2.15,7.2,1.68c.22-.2-.22-1.08-1.46-2a10,10,0,0,0-5.75-1.94,9.58,9.58,0,0,0-5.74,1.7C288.67,165.23,288.23,166.08,288.45,166.3Z" style="fill:#263238"></path><path d="M329.85,178.51a3.66,3.66,0,0,0,3.43,3.78,3.49,3.49,0,0,0,3.85-3.2,3.66,3.66,0,0,0-3.42-3.78A3.5,3.5,0,0,0,329.85,178.51Z" style="fill:#263238"></path><path d="M326.29,165.91c.45.49,3.27-1.49,7.2-1.38s6.77,2.15,7.2,1.68c.22-.21-.22-1.08-1.46-2a10,10,0,0,0-5.75-1.93,9.65,9.65,0,0,0-5.74,1.69C326.51,164.84,326.08,165.69,326.29,165.91Z" style="fill:#263238"></path><path d="M312.09,196.82c0-.23-2.41-.71-6.36-1.32-1-.13-2-.35-2.1-1s.23-1.8.74-3c1-2.41,2.06-4.93,3.17-7.57,4.4-10.79,7.61-19.67,7.17-19.84s-4.35,8.43-8.75,19.21c-1.06,2.66-2.08,5.2-3,7.62-.41,1.14-1.1,2.42-.62,3.93a2.5,2.5,0,0,0,1.61,1.51,6.39,6.39,0,0,0,1.7.28C309.59,197,312.06,197,312.09,196.82Z" style="fill:#263238"></path><path d="M308.19,243.3a72.53,72.53,0,0,0,38.43-9.22s-10.84,20.91-39.3,17.53Z" style="fill:#ff9a6c"></path><path d="M325.49,150c.36,1.08,4.3.67,8.9,1.34s8.3,2,8.94,1.08c.28-.45-.34-1.47-1.82-2.54a15.59,15.59,0,0,0-13.59-1.85C326.21,148.71,325.33,149.53,325.49,150Z" style="fill:#263238"></path><path d="M290,149.12c.67.91,3.4.06,6.66.09s6,.76,6.66-.16c.29-.45-.12-1.35-1.31-2.23a9.64,9.64,0,0,0-10.73.06C290.13,147.77,289.73,148.68,290,149.12Z" style="fill:#263238"></path><path d="M384.31,139.87c-4.51-16.68-27.34-40.47-44.61-40l-28.22,15.27a26.56,26.56,0,0,0,17.1,21.09c4.8,1.7,10.63,2.36,13.34,6.67s.76,10.54,3.32,15.06c3.53,6.27,13.95,6.44,16.52,13.17,1.12,2.93.31,6.35,1.49,9.27,1.56,3.89,11,9.14,15,8.06s4.36-7.89,5.82-11.39c2.5-6,1.72-9.18,1.14-12.61C383.86,156.31,386.46,147.83,384.31,139.87Z" style="fill:#263238"></path><path d="M366.37,191.28c.06-2.12,2.64-7.07,4.74-7.34,5.62-.73,15.7,0,15.43,14.19-.36,19.44-19.8,15.06-19.82,14.51S366.17,198.61,366.37,191.28Z" style="fill:#ffbf9d"></path><path d="M372.79,205.38c.09-.06.34.25.91.52a3.37,3.37,0,0,0,2.53.1c2.06-.72,3.85-3.94,4-7.45a11.09,11.09,0,0,0-.86-4.86,3.92,3.92,0,0,0-2.49-2.65,1.74,1.74,0,0,0-2,.89c-.27.54-.15.93-.26,1s-.41-.33-.24-1.13a2.19,2.19,0,0,1,.79-1.2,2.56,2.56,0,0,1,1.88-.46c1.5.13,2.82,1.53,3.48,3.08a11.43,11.43,0,0,1,1.08,5.44c-.2,3.91-2.27,7.54-5.1,8.3a3.64,3.64,0,0,1-3.09-.57C372.82,205.86,372.73,205.42,372.79,205.38Z" style="fill:#ff9a6c"></path><path d="M317.49,109.62c-2.29,7.78-14.94,17.13-20.59,22.93-10.8,11.08-13,14.84-14.61,41-4.16-9.35-7.23-18.45-6.21-28.64s5.44-20.17,13-27.07,18.38-10.38,28.4-8.27" style="fill:#263238"></path><path d="M387.13,195.69a11.88,11.88,0,0,0,1.95-2.31,29,29,0,0,0,2-2.9l2.32-4.1c3.21-6.2,5.75-15.8,5.59-26.49A71,71,0,0,0,397,145a59.85,59.85,0,0,0-4.25-11.49c-.79-1.56-1.63-2.91-2.35-4.09s-1.51-2.1-2.13-2.85a11.15,11.15,0,0,0-2.2-2.08c-.25.21,2.93,3.19,5.7,9.49a66.41,66.41,0,0,1,3.85,11.36,76,76,0,0,1,1.87,14.56c.14,10.43-2.14,19.79-5,26l-2.08,4.13c-.59,1.23-1.32,2.16-1.79,3A11.23,11.23,0,0,0,387.13,195.69Z" style="fill:#455a64"></path><path d="M324.36,205.8a8,8,0,0,0-1-2.52,2.72,2.72,0,0,0-2.25-1.3,3.87,3.87,0,0,0-1.82.71L312,207l-.64,1.78a20,20,0,0,0,5.58,5.74,4.12,4.12,0,0,0,2.23.88,4.54,4.54,0,0,0,2.73-1.32,8.32,8.32,0,0,0,2.61-2.87C325.29,209.55,324.83,207.59,324.36,205.8Z" style="fill:#ff9a6c"></path><path d="M318.88,216c-.08-.18,1.7-.48,3.55-2.35a8,8,0,0,0,2.11-3.93,8.09,8.09,0,0,0-.8-5.32,7.54,7.54,0,0,0-.79-1.2,3.5,3.5,0,0,0-.94-.88,1.08,1.08,0,0,0-1-.1,7.38,7.38,0,0,0-1.11.61c-1.54.94-2.93,1.76-4.1,2.45-2.35,1.36-3.85,2.15-3.92,2s1.28-1.13,3.53-2.66c1.12-.76,2.47-1.65,4-2.63a7.23,7.23,0,0,1,1.29-.73,2.08,2.08,0,0,1,1.8.14,4.49,4.49,0,0,1,1.24,1.12,8.49,8.49,0,0,1,.91,1.36,8.7,8.7,0,0,1,.81,6,8.16,8.16,0,0,1-2.53,4.26,7.81,7.81,0,0,1-2.86,1.66C319.33,216.05,318.89,216.05,318.88,216Z" style="fill:#263238"></path><path d="M422.36,472.15l-14.21-36.59s1-37.77,4.47-55-4.28-113.07-4.28-113.07l-42.52-11.4s-10.33,17.46-29.07,15.73c-22-2-29.68-15.73-29.68-15.73l-26.21,4.23s-16.31,58.27-23.31,71.89S250,387.8,250,387.8s7.58,23.47,9.45,31.32a5.53,5.53,0,0,1-.27,3.41l-17.62,49.62Z" style="fill:#4E944F"></path><g style="opacity:0.30000000000000004"><path d="M391.24,376.44c.39,5.23-.7,13.32.28,18.47l8.44,1.81a61.22,61.22,0,0,0,6.26-19.86S391.12,375,391.24,376.44Z"></path></g><g style="opacity:0.30000000000000004"><path d="M379.27,409.64a9.72,9.72,0,0,0-4.12-2.66,9.83,9.83,0,0,0-5,.6l-24.85,7.49-17.72-4.59a33.8,33.8,0,0,0,39,17.38c3.06-.83,6.2-2.11,9.29-1.43,2.92.64,5.16,2.87,7.44,4.79,7,5.88,17.61,6.22,26.7,7C401.31,426.8,389.79,419.44,379.27,409.64Z"></path></g><path d="M393.37,389.53l17.34,3.21-3-64.3.59-61s21.92,7,32.83,27.6S454.12,344,455.29,359.3c1.35,17.64,2.5,61.05.82,71.55s-13.6,21.39-33.75,14.92c-10.18-3.27-46.15-33.94-46.15-33.94Z" style="fill:#4E944F"></path><path d="M280.86,260.29s-36.42,6.84-43.82,21.17-42.54,93.57-38,116.39,31.56,33,40.68,23.91,17.84-34.43,17.84-34.43Z" style="fill:#4E944F"></path><path d="M414.45,441.51l-.2-.12-.57-.4-2.16-1.58-8-6L376.05,412.9l-.2-.16.16-.2,9.51-12c3.08-3.86,6.07-7.61,8.92-11.2l.1-.12.16,0,14.78,3.23h-.09a31.72,31.72,0,0,1,13.7,1.12,32.63,32.63,0,0,1,9.56,4.71,31,31,0,0,1,5.12,4.6c.54.59.89,1.09,1.15,1.41l.28.37a.94.94,0,0,1,.09.13s0,0-.12-.11l-.31-.34c-.27-.31-.65-.79-1.19-1.36A32.81,32.81,0,0,0,423,394a31.47,31.47,0,0,0-13.52-1h-.08l-14.79-3.18.25-.09-8.91,11.2c-3.3,4.15-6.51,8.18-9.53,12l0-.35,27.32,20.69,7.94,6.08,2.12,1.65.54.43C414.4,441.45,414.46,441.5,414.45,441.51Z" style="fill:#263238"></path><path d="M410.76,333.2a4.3,4.3,0,0,1,.08.6c0,.45.09,1,.15,1.72.11,1.57.26,3.72.45,6.35.34,5.35.77,12.76.93,20.95s-.08,15.63-.53,21c-.1,1.34-.24,2.54-.35,3.6s-.23,2-.34,2.72l-.27,1.71a3.21,3.21,0,0,1-.12.59,2.48,2.48,0,0,1,0-.6c0-.45.1-1,.16-1.72s.18-1.66.26-2.72.2-2.27.27-3.61c.36-5.35.54-12.76.38-20.95s-.53-15.58-.78-20.94c-.12-2.63-.21-4.79-.28-6.35,0-.71,0-1.28-.05-1.73A2.2,2.2,0,0,1,410.76,333.2Z" style="fill:#263238"></path><path d="M256.65,313.15a1.1,1.1,0,0,1,0,.28l-.2.8c-.21.73-.48,1.75-.84,3s-.82,2.93-1.3,4.81-1.08,4-1.62,6.41a162.33,162.33,0,0,0-3.21,16.87c-.18,1.61-.43,3.25-.57,4.93s-.25,3.41-.38,5.16-.09,3.55-.13,5.36.08,3.66.11,5.52A152.56,152.56,0,0,0,251,387.2l1,4.62c.31,1.5.61,3,1,4.35.73,2.78,1.31,5.4,2,7.75s1.27,4.48,1.81,6.35,1.07,3.45,1.48,4.77l.92,3c.09.32.16.58.22.78a1,1,0,0,1,.06.28,1.87,1.87,0,0,1-.11-.26l-.27-.77c-.25-.72-.59-1.72-1-3s-1-2.9-1.56-4.74-1.19-4-1.88-6.34-1.33-5-2.07-7.75c-.39-1.39-.69-2.85-1-4.35s-.66-3-1-4.63a148.46,148.46,0,0,1-2.56-20.93c0-1.88-.13-3.73-.11-5.55s.09-3.62.14-5.38.27-3.49.4-5.19.4-3.33.59-4.94a154.4,154.4,0,0,1,3.32-16.9c.57-2.38,1.18-4.52,1.7-6.39s1-3.49,1.39-4.8.7-2.29.93-3c.1-.32.18-.58.25-.78A1.36,1.36,0,0,1,256.65,313.15Z" style="fill:#263238"></path><path d="M252.55,321.37a47.63,47.63,0,0,1-2.78-6.38,46.61,46.61,0,0,1-2.31-6.57,46.17,46.17,0,0,1,2.79,6.38A44.3,44.3,0,0,1,252.55,321.37Z" style="fill:#263238"></path><path d="M417.67,317.59a74,74,0,0,1-3.62,8,74.62,74.62,0,0,1-4.09,7.78,74,74,0,0,1,3.62-8A74.62,74.62,0,0,1,417.67,317.59Z" style="fill:#263238"></path><polygon points="282.67 260.29 326.97 321.37 390.57 262.14 365.82 256.06 307.07 256.06 282.67 260.29" style="fill:#ffbf9d"></polygon><g style="opacity:0.30000000000000004"><path d="M248.72,311.61c0,13.58-1.11,28.45-4.18,41.68l.93,15c.55,12.79-2.7,21.85-8.41,33.3,5.31-2.48,8.8-7.9,10.3-13.57s1.27-11.65.92-17.5c-.52-8.75-.61-17.26,1-25.88.93-5,2.53-14.59,3.8-19.24C253.07,325.36,253.76,323.31,248.72,311.61Z"></path></g><g style="opacity:0.30000000000000004"><path d="M444,404.35c-1.21-6.52-7.36-11.22-13.82-12.72s-12.85-.36-19.37.8c14.53-.64,23.54,5.92,29.81,14a2.74,2.74,0,0,0,1.62,1.26,1.73,1.73,0,0,0,1.69-1.16A4,4,0,0,0,444,404.35Z"></path></g><path d="M332.44,366.78a5.34,5.34,0,0,1,1.89-5.07,8,8,0,0,1,5.3-1.72,8.79,8.79,0,0,1,4.73,1.38A5.94,5.94,0,0,1,345,371a8.34,8.34,0,0,1-5.8,2,6.9,6.9,0,0,1-4.78-1.87c-1.22-1.26-2.14-3-2-4.34" style="fill:#4E944F"></path><path d="M314.14,371.55c-7.16,1.11-14.05-7-15.65-12.15a1.78,1.78,0,0,1,.08-1.64,1.82,1.82,0,0,1,1.72-.36,16.69,16.69,0,0,1,13.85,14.15" style="fill:#455a64"></path><path d="M306.21,367.46a5.34,5.34,0,0,1,1.89-5.07,8,8,0,0,1,5.29-1.72,8.65,8.65,0,0,1,4.73,1.38,5.94,5.94,0,0,1,.64,9.65,8.35,8.35,0,0,1-5.8,2,6.88,6.88,0,0,1-4.78-1.87c-1.23-1.27-2.14-3-2-4.34" style="fill:#4E944F"></path><path d="M378.65,367.46a5.31,5.31,0,0,1,1.88-5.07,8,8,0,0,1,5.3-1.72,8.68,8.68,0,0,1,4.73,1.38,5.94,5.94,0,0,1,.64,9.65,8.36,8.36,0,0,1-5.8,2,6.91,6.91,0,0,1-4.79-1.87c-1.22-1.27-2.14-3-2-4.34" style="fill:#4E944F"></path><g style="opacity:0.30000000000000004"><path d="M332.44,366.78a5.34,5.34,0,0,1,1.89-5.07,8,8,0,0,1,5.3-1.72,8.79,8.79,0,0,1,4.73,1.38A5.94,5.94,0,0,1,345,371a8.34,8.34,0,0,1-5.8,2,6.9,6.9,0,0,1-4.78-1.87c-1.22-1.26-2.14-3-2-4.34"></path></g><g style="opacity:0.30000000000000004"><path d="M306.21,367.46a5.34,5.34,0,0,1,1.89-5.07,8,8,0,0,1,5.29-1.72,8.65,8.65,0,0,1,4.73,1.38,5.94,5.94,0,0,1,.64,9.65,8.35,8.35,0,0,1-5.8,2,6.88,6.88,0,0,1-4.78-1.87c-1.23-1.27-2.14-3-2-4.34"></path></g><g style="opacity:0.30000000000000004"><path d="M378.65,367.46a5.31,5.31,0,0,1,1.88-5.07,8,8,0,0,1,5.3-1.72,8.68,8.68,0,0,1,4.73,1.38,5.94,5.94,0,0,1,.64,9.65,8.36,8.36,0,0,1-5.8,2,6.91,6.91,0,0,1-4.79-1.87c-1.22-1.27-2.14-3-2-4.34"></path></g><path d="M343,369.84c.15-3.71,2.82-8.19,5.07-11.14a18.25,18.25,0,0,1,9-6.32,1.06,1.06,0,0,1,.76,0,1,1,0,0,1,.45.66A13.09,13.09,0,0,1,343,369.84" style="fill:#455a64"></path><path d="M369.14,364.07a35.86,35.86,0,0,0,3.89-5.15,11.69,11.69,0,0,0,1.73-6.14,1.08,1.08,0,0,0-.32-.87,1.12,1.12,0,0,0-.9-.09,19.74,19.74,0,0,0-15.71,16.86l-.23,1.05a15.23,15.23,0,0,0,11.24,1.94,23.56,23.56,0,0,0,8.78-3.23,12.52,12.52,0,0,0,5.48-7.39A16.84,16.84,0,0,0,369.14,364.07Z" style="fill:#455a64"></path><path d="M324.86,356.76c-3.26-3.5-7.85-5.48-12.48-6.69a18,18,0,0,0,15.42,20.42l.29-.5C329.8,365.52,328.12,360.26,324.86,356.76Z" style="fill:#455a64"></path><path d="M388.87,371.46c.14-3.71,2.81-8.19,5.06-11.15a18.41,18.41,0,0,1,9-6.32,1.06,1.06,0,0,1,.76,0,1,1,0,0,1,.44.66,13.09,13.09,0,0,1-15.23,16.85" style="fill:#455a64"></path><path d="M299.11,367.94s9.72,28.95,18.12,33.45,27.15,8.76,36.66,8.65,15.24-.34,22.89-4.59l.23-.13a46.83,46.83,0,0,0,20.52-23.47l6-15Z" style="fill:#e0e0e0"></path><path d="M396.79,384.27a11.28,11.28,0,0,1-3.15,2,14.79,14.79,0,0,1-4.23,1.18,14.57,14.57,0,0,1-5.8-.42c-2.09-.56-4.2-1.73-6.67-2a8.76,8.76,0,0,0-3.74.57c-1.25.43-2.48,1.06-3.79,1.64a13.17,13.17,0,0,1-4.24,1.22,12.94,12.94,0,0,1-4.57-.51c-3-.8-5.9-2.3-9.09-2.84a10.07,10.07,0,0,0-4.67.29,21.82,21.82,0,0,0-4.21,2,32.62,32.62,0,0,1-4.09,2.06,9.09,9.09,0,0,1-4.38.67c-2.93-.4-5.2-2.07-7.61-2.65a16.12,16.12,0,0,0-6.87.14,45.39,45.39,0,0,1-5.74.9,12.59,12.59,0,0,1-4.37-.42,7.24,7.24,0,0,1-2.47-1.26,3.74,3.74,0,0,1-.7-.67,8.09,8.09,0,0,0,3.23,1.74,12.87,12.87,0,0,0,4.29.32,47.31,47.31,0,0,0,5.69-1,16.2,16.2,0,0,1,7-.18c2.51.59,4.81,2.24,7.57,2.58a8.56,8.56,0,0,0,4.14-.65,33.78,33.78,0,0,0,4-2,21.8,21.8,0,0,1,4.31-2,10.56,10.56,0,0,1,4.91-.31c3.3.57,6.18,2.07,9.13,2.86a11.21,11.21,0,0,0,8.49-.66c1.29-.56,2.54-1.19,3.83-1.63a9.07,9.07,0,0,1,3.93-.57c2.59.28,4.7,1.48,6.73,2.05a14.36,14.36,0,0,0,5.67.48,14.9,14.9,0,0,0,4.18-1.08A15.43,15.43,0,0,0,396,384.8C396.51,384.45,396.78,384.26,396.79,384.27Z" style="fill:#263238"></path><path d="M396.79,380.92a11.26,11.26,0,0,1-3.19,2,15.15,15.15,0,0,1-4.28,1.19,14.69,14.69,0,0,1-5.86-.43c-2.11-.56-4.25-1.73-6.75-2a9.1,9.1,0,0,0-3.78.57c-1.27.44-2.51,1.07-3.84,1.64a13.15,13.15,0,0,1-4.28,1.22,13.51,13.51,0,0,1-4.63-.5c-3-.81-6-2.3-9.18-2.85a10.45,10.45,0,0,0-4.73.29,22.33,22.33,0,0,0-4.27,2,33.81,33.81,0,0,1-4.13,2.06,9.17,9.17,0,0,1-4.43.66c-3-.4-5.26-2.07-7.7-2.64a16.34,16.34,0,0,0-6.95.13,46.07,46.07,0,0,1-5.79.9,13.16,13.16,0,0,1-4.42-.41,7.52,7.52,0,0,1-2.5-1.26,4.07,4.07,0,0,1-.71-.67,8.32,8.32,0,0,0,3.27,1.73,12.87,12.87,0,0,0,4.34.32,47.8,47.8,0,0,0,5.74-1,16.72,16.72,0,0,1,7.12-.19c2.54.59,4.87,2.24,7.66,2.58a8.76,8.76,0,0,0,4.19-.64,34.47,34.47,0,0,0,4.07-2.05,22.51,22.51,0,0,1,4.36-2,10.78,10.78,0,0,1,5-.31c3.33.57,6.26,2.07,9.24,2.86a11.32,11.32,0,0,0,8.58-.66c1.31-.56,2.57-1.19,3.88-1.63a9.4,9.4,0,0,1,4-.57c2.62.28,4.75,1.48,6.81,2.05a14.69,14.69,0,0,0,5.73.49,15.65,15.65,0,0,0,4.23-1.08,15.89,15.89,0,0,0,2.46-1.29A6.56,6.56,0,0,1,396.79,380.92Z" style="fill:#263238"></path><path d="M359.59,410s-14.41-9-17.79-7.91a5,5,0,0,0-3.37,4.58,73,73,0,0,0-8.32-6.76c-1.68-1.08-3.74-1.87-5.61-1l-.57.7.25,1.25s-8.56-2.52-4.67,2.52,20.84,15.39,23.62,16.69,15.65,5.13,21.6,1.55a20.8,20.8,0,0,0,9.66-5.76c4.12-4.54,10.19-11.93,10.19-11.93l-.4-7.4-16.52,12.28Z" style="fill:#ffbf9d"></path><path d="M395.07,392.18a5.43,5.43,0,0,0-1.23-2.77c-.71-.73-2.44-1.36-3.22-.69-1.95,1.38-4.23,5.43-4.23,5.43-1.31.91-3,1-4.19,2.05a5.37,5.37,0,0,0-2.15,4.06,4.88,4.88,0,0,0,3.4,4.12,12.38,12.38,0,0,0,5.62.3c2-.24,4.19-.68,5.45-2.25a7.39,7.39,0,0,0,1.18-4.89A29.27,29.27,0,0,0,395.07,392.18Z" style="fill:#ffbf9d"></path><path d="M334.35,413.55a10.77,10.77,0,0,1-2.26-1.69,31.65,31.65,0,0,1-4.58-5.05,29.94,29.94,0,0,1-3.38-5.92,2.27,2.27,0,0,1-.19-1.23,1.27,1.27,0,0,1,.49-.82c.46-.32.8-.13.77-.11a1,1,0,0,0-.64.27,1.05,1.05,0,0,0-.33.7,2.07,2.07,0,0,0,.24,1.05,38.52,38.52,0,0,0,3.46,5.75,39.92,39.92,0,0,0,4.41,5.09A24.58,24.58,0,0,1,334.35,413.55Z" style="fill:#ff9a6c"></path><path d="M364.19,420.83a6.06,6.06,0,0,1-1.21.05,12.86,12.86,0,0,1-1.42-.07c-.55-.05-1.19-.08-1.88-.2a30.23,30.23,0,0,1-4.78-1.11,33.89,33.89,0,0,1-5.54-2.37,33.23,33.23,0,0,1-5-3.4,30.23,30.23,0,0,1-3.5-3.45,18.08,18.08,0,0,1-1.18-1.47,11.81,11.81,0,0,1-.82-1.17,4.84,4.84,0,0,1-.6-1.05c.08,0,1,1.4,2.87,3.45a34.33,34.33,0,0,0,3.53,3.32,35.71,35.71,0,0,0,4.92,3.31,37.78,37.78,0,0,0,5.43,2.38,34.45,34.45,0,0,0,4.7,1.19C362.47,420.72,364.2,420.72,364.19,420.83Z" style="fill:#ff9a6c"></path><path d="M387.25,405a1.62,1.62,0,0,1-.66.17,5.51,5.51,0,0,1-1.86-.07A5.84,5.84,0,0,1,382.2,404a5.21,5.21,0,0,1-1.85-2.87,4.84,4.84,0,0,1,.37-3.4,5,5,0,0,1,2-2,4.63,4.63,0,0,1,1.79-.57c.44,0,.68,0,.68,0a7.61,7.61,0,0,0-2.28.84,4.83,4.83,0,0,0-1.72,1.89,4.45,4.45,0,0,0-.3,3.06,5,5,0,0,0,1.65,2.62,6.08,6.08,0,0,0,2.31,1.17A13.41,13.41,0,0,0,387.25,405Z" style="fill:#ff9a6c"></path><g style="opacity:0.6000000000000001"><path d="M323.38,394.79a21.64,21.64,0,0,0-3.25-6.36l-8.42-12.8a6.4,6.4,0,0,0-2.12-2.29c-.82-.45-3.21-1.56-3.71.44a2.55,2.55,0,0,0,.1,1.42,49.73,49.73,0,0,0,13.76,20.67c.94.84,2.4,1.68,3.32.58A1.88,1.88,0,0,0,323.38,394.79Z" style="fill:#fff"></path></g><path d="M209.54,236.34c-1.86-2.91-3.77-5.88-6.48-8a4.69,4.69,0,0,0-3.37-1.29,3.4,3.4,0,0,0-2.48,1.84,6.31,6.31,0,0,0-.62,3.12c.09,3.74,2.11,7.17,4.41,10.13s5,5.67,6.75,9l11.22,0Z" style="fill:#ff9a6c"></path><path d="M281.25,241.78c-3.43-2.71-7.84-3.88-12.19-4.33a16.42,16.42,0,0,0,16.72,16.34l.19-.49C286.9,249,284.67,244.5,281.25,241.78Z" style="fill:#455a64"></path><path d="M273.81,241.62a10.06,10.06,0,0,1,2.06,1.44c1.22,1,2.84,2.36,4.54,4s3.14,3.25,4.13,4.44a11.37,11.37,0,0,1,1.5,2,13.36,13.36,0,0,1-1.78-1.77c-1.05-1.12-2.53-2.66-4.21-4.3s-3.27-3.08-4.42-4.11A15.7,15.7,0,0,1,273.81,241.62Z" style="fill:#263238"></path><path d="M296.45,240.49c-.3-4.34-2.41-8.37-5-11.88a16.38,16.38,0,0,0-.78,23.28l.5-.19C294.93,249.52,296.76,244.84,296.45,240.49Z" style="fill:#455a64"></path><path d="M292,233.28a12,12,0,0,1-.13,2.52c-.15,1.73-.33,3.78-.53,6s-.34,4.31-.48,6.05a13.77,13.77,0,0,1-.28,2.51,11.31,11.31,0,0,1-.08-2.53c0-1.55.12-3.71.32-6.08s.46-4.51.69-6.05A11.53,11.53,0,0,1,292,233.28Z" style="fill:#263238"></path><circle cx="287.95" cy="248.46" r="6.17" style="fill:#4E944F"></circle><g style="opacity:0.30000000000000004"><circle cx="287.95" cy="248.46" r="6.17"></circle></g><path d="M263.46,256.6c-5.81,0-11.76-4.74-15.78-8.79l-.14-.14a2.91,2.91,0,0,0-.51-.4,3.45,3.45,0,0,0-1.67-.49c-26.2-1.23-61-10.5-61.35-10.59a1.31,1.31,0,1,1,.68-2.54c.35.1,34.88,9.29,60.79,10.5a6.13,6.13,0,0,1,3,.9,5.08,5.08,0,0,1,.95.77l.15.15c5.33,5.37,10.44,8.21,14.35,8,6.68-.36,23.51-5.35,23.68-5.4a1.3,1.3,0,0,1,1.63.88,1.32,1.32,0,0,1-.88,1.64c-.7.21-17.3,5.12-24.29,5.5Z" style="fill:#e0e0e0"></path><path d="M263.46,256.6l.58,0c.38-.05.95-.08,1.69-.18,1.49-.19,3.66-.59,6.43-1.2s6.15-1.46,10-2.52c1.94-.53,4.05-1.12,6.2-1.78a1.14,1.14,0,0,0-.4-2.19,2.77,2.77,0,0,0-.83.18l-.89.26-1.81.52c-4.9,1.36-10.28,2.84-16.17,3.95a39.26,39.26,0,0,1-4.55.59,11.4,11.4,0,0,1-4.66-1,29.59,29.59,0,0,1-8.14-5.56c-1.28-1.11-2.3-2.56-3.94-3a9.67,9.67,0,0,0-2.5-.33l-2.63-.17c-3.51-.24-7.09-.62-10.72-1.06-7.27-.92-14.74-2.18-22.36-3.7s-15-3.18-22.1-5l-1.33-.34-.66-.17a1.2,1.2,0,0,0-.56,0,1.06,1.06,0,0,0-.62,1.71c.22.31.59.37,1.05.49l1.29.33,2.57.65q5.13,1.26,10.05,2.36a354.94,354.94,0,0,0,35.14,6.18c2.52.32,4.93.51,7.21.72l3.32.22c.55.05,1.05.06,1.6.12a3.21,3.21,0,0,1,1.48.59,11.07,11.07,0,0,1,1.11,1l1,1c.69.63,1.36,1.23,2,1.78a34.65,34.65,0,0,0,3.82,2.76,18.9,18.9,0,0,0,6,2.51,19.52,19.52,0,0,0,2.25.28h-.58a11.24,11.24,0,0,1-1.69-.17,18.66,18.66,0,0,1-6.07-2.45,34.23,34.23,0,0,1-3.87-2.74c-.68-.54-1.36-1.14-2.05-1.77l-1-1a9.11,9.11,0,0,0-1.08-1,2.87,2.87,0,0,0-1.35-.53c-.49-.05-1-.07-1.58-.1l-3.33-.21c-2.28-.19-4.7-.38-7.22-.68a344.79,344.79,0,0,1-35.21-6.09q-4.92-1.08-10.06-2.34l-2.57-.64-1.3-.34c-.23-.06-.41-.09-.67-.18a1.51,1.51,0,0,1-.64-.47,1.57,1.57,0,0,1,.92-2.53,1.7,1.7,0,0,1,.78.05l.66.17,1.32.34c7.09,1.79,14.48,3.45,22.09,5s15.06,2.78,22.31,3.7c3.63.45,7.2.83,10.7,1.08l2.61.17a10.39,10.39,0,0,1,2.63.35,5.61,5.61,0,0,1,1.23.54c.38.23.7.54,1.06.81.63.58,1.2,1.19,1.83,1.75a29.11,29.11,0,0,0,8,5.49,11.07,11.07,0,0,0,4.47,1,38.78,38.78,0,0,0,4.49-.57c5.87-1.09,11.25-2.54,16.15-3.88l1.81-.51.89-.26a3,3,0,0,1,.94-.19,1.49,1.49,0,0,1,.52,2.85c-2.23.67-4.29,1.22-6.25,1.75-3.91,1-7.29,1.86-10.08,2.44s-5,.95-6.45,1.1c-.75.08-1.32.1-1.7.13A5.28,5.28,0,0,1,263.46,256.6Z" style="fill:#263238"></path><path d="M187.59,259.46s1.28-21,3.78-23.1,12.62-4.6,13.95-4,9,3.58,9.27,4.85a2.85,2.85,0,0,1-2.61,3.67l-6-1.09-6,3.24-.71,5.79s6.11-4.88,8.16-6.32,7.13-1.38,7.33,2.38c0,0,7.9.95,8.14,5.51,0,0,7,5.07,7.39,7.67s-3.07,7.8-3.07,7.8,10.67,10.32,10.38,13.83.78,14.56.78,14.56l-24.27,3-.53-10S189.17,264.39,187.59,259.46Z" style="fill:#ffbf9d"></path><path d="M226.86,258.62a6.6,6.6,0,0,1-4.09,5c-.08-.13,1.18-.91,2.3-2.3S226.72,258.57,226.86,258.62Z" style="fill:#ff9a6c"></path><path d="M228.56,260.71c.12.09-.47.73-1.44.69s-1.51-.73-1.39-.81.65.27,1.41.29S228.47,260.6,228.56,260.71Z" style="fill:#ff9a6c"></path><path d="M222.68,250.66c0,.09-.83.39-2.09,1.14a15.21,15.21,0,0,0-4.23,3.74,14.47,14.47,0,0,0-2.1,3.75l0,.1-.08,0a21.37,21.37,0,0,1-3.58,1.23A21.26,21.26,0,0,1,214,259l-.12.13a12.83,12.83,0,0,1,2.1-3.93,13.7,13.7,0,0,1,4.46-3.75A6.63,6.63,0,0,1,222.68,250.66Z" style="fill:#ff9a6c"></path><path d="M202.68,256.77s.1-.24.45-.53a5.21,5.21,0,0,1,1.71-.84,7.53,7.53,0,0,0,2.42-1.13,22.73,22.73,0,0,0,2.29-2.43c1.59-1.81,3-3.42,4.12-4.57a12.41,12.41,0,0,1,1.83-1.8,12.2,12.2,0,0,1-1.55,2c-1,1.21-2.42,2.87-4,4.67a20,20,0,0,1-2.38,2.47,7.33,7.33,0,0,1-2.61,1.1,6.35,6.35,0,0,0-1.7.65C202.89,256.62,202.71,256.8,202.68,256.77Z" style="fill:#ff9a6c"></path><path d="M199.16,248.75a9.08,9.08,0,0,1-6.33,6.19,25.35,25.35,0,0,0,3.61-2.65A25.78,25.78,0,0,0,199.16,248.75Z" style="fill:#ff9a6c"></path><path d="M227.48,266c0,.08-.36,0-.9,0a3.84,3.84,0,0,0-2,.53l-.37.22,0-.43v-.13a6.82,6.82,0,0,0-.38-2.16c-.2-.52-.44-.79-.39-.85s.4.14.72.68a5,5,0,0,1,.57,2.3v.13l-.4-.21a3.45,3.45,0,0,1,2.27-.44C227.2,265.69,227.51,265.91,227.48,266Z" style="fill:#ff9a6c"></path><path d="M210.7,294s-15,84.41-13.79,93.31,3.77,44.42,30.18,40.52S248.92,387,248,379.92s-7.13-54.36-7.13-54.36l-2-33.07Z" style="fill:#4E944F"></path><path d="M245.47,365.68a3.65,3.65,0,0,1-.14-.74c-.06-.54-.16-1.24-.27-2.12-.23-1.85-.53-4.52-.87-7.83-.68-6.62-1.47-15.77-2.27-25.89s-1.54-19.27-2.13-25.89c-.29-3.27-.53-5.93-.7-7.84q-.1-1.33-.18-2.13a7,7,0,0,1,0-.75,3.42,3.42,0,0,1,.14.73q.1.81.27,2.13c.23,1.84.53,4.52.87,7.83.68,6.61,1.47,15.77,2.28,25.88S244,348.33,244.56,355c.29,3.27.53,5.94.7,7.84.07.89.13,1.6.18,2.14A7,7,0,0,1,245.47,365.68Z" style="fill:#263238"></path></g><g id="freepik--Drink--inject-114"><g style="opacity:0.6000000000000001"><rect x="257.22" y="392.37" width="40.87" height="79.79" style="fill:#fff"></rect></g><path d="M289.79,467H265.63a5.34,5.34,0,0,1-5.34-5.34V413.59l11.31,1.87a30.64,30.64,0,0,0,9.07.12l14.46-2v48.06A5.34,5.34,0,0,1,289.79,467Z" style="fill:#ebebeb"></path><path d="M298,392.82a10.64,10.64,0,0,1-1.54.53,42.22,42.22,0,0,1-4.3,1.1,58.47,58.47,0,0,1-6.5,1,71.13,71.13,0,0,1-8.06.31A74.58,74.58,0,0,1,263.05,394c-1.82-.41-3.29-.79-4.29-1.1a10.07,10.07,0,0,1-1.54-.52,9,9,0,0,1,1.59.32c1,.25,2.49.58,4.32.94a84,84,0,0,0,14.46,1.63,75.43,75.43,0,0,0,8-.27c2.45-.23,4.65-.54,6.48-.9s3.31-.67,4.32-.93A9.14,9.14,0,0,1,298,392.82Z" style="fill:#263238"></path><path d="M260.36,399.78c.14,0,.26,13.73.26,30.67s-.12,30.67-.26,30.67-.26-13.73-.26-30.67S260.21,399.78,260.36,399.78Z" style="fill:#263238"></path><path d="M287.62,467.32c0,.14-4.9.26-10.94.26s-10.94-.12-10.94-.26,4.89-.26,10.94-.26S287.62,467.18,287.62,467.32Z" style="fill:#263238"></path><path d="M260.37,413.79a20.16,20.16,0,0,0,12.51,6.41c7.95.92,15.6-2.92,22.68-6.65-11.69,1.65-23.84,3.27-35.09-.28" style="fill:#fff"></path><g style="opacity:0.6000000000000001"><path d="M279.7,433.25c-3.61,2.4-6.5,5.81-10.15,8.15s-8.67,3.43-12.18.87v5.51c3.51,2.56,8.53,1.48,12.18-.87s6.54-5.74,10.15-8.15a22.89,22.89,0,0,1,18.39-3v-5.51A22.85,22.85,0,0,0,279.7,433.25Z" style="fill:#fff"></path></g></g></svg>