<svg xmlns="http://www.w3.org/2000/svg" xmlns:xlink="http://www.w3.org/1999/xlink" viewBox="0 0 500 500"><defs><clipPath id="freepik--clip-path--inject-32"><path d="M62.94,237.17c-14.26-2.82-25-10-31.44-22.55l6.77-9.44c14.14,2.64,24.34,10.53,31.44,22.54Z" style="fill:none"></path></clipPath></defs><g id="freepik--background-complete--inject-32"><path d="M421.59,443.62c16.31-9.28,28.34-24.76,36.91-41.46,3.37-6.56,6.31-14.24,3.68-21.13-1.9-5-6.61-8.67-11.78-10.09-3.32-.91-7.32-.52-11.1.32a15.16,15.16,0,0,1-11.3-2,28.31,28.31,0,0,0-5.91-2.87c-4.14-1.37-9-1.31-12.54,1.24s-5.08,6.89-6.37,11a262.67,262.67,0,0,0-10.48,48c-.66,5.63-.95,11.87,2.47,16.39,2.91,3.85,8,5.56,12.85,5.29S417.4,446,421.59,443.62Z" style="fill:#ebebeb"></path><path d="M408.72,400.72c4.28.27,8.37-1.67,12.59-2.44a23.63,23.63,0,0,1,16.19,2.94c3,1.77,5.55,4.2,8.74,5.53a16.5,16.5,0,0,0,9.31.86c1-1.8,2-3.62,2.95-5.45s1.73-3.5,2.45-5.32A17.59,17.59,0,0,1,448.87,401c-3.59-.22-7.54-2-8.43-5.53-.57-2.22.24-4.55,1.22-6.63a39,39,0,0,1,13.67-15.71,19.44,19.44,0,0,0-4.93-2.14,15.4,15.4,0,0,0-3.51-.5c-3.48,6.07-7.28,12-12.68,16.42-6.32,5.16-15.43,7.75-22.8,4.25-4-1.88-6.89-5.19-9.34-8.9q-2.08,6.94-3.82,14C401.4,398.5,404.87,400.49,408.72,400.72Z" style="fill:#e0e0e0"></path><path d="M417.6,445.68c1.36-.62,2.7-1.32,4-2.06,1-.59,2.07-1.21,3.08-1.86-.49-.28-1-.56-1.46-.85-3-1.78-6.39-4.06-6.75-7.55a7,7,0,0,1,2.61-5.87A12,12,0,0,1,425.2,425a18.92,18.92,0,0,1,14.33,4.1l.16.13a102.73,102.73,0,0,0,8.62-10.4,20.26,20.26,0,0,0-8.25-5.41c-4.7-1.52-9.83-.84-14.6.45s-9.38,3.18-14.23,4.08a36.56,36.56,0,0,1-17.2-1q-.76,4.77-1.33,9.57c-.08.71-.16,1.43-.22,2.15a17.88,17.88,0,0,1,7.87,2c3.87,2.14,6.54,5.86,9.66,9A38.75,38.75,0,0,0,417.6,445.68Z" style="fill:#e0e0e0"></path><path d="M411.47,375.26c1.34,4.07,5.67,7.27,9.85,6.34,3.24-.71,5.58-3.54,7.22-6.42.84-1.48,1.58-3,2.41-4.52a15.47,15.47,0,0,1-2.95-1.44,28.31,28.31,0,0,0-5.91-2.87,15.32,15.32,0,0,0-10.22,0A13.77,13.77,0,0,0,411.47,375.26Z" style="fill:#e0e0e0"></path><path d="M429,430.53c-.36-.36,1.72-3,5.22-7,1.75-2,3.83-4.41,6-7.12a101.63,101.63,0,0,0,6.67-9.09,62.76,62.76,0,0,0,5.17-9.88,49.94,49.94,0,0,0,2.7-8.69c1.07-5.08,1-8.41,1.51-8.46.23,0,.56.78.83,2.3a25.91,25.91,0,0,1,.16,6.53,39,39,0,0,1-2.11,9.49,51.63,51.63,0,0,1-5.25,10.64,72.46,72.46,0,0,1-7.18,9.31c-2.41,2.67-4.73,4.92-6.72,6.73C432,428.89,429.31,430.87,429,430.53Z" style="fill:#fff"></path><path d="M90.33,178.36c3.19-15.2-8.37-22.7-15.13-30.45s-14.14-15.38-17.77-25c-.85,6.26-1.45,12.61-.67,18.87s3,12.49,7.29,17.15c7.4,8.09,19.84,10.56,26.28,19.43" style="fill:#ebebeb"></path><path d="M51.07,163.8a106.15,106.15,0,0,0,15.78,7.71C77.19,175.86,88.42,181,95,190.13c-5.62,2.32-14.77,1-20.34-1.52s-10.34-6.37-15-10.23a102.83,102.83,0,0,1-12.76-11.73c-3.79-4.37-6.88-9.49-8.07-15.15A35.59,35.59,0,0,0,51.07,163.8Z" style="fill:#ebebeb"></path><path d="M104.29,160.32a53.19,53.19,0,0,1,27.9-31.09c-7.16,5.59-6.76,17.05-10,25.55-5.46,14.44-14.77,26.92-26.22,37.27C100.61,182.11,100.81,170.7,104.29,160.32Z" style="fill:#ebebeb"></path><path d="M157,135.81c-5,16.41-10.32,33.47-22.19,45.85-9.31,9.7-23.29,14-33,23.27l-.46-1C114.78,176.94,132.4,153.36,157,135.81Z" style="fill:#ebebeb"></path><path d="M58.15,195.29c14.17-.77,28.66.63,41.77,6.05l1.46,3.07c-10.47,4.78-24,10-35.46,10.07-17.2.18-32.77-10.22-49.79-12.71C30,198.92,44,196.05,58.15,195.29Z" style="fill:#ebebeb"></path><path d="M67.67,222.9c13.58-4.13,28.47-6,42.5-3.86l.51,3.28c-9,7.14-19.73,14.49-30.87,17.36-16.66,4.29-34.26-2.07-51.38-.42C41.24,233.16,54.1,227,67.67,222.9Z" style="fill:#ebebeb"></path><path d="M112.16,224c12.29-6.79,24.55-13.73,35.71-22.25s21.24-18.71,28.19-30.91A123.31,123.31,0,0,0,112,224.28" style="fill:#ebebeb"></path><path d="M127,248.39c-9.36,6.59-20.45,14.08-31.65,16.46-17.72,3.77-36-1.1-53.46-5.93,19.65-.77,37.38-13,57-14.39,9.68-.68,17.91.82,27.4,2.83" style="fill:#ebebeb"></path><path d="M63.77,140.86a5.77,5.77,0,0,1,.34.49l1,1.47c.85,1.32,2.07,3.24,3.65,5.69l1.24,2a9.68,9.68,0,0,0,1.59,2,51,51,0,0,0,4.37,3.81A44.75,44.75,0,0,1,81,160.63a35.8,35.8,0,0,1,4.62,5.91A37.52,37.52,0,0,1,89.16,174l3.13,8.36c1,2.91,2.36,5.81,3.6,8.85l1.93,4.61,2.16,4.65A316.92,316.92,0,0,0,121.69,240,327.65,327.65,0,0,0,148.74,276a336.73,336.73,0,0,0,25.71,26.36c3.93,3.46,7.4,6.71,10.67,9.3s5.94,5,8.31,6.72l5.36,4.11,1.38,1.09c.31.24.47.38.47.38s-.18-.11-.5-.34l-1.42-1-5.42-4c-2.39-1.71-5.12-4.05-8.37-6.66s-6.77-5.8-10.73-9.25a330,330,0,0,1-25.83-26.32,323.32,323.32,0,0,1-27.12-36.1,315,315,0,0,1-21.71-39.57L97.39,196c-.65-1.56-1.29-3.11-1.93-4.62-1.23-3-2.56-6-3.58-8.88s-2.11-5.69-3.1-8.38a37.29,37.29,0,0,0-3.49-7.39,35.78,35.78,0,0,0-4.55-5.88,44.84,44.84,0,0,0-5-4.38,55.9,55.9,0,0,1-4.36-3.86,11,11,0,0,1-1.6-2c-.43-.69-.84-1.35-1.22-2L65,142.88c-.39-.65-.69-1.15-.91-1.5Z" style="fill:#e0e0e0"></path><path d="M36.05,203.1a4,4,0,0,1,.64-.15l1.85-.35c1.61-.3,4-.67,6.85-1a174.26,174.26,0,0,1,45.63.18c2.9.4,5.23.79,6.84,1.1l1.85.37a3.29,3.29,0,0,1,.64.16,2.71,2.71,0,0,1-.66-.06L97.83,203c-1.62-.25-4-.58-6.86-.93a193.33,193.33,0,0,0-45.53-.19c-2.91.33-5.25.64-6.87.88l-1.86.25A3,3,0,0,1,36.05,203.1Z" style="fill:#e0e0e0"></path><path d="M51.27,236.89a4.84,4.84,0,0,1,.58-.2l1.68-.47,6.21-1.67c5.23-1.4,12.47-3.36,20.43-5.61s15.14-4.39,20.34-5.94l6.16-1.84,1.68-.48a2.61,2.61,0,0,1,.59-.13,2.2,2.2,0,0,1-.56.23l-1.65.58c-1.44.48-3.53,1.17-6.11,2-5.17,1.64-12.34,3.83-20.31,6.09s-15.22,4.16-20.48,5.47c-2.63.66-4.77,1.17-6.25,1.51l-1.7.38A2.31,2.31,0,0,1,51.27,236.89Z" style="fill:#e0e0e0"></path><path d="M155.42,187.77a2,2,0,0,1-.46.33l-1.38.86c-1.2.73-2.93,1.81-5,3.18a171.84,171.84,0,0,0-15.82,11.62,170.12,170.12,0,0,0-14.33,13.42c-1.73,1.82-3.11,3.32-4.05,4.37l-1.09,1.19a3.22,3.22,0,0,1-.41.4s.1-.17.33-.47l1-1.26c.89-1.09,2.23-2.63,3.93-4.48a146.65,146.65,0,0,1,30.22-25.1c2.14-1.34,3.89-2.37,5.13-3.05l1.43-.77A3,3,0,0,1,155.42,187.77Z" style="fill:#e0e0e0"></path><path d="M141.58,156.09c.11.09-8.87,10.83-20.05,24s-20.33,23.75-20.44,23.66,8.86-10.84,20-24S141.47,156,141.58,156.09Z" style="fill:#e0e0e0"></path><path d="M115.26,150.65a12.82,12.82,0,0,1-.56,1.7c-.39,1.09-1,2.64-1.74,4.56-1.51,3.83-3.72,9.08-6.37,14.78s-5.24,10.78-7.19,14.41c-1,1.81-1.79,3.27-2.36,4.27a10.7,10.7,0,0,1-1,1.52,13.08,13.08,0,0,1,.77-1.62l2.21-4.34c1.87-3.67,4.4-8.76,7.05-14.46s4.9-10.91,6.5-14.7c.77-1.84,1.41-3.35,1.89-4.49A12.59,12.59,0,0,1,115.26,150.65Z" style="fill:#e0e0e0"></path><path d="M65.32,174.05a6.24,6.24,0,0,1,1.15.58l3,1.75c2.57,1.48,6.14,3.51,10.11,5.67s7.61,4,10.25,5.4L93,189.06a6.21,6.21,0,0,1,1.11.65,6.25,6.25,0,0,1-1.2-.46c-.76-.33-1.86-.83-3.2-1.47-2.68-1.27-6.36-3.11-10.34-5.27s-7.52-4.25-10-5.81c-1.26-.79-2.27-1.43-3-1.89A6.37,6.37,0,0,1,65.32,174.05Z" style="fill:#e0e0e0"></path><path d="M77.37,254.24c0-.14,11-1.66,24.69-3.39s24.75-3,24.77-2.87-11,1.66-24.7,3.39S77.38,254.38,77.37,254.24Z" style="fill:#e0e0e0"></path><path d="M143.3,270.06C134.48,277.36,124,285.7,113,289c-17.37,5.15-36,1.74-53.76-1.71,19.53-2.31,36.24-15.92,55.7-18.82,9.59-1.43,17.91-.59,27.53.67" style="fill:#ebebeb"></path><path d="M94.31,279.78c0-.14,10.88-2.52,24.36-5.31s24.43-5,24.46-4.81-10.87,2.52-24.36,5.32S94.34,279.93,94.31,279.78Z" style="fill:#e0e0e0"></path><path d="M140.92,220.44c-7.3,6.39-12.61,13.7-17.88,21.85l.63.92c11.28-2,24.58-4.69,34.16-11,15.16-9.91,24.6-26.32,33.48-42.11C176.9,203.54,155.72,207.48,140.92,220.44Z" style="fill:#ebebeb"></path><path d="M163,212c.09.11-8.64,7.07-19.49,15.54s-19.73,15.25-19.82,15.13,8.64-7.07,19.5-15.54S162.86,211.93,163,212Z" style="fill:#e0e0e0"></path><path d="M165.41,254.37c-6.17,7.5-10.22,15.58-14.09,24.47l.77.81c10.8-3.8,23.48-8.63,31.92-16.36,13.35-12.25,20-30,26.2-47C198.17,231.86,177.91,239.19,165.41,254.37Z" style="fill:#ebebeb"></path><path d="M185.78,242.51c.11.1-7.38,8.38-16.71,18.5s-17,18.25-17.09,18.15,7.37-8.38,16.71-18.5S185.68,242.42,185.78,242.51Z" style="fill:#e0e0e0"></path><polygon points="457.56 65.35 470.17 67.95 457.39 69.53 454.79 82.14 453.2 69.36 440.59 66.76 453.37 65.18 455.98 52.56 457.56 65.35" style="fill:#e0e0e0"></polygon><polygon points="214.82 42.5 227.57 44.35 214.9 46.68 213.05 59.43 210.72 46.76 197.97 44.91 210.64 42.58 212.5 29.83 214.82 42.5" style="fill:#e0e0e0"></polygon><polygon points="411.48 196.66 415.71 197.58 411.43 198.06 410.6 202.29 410.03 197.99 405.8 197.07 410.07 196.59 410.9 192.37 411.48 196.66" style="fill:#e0e0e0"></polygon><polygon points="74.85 62.24 81.99 63.78 74.78 64.6 73.39 71.72 72.42 64.48 65.28 62.94 72.49 62.12 73.89 55 74.85 62.24" style="fill:#e0e0e0"></polygon><polygon points="51.99 427.84 59.13 429.38 51.92 430.2 50.52 437.32 49.55 430.08 42.41 428.54 49.63 427.72 51.02 420.6 51.99 427.84" style="fill:#e0e0e0"></polygon><path d="M402.15,49.1l3,.36-3,.63a1.89,1.89,0,0,0-1.48,1.62l-.36,3-.63-3a1.89,1.89,0,0,0-1.61-1.48l-3-.36,3-.63a1.89,1.89,0,0,0,1.48-1.62l.36-3,.63,3A1.89,1.89,0,0,0,402.15,49.1Z" style="fill:#e0e0e0"></path></g><g id="freepik--Table--inject-32"><path d="M454.73,469c0,.15-91.67.26-204.72.26S45.27,469.16,45.27,469s91.65-.26,204.74-.26S454.73,468.87,454.73,469Z" style="fill:#263238"></path></g><g id="freepik--Plant--inject-32"><path d="M404.86,252.6c-4-14.51,6.74-22.45,12.81-30.35s12.74-15.71,15.67-25.23c1.2,6,2.16,12.1,1.79,18.2s-2.19,12.25-6,17c-6.68,8.27-18.55,11.4-24.25,20.37" style="fill:#455a64"></path><path d="M441.94,236.17a102,102,0,0,1-14.79,8.39c-9.74,4.83-20.28,10.5-26.08,19.69,5.58,1.91,14.34,0,19.57-2.69s9.62-6.78,13.93-10.79a99.28,99.28,0,0,0,11.64-12.1,33.36,33.36,0,0,0,6.89-15.14A34.5,34.5,0,0,1,441.94,236.17Z" style="fill:#455a64"></path><path d="M390.29,236a51.59,51.59,0,0,0-28.84-28.39c7.25,5,7.56,16.09,11.17,24.11,6.15,13.63,15.89,25.14,27.59,34.46C395.15,256.83,394.27,245.82,390.29,236Z" style="fill:#455a64"></path><path d="M337.89,215.45c5.8,15.57,12,31.74,24.21,43,9.58,8.83,23.35,12.13,33.32,20.52l.38-1C381.14,252.69,362.69,231,337.89,215.45Z" style="fill:#455a64"></path><path d="M437,267c-13.74.11-27.67,2.33-40,8.35l-1.22,3.06c10.4,4,23.75,8.18,34.88,7.61,16.64-.86,31.07-11.84,47.37-15.27C464.39,268.85,450.73,266.92,437,267Z" style="fill:#455a64"></path><path d="M429.44,294.3c-13.37-3.19-27.88-4.07-41.32-1.19l-.3,3.2c9.15,6.37,19.95,12.82,30.89,14.93,16.36,3.15,33-4.05,49.65-3.48C455.61,302.63,442.8,297.48,429.44,294.3Z" style="fill:#455a64"></path><path d="M386.5,298.07c-12.29-5.83-24.56-11.81-35.86-19.37s-21.66-16.82-29.1-28.2a119.5,119.5,0,0,1,65.14,47.79" style="fill:#455a64"></path><path d="M373.65,322.49c9.44,5.81,20.61,12.39,31.58,14,17.36,2.58,34.75-3.22,51.34-8.94-19.05.43-36.92-10.35-56-10.5-9.39-.07-17.26,1.87-26.32,4.38" style="fill:#455a64"></path><path d="M428.29,214.74s-.08.18-.25.53l-.8,1.5-3.1,5.77c-.33.63-.69,1.29-1.06,2a9.73,9.73,0,0,1-1.43,2,51.55,51.55,0,0,1-4,4,43.31,43.31,0,0,0-4.58,4.53,34.18,34.18,0,0,0-4,6,35.76,35.76,0,0,0-2.93,7.36q-1.22,4-2.5,8.28c-.81,2.88-1.92,5.78-2.93,8.8l-1.59,4.58-1.8,4.64a303.63,303.63,0,0,1-18.61,39.56,312.5,312.5,0,0,1-24.06,36.53,318.12,318.12,0,0,1-23.39,27c-3.62,3.57-6.8,6.9-9.82,9.58s-5.49,5.14-7.7,6.94l-5,4.23-1.31,1.09c-.29.24-.45.35-.45.35s.13-.14.42-.4l1.27-1.12,4.94-4.3c2.18-1.82,4.66-4.26,7.63-7s6.16-6.05,9.76-9.63a326.51,326.51,0,0,0,23.27-27,316.87,316.87,0,0,0,24-36.49,306.23,306.23,0,0,0,18.62-39.48c.62-1.56,1.22-3.11,1.81-4.63s1.07-3.07,1.6-4.57c1-3,2.13-5.9,2.94-8.78s1.72-5.61,2.53-8.26a36.5,36.5,0,0,1,3-7.43,35.3,35.3,0,0,1,4.12-6,43.67,43.67,0,0,1,4.63-4.54,51.55,51.55,0,0,0,4-3.94,20.51,20.51,0,0,0,2.51-4l3.18-5.72.84-1.48C428.18,214.91,428.29,214.74,428.29,214.74Z" style="fill:#263238"></path><path d="M458.82,273.26a2.33,2.33,0,0,1-.63,0l-1.82-.13c-1.58-.13-3.87-.29-6.69-.43a186.6,186.6,0,0,0-44,2.91c-2.78.51-5,1-6.57,1.31l-1.79.37a2.5,2.5,0,0,1-.63.09,3.19,3.19,0,0,1,.61-.2l1.76-.46c1.53-.4,3.77-.91,6.55-1.48a168.22,168.22,0,0,1,44.1-2.91c2.83.19,5.11.4,6.69.6l1.81.23A2.28,2.28,0,0,1,458.82,273.26Z" style="fill:#263238"></path><path d="M446.13,306.84a2.2,2.2,0,0,1-.59-.06l-1.67-.26c-1.45-.23-3.54-.6-6.13-1.08-5.17-.95-12.29-2.36-20.13-4.06s-14.9-3.39-20-4.67c-2.55-.64-4.6-1.18-6-1.56l-1.63-.46a3.21,3.21,0,0,1-.56-.19,2.14,2.14,0,0,1,.58.09l1.66.36,6.06,1.4c5.12,1.19,12.19,2.82,20,4.52s14.94,3.17,20.09,4.21l6.1,1.24,1.65.36A2.32,2.32,0,0,1,446.13,306.84Z" style="fill:#263238"></path><path d="M342.5,265.6a2,2,0,0,1,.51.19l1.43.66c1.24.58,3,1.48,5.14,2.64a141.57,141.57,0,0,1,30.72,22.45c1.76,1.69,3.15,3.1,4.07,4.1l1.06,1.16a2.64,2.64,0,0,1,.35.43,2.4,2.4,0,0,1-.42-.35l-1.13-1.09c-1-1-2.39-2.33-4.18-4a163.77,163.77,0,0,0-14.66-12.11,165.62,165.62,0,0,0-16-10.29c-2.12-1.2-3.86-2.14-5.06-2.77l-1.38-.75A2.66,2.66,0,0,1,342.5,265.6Z" style="fill:#263238"></path><path d="M354,234.13c.11-.1,9.59,9.59,21.19,21.64s20.92,21.9,20.81,22-9.59-9.58-21.19-21.64S353.88,234.23,354,234.13Z" style="fill:#263238"></path><path d="M379.1,227.3a10.11,10.11,0,0,1,.82,1.53c.54,1.07,1.25,2.5,2.1,4.23,1.78,3.56,4.28,8.47,7.17,13.82s5.66,10.12,7.68,13.55l2.4,4.07a11.45,11.45,0,0,1,.83,1.52,12,12,0,0,1-1-1.42c-.62-.92-1.49-2.28-2.54-4-2.11-3.39-4.92-8.14-7.82-13.49s-5.36-10.3-7.05-13.91c-.84-1.81-1.51-3.28-1.95-4.31A12.09,12.09,0,0,1,379.1,227.3Z" style="fill:#263238"></path><path d="M428.78,246.92a5.26,5.26,0,0,1-1,.8c-.64.49-1.58,1.18-2.76,2-2.34,1.66-5.64,3.89-9.36,6.22s-7.16,4.33-9.68,5.72c-1.26.7-2.29,1.24-3,1.61a6.68,6.68,0,0,1-1.14.52,5,5,0,0,1,1-.7l2.92-1.75c2.47-1.47,5.87-3.51,9.59-5.84s7-4.5,9.43-6.08l2.84-1.87A6.85,6.85,0,0,1,428.78,246.92Z" style="fill:#263238"></path><path d="M421.94,325.17c0,.15-10.8-.43-24.11-1.28s-24.09-1.66-24.08-1.81,10.8.43,24.12,1.29S422,325,421.94,325.17Z" style="fill:#263238"></path><path d="M376.35,317.19c-11-1.25-23.87-3-33.51-8.45-15.25-8.68-25.36-24-34.89-38.7,14.73,12.09,35.44,14.62,50.53,26.26,7.44,5.74,12.43,12.12,18,19.68" style="fill:#455a64"></path><path d="M336.68,289.51c.08-.12,9.06,5.89,20.06,13.43s19.86,13.75,19.78,13.87-9.07-5.9-20.07-13.44S336.6,289.63,336.68,289.51Z" style="fill:#263238"></path></g><g id="freepik--jade-roller--inject-32"><path d="M133.68,118.81l-11.41-7.1s-20.29,15.21-33,33.37c-10.52,15-19.69,37.06-19.69,37.06l10.94,9.05A284.46,284.46,0,0,0,107.7,164C120.68,148.94,133.68,118.81,133.68,118.81Z" style="fill:#4E944F"></path><path d="M132.11,105l-2.33-1.67,2.77-3.86A6.14,6.14,0,0,0,133,93L117.23,61.81a8.35,8.35,0,0,1,12.32-10.56l31.95,22.9-1.66,2.33L127.89,53.57a5.49,5.49,0,0,0-8.1,6.94L135.6,91.75a9,9,0,0,1-.72,9.34Z" style="fill:#e0e0e0"></path><path d="M132.11,105l.3-.46c.21-.3.5-.73.89-1.28l1.43-2a9.09,9.09,0,0,0,1.45-3.08,8.84,8.84,0,0,0,0-4.23,23.17,23.17,0,0,0-2.08-4.67c-1.69-3.3-3.6-7-5.72-11.21l-6.94-13.63-1.9-3.74a5.72,5.72,0,0,1,2.69-7.76,5.74,5.74,0,0,1,4.65-.08A10.94,10.94,0,0,1,129,54l1.93,1.38,3.92,2.81,8.11,5.8L160,76.26l-.36.06L161.29,74l.06.36-1.82-1.3L129.6,51.58a8.18,8.18,0,0,0-7.79-1.13,8.13,8.13,0,0,0-5,5.65,7.93,7.93,0,0,0,0,3.75,15,15,0,0,0,1.45,3.41c1.12,2.22,2.21,4.37,3.25,6.45l10.67,21.21,1,2.07a6.28,6.28,0,0,1,.63,2.09,6.22,6.22,0,0,1-.75,3.75c-1.29,2-2.43,3.39-3.21,4.5v-.08l1.72,1.27.57.44-.58-.38c-.4-.29-1-.69-1.78-1.24l-.05,0,0,0c.76-1.11,1.89-2.6,3.14-4.53a6.12,6.12,0,0,0,.68-3.62A13,13,0,0,0,131.88,91L121.1,69.9c-1-2.08-2.15-4.23-3.27-6.44a14.81,14.81,0,0,1-1.5-3.52,8.38,8.38,0,0,1,0-3.95,8.62,8.62,0,0,1,5.28-6,8.77,8.77,0,0,1,4.23-.48,8.64,8.64,0,0,1,4,1.65l30,21.45,1.83,1.31.21.15-.15.21c-.58.8-1.15,1.59-1.67,2.33l-.15.21-.22-.15c-5.85-4.21-11.56-8.3-17.07-12.25l-8.09-5.81-3.92-2.82-1.93-1.38a10.1,10.1,0,0,0-1.93-1.23,5.33,5.33,0,0,0-4.27.07,5.25,5.25,0,0,0-2.78,3.1c-1.07,2.84,1.12,5.33,2.18,7.79,2.48,4.91,4.78,9.49,6.88,13.66s4,7.93,5.65,11.24a22.87,22.87,0,0,1,2.06,4.74,9.1,9.1,0,0,1-1.61,7.46l-1.5,2-.93,1.24Z" style="fill:#263238"></path><path d="M138.85,109.8l-2.32-1.67,2.77-3.87a9,9,0,0,1,8.62-3.68l34.66,4.94a5.43,5.43,0,0,0,5.23-2.23,5.49,5.49,0,0,0-1.26-7.66l-32-22.91,1.67-2.32,31.95,22.9a8.35,8.35,0,0,1-6.05,15.06l-34.65-5a6.16,6.16,0,0,0-5.89,2.52Z" style="fill:#e0e0e0"></path><path d="M138.85,109.8s.11-.18.32-.48l.94-1.35,1.51-2.16a6.23,6.23,0,0,1,2.9-2.19,6.47,6.47,0,0,1,2.15-.38,22.53,22.53,0,0,1,2.38.27l5.36.74,13.06,1.82,7.59,1.07,4,.57,2.08.29a16.85,16.85,0,0,0,2.1.23A8.12,8.12,0,0,0,190,95.39a13.7,13.7,0,0,0-3.63-3.14l-4.08-2.92-8.42-6L156.11,70.61l.37-.06-.36.49c-.44.63-.89,1.25-1.31,1.83l-.06-.36c10.31,7.4,20.19,14.48,29.33,21l1.71,1.22a11.93,11.93,0,0,1,1.66,1.31,5.73,5.73,0,0,1,.27,7.69,5.7,5.7,0,0,1-3.47,2,5.92,5.92,0,0,1-2,0l-1.87-.27-3.65-.53-7-1-12.54-1.82-5.49-.8-2.54-.37a20.49,20.49,0,0,0-2.38-.28,8.88,8.88,0,0,0-7,3.18c-1.36,1.79-2.41,3.29-3.2,4.35l0-.08,1.72,1.28c.38.28.57.44.57.44l-.57-.39-1.79-1.23,0,0,0,0c.77-1.08,1.79-2.58,3.15-4.41a9.07,9.07,0,0,1,7.2-3.32,20.31,20.31,0,0,1,2.42.26l2.53.35,5.5.77,12.55,1.76,7,1,3.66.51,1.87.27a5.92,5.92,0,0,0,1.83,0A5.26,5.26,0,0,0,188.6,100a5.32,5.32,0,0,0-1.49-3.52,12,12,0,0,0-1.6-1.25L183.8,94l-29.35-21-.21-.15.15-.21,1.31-1.83.35-.5.16-.21.21.15c6.06,4.36,12,8.6,17.7,12.7l8.42,6,4.08,2.93c.67.49,1.34,1,2,1.46a8.48,8.48,0,0,1,1.73,1.81,8.58,8.58,0,0,1-7.08,13.54,16.63,16.63,0,0,1-2.15-.24l-2.07-.3-4-.58-7.59-1.1-13-1.9-5.35-.79a23.5,23.5,0,0,0-2.35-.29,6.19,6.19,0,0,0-2.09.35,6,6,0,0,0-2.83,2.09l-1.59,2.16-1,1.31C139,109.66,138.85,109.8,138.85,109.8Z" style="fill:#263238"></path><path d="M70.38,197.05l1.72,1.24L70,201.16a4.58,4.58,0,0,0-.36,4.73L81.4,229.05a6.19,6.19,0,0,1-9.13,7.83l-23.69-17,1.23-1.72,23.7,17a4.07,4.07,0,0,0,6-5.15L67.79,206.85a6.67,6.67,0,0,1,.53-6.93Z" style="fill:#e0e0e0"></path><path d="M70.38,197.05l-.23.35-.65.95-1.06,1.53a6.74,6.74,0,0,0-1.06,2.27,6.59,6.59,0,0,0,0,3.13,16.84,16.84,0,0,0,1.55,3.45L73.15,217l5.14,10.1c.47.91.94,1.84,1.42,2.78a4.3,4.3,0,0,1-5.52,5.89,7.43,7.43,0,0,1-1.51-.95l-1.43-1-2.91-2.08-6-4.3-12.67-9.07.36-.06-1.23,1.72-.06-.36,1.35,1,22.19,15.93a6,6,0,0,0,9.4-3.32,5.82,5.82,0,0,0,0-2.75A10.91,10.91,0,0,0,80.63,228l-2.41-4.79-7.89-15.73c-.26-.53-.52-1-.77-1.53a4.85,4.85,0,0,1-.46-1.57,4.63,4.63,0,0,1,.56-2.79c1-1.45,1.81-2.52,2.39-3.33l0,.08-1.27-1-.42-.34.42.28,1.33.91.05,0,0,0c-.56.83-1.4,1.94-2.32,3.36a4.44,4.44,0,0,0-.49,2.67,9.47,9.47,0,0,0,1.24,3c2.15,4.22,4.86,9.53,8,15.67q1.19,2.31,2.43,4.77a11.43,11.43,0,0,1,1.12,2.62,6.3,6.3,0,0,1,0,3,6.45,6.45,0,0,1-4,4.48,6.66,6.66,0,0,1-3.17.36A6.41,6.41,0,0,1,72,237l-22.21-15.9-1.35-1-.22-.15.16-.21L49.6,218l.15-.21L50,218l12.65,9.09,6,4.31,2.9,2.09,1.43,1a7.71,7.71,0,0,0,1.42.91,3.86,3.86,0,0,0,5.15-2.31c.78-2.07-.82-3.91-1.61-5.74l-5.1-10.13-4.18-8.34a17.23,17.23,0,0,1-1.53-3.53,6.71,6.71,0,0,1,.08-3.23,6.92,6.92,0,0,1,1.13-2.31l1.13-1.53.69-.91A2.44,2.44,0,0,1,70.38,197.05Z" style="fill:#263238"></path><path d="M65.37,193.47l1.73,1.23L65,197.57a6.66,6.66,0,0,1-6.39,2.73L33,196.64A4.07,4.07,0,0,0,30,204L53.7,221l-1.24,1.72-23.69-17a6.2,6.2,0,0,1,4.48-11.17L59,198.2a4.58,4.58,0,0,0,4.37-1.86Z" style="fill:#e0e0e0"></path><path d="M65.37,193.47l-.23.36-.69,1-1.11,1.61a4.63,4.63,0,0,1-2.16,1.63,4.84,4.84,0,0,1-1.6.29,16.16,16.16,0,0,1-1.78-.2l-4-.54-9.68-1.35-5.63-.78-3-.42c-1-.12-2.08-.34-3.09-.38a6,6,0,0,0-4.9,9.42,10.07,10.07,0,0,0,2.67,2.32l3,2.16,6.25,4.47,13.13,9.41-.36.06.26-.37,1-1.35.06.36L31.8,205.56l-1.27-.91a8.59,8.59,0,0,1-1.24-1,4.3,4.3,0,0,1,2.41-7.25,4.89,4.89,0,0,1,1.48,0l1.38.2,2.71.4,5.18.75c6.68,1,12.46,1.87,17,2.44a6.58,6.58,0,0,0,5.21-2.34c1-1.32,1.79-2.44,2.38-3.22v.08c-.55-.41-1-.72-1.26-.95l-.43-.33.43.27,1.33.92.05,0,0,.05c-.57.8-1.31,1.92-2.32,3.28a6.77,6.77,0,0,1-5.36,2.48c-4.63-.53-10.36-1.4-17.06-2.31l-5.19-.73-2.71-.38a9.8,9.8,0,0,0-2.73-.21,3.82,3.82,0,0,0-3.22,3.9,3.85,3.85,0,0,0,1.08,2.57,9.46,9.46,0,0,0,1.18.92l1.27.9,21.77,15.59.21.15-.15.21-1,1.36-.27.37-.15.21-.21-.15-13.13-9.42L32.94,209l-3-2.18c-.5-.36-1-.69-1.49-1.08a6.35,6.35,0,0,1-1.29-1.35,6.42,6.42,0,0,1,5.3-10.13c1.12.05,2.11.27,3.14.4l3,.43,5.63.82,9.67,1.42,4,.59a16.43,16.43,0,0,0,1.74.21,4.2,4.2,0,0,0,1.53-.25c1.93-.67,2.58-2.37,3.29-3.14l.73-1A2.56,2.56,0,0,1,65.37,193.47Z" style="fill:#263238"></path><path d="M137.59,47.79l-8.39,11.7q15,31.16,52.87,37.89l8.38-11.69C179.16,65.83,161.83,52.87,137.59,47.79Z" style="fill:#4E944F"></path><path d="M38.27,205.18l-6.77,9.44c6.41,12.58,17.18,19.73,31.44,22.55l6.77-9.45C62.61,215.71,52.41,207.82,38.27,205.18Z" style="fill:#4E944F"></path><g style="opacity:0.2"><path d="M147.91,64c3.7,1.14,6.8,3.7,10.4,5.14a15.85,15.85,0,0,0,10.32.65,12.87,12.87,0,0,0,6.06-3.93,68.93,68.93,0,0,0-6.48-5.17,9,9,0,0,1-4.1,3c-2.27.75-4.75.28-7.07-.28-2.79-.67-5.68-1.54-7.74-3.54-2.52-2.43-3.36-6.09-3.86-9.56l-.09-.61q-3.75-1.12-7.76-2l-8.39,11.7a70.8,70.8,0,0,0,4.44,7.89,14.33,14.33,0,0,1,3.78-2.61A14.73,14.73,0,0,1,147.91,64Z" style="fill:#fff"></path></g><g style="opacity:0.2"><path d="M179.43,70.54a12.58,12.58,0,0,1-6.64,6.36c-3.15,1.24-6.66,1.13-10,1.9a19.38,19.38,0,0,0-10.89,7.12,74.65,74.65,0,0,0,22.4,9.76c2.16-3.49,3.45-7.48,5.75-10.88A27.12,27.12,0,0,1,186,78.66,77.64,77.64,0,0,0,179.43,70.54Z" style="fill:#fff"></path></g><g style="opacity:0.2"><path d="M109.58,133.72c3.78-1,6.84-3.8,10.58-4.88a15.64,15.64,0,0,1,8.73.28c3-6.08,4.79-10.31,4.79-10.31l-5.77-3.59a7.91,7.91,0,0,0-4.38,2c-2.27,2.21-2.61,6.1-5.33,7.73-2.31,1.38-5.3.48-7.69-.76-.59-.3-1.16-.62-1.72-1-2.9,2.7-6,5.78-9.11,9.11A14.3,14.3,0,0,0,109.58,133.72Z" style="fill:#fff"></path></g><g style="opacity:0.2"><path d="M122.21,138.63c-7.3,3.16-12.31,10-18.95,14.36-3.27,2.17-7.12,3.76-11,3.49A16.31,16.31,0,0,1,84,153.27c-1.36,2.3-2.67,4.64-3.91,6.93a19.5,19.5,0,0,1,10.66,3c3.38,2.32,5.62,5.92,8.5,8.84.19.2.4.39.61.58,1.49-1.57,3-3.21,4.53-4.9a5.11,5.11,0,0,1-.76-2.47c-.09-2.7,2.06-4.92,4.2-6.58a44.14,44.14,0,0,1,7.08-4.46c3.47-5.3,6.76-11.1,9.58-16.44A19,19,0,0,0,122.21,138.63Z" style="fill:#fff"></path></g><g style="opacity:0.2"><path d="M80.31,173.71a22.23,22.23,0,0,0-6.48-1c-.78,1.65-1.47,3.14-2.06,4.44a14.05,14.05,0,0,1,4.22,1.3c3.67,1.83,6.23,5.38,7.77,9.17l.2.56c1.68-1.52,3.88-3.54,6.41-6A16.94,16.94,0,0,0,80.31,173.71Z" style="fill:#fff"></path></g><g style="clip-path:url(#freepik--clip-path--inject-32)"><g style="opacity:0.2"><path d="M50.58,207.33c3.55,5.16,5.82,11.46,5,17.67s-5.2,12.14-11.3,13.57c-3.53.83-7.22.15-10.84,0s-7.6.27-10.18,2.82a4.59,4.59,0,0,0-1.53,3,6.44,6.44,0,0,0,.88,3l7,14.57a33.24,33.24,0,0,1,5.64-9.08c2.94-3.18,6.76-5.39,10.59-7.43s7.74-4,11.07-6.74,6.07-6.52,6.65-10.82c.61-4.54-1.21-9-2.71-13.33s-2.68-9.19-.88-13.4l-9.1,5" style="fill:#fff"></path></g><g style="opacity:0.2"><path d="M37.64,171.79c5.17,3.53,9.56,8.59,11,14.68S48.2,199.67,43,203.2c-3,2.05-6.68,2.74-10.13,3.87s-7,3-8.48,6.3a4.66,4.66,0,0,0-.34,3.37,6.55,6.55,0,0,0,1.9,2.48l11.75,11.07a32.85,32.85,0,0,1,2-10.5c1.6-4,4.36-7.47,7.19-10.74s5.79-6.51,7.9-10.29,3.3-8.27,2.3-12.48c-1.06-4.46-4.37-8-7.33-11.47s-5.82-7.59-5.66-12.17l-6.68,8" style="fill:#fff"></path></g></g><rect x="63.28" y="182.71" width="15.78" height="20.34" rx="5.22" transform="translate(-127.06 138.35) rotate(-54.36)" style="fill:#e0e0e0"></rect><path d="M70.59,202.18a7,7,0,0,0,2.3.81,5.13,5.13,0,0,0,2.78-.41,5.35,5.35,0,0,0,1.45-1A9.94,9.94,0,0,0,78.35,200c.81-1.17,1.75-2.45,2.67-3.82a5,5,0,0,0,.13-4.91,5.34,5.34,0,0,0-1.9-2l-2.47-1.76L71.6,183.8a5,5,0,0,0-5.69-.07A7.57,7.57,0,0,0,64,185.91l-1.7,2.36a8.83,8.83,0,0,0-1.39,2.29,5.11,5.11,0,0,0-.21,2.47,5.21,5.21,0,0,0,.9,2.13,6.41,6.41,0,0,0,1.61,1.47l5.46,4,1.47,1.12a2.74,2.74,0,0,1,.49.42,3.15,3.15,0,0,1-.55-.34l-1.53-1L63,196.93a6.82,6.82,0,0,1-1.72-1.53,5.45,5.45,0,0,1-.81-5A9.45,9.45,0,0,1,61.87,188l1.69-2.37a8,8,0,0,1,2.06-2.31,5.51,5.51,0,0,1,6.28.06l5.18,3.72,2.46,1.77a5.93,5.93,0,0,1,2,2.19,5.41,5.41,0,0,1-.18,5.35c-1,1.42-1.9,2.65-2.74,3.82a12.19,12.19,0,0,1-1.3,1.61,5.39,5.39,0,0,1-1.56,1,5.15,5.15,0,0,1-4.68-.28,3,3,0,0,1-.39-.27Z" style="fill:#263238"></path><rect x="123.78" y="100.4" width="15.78" height="19.24" rx="5.83" transform="translate(-34.45 152.93) rotate(-54.37)" style="fill:#e0e0e0"></rect><path d="M130.16,118.64a8.47,8.47,0,0,0,2.16.85,5.9,5.9,0,0,0,2.68-.1,5.65,5.65,0,0,0,2.92-1.93c.8-1.07,1.65-2.31,2.57-3.61a5.58,5.58,0,0,0,.88-4.66,5.44,5.44,0,0,0-1.22-2.31,12.59,12.59,0,0,0-2.19-1.76L133,101.6a5.59,5.59,0,0,0-5.5-.56,5.35,5.35,0,0,0-2.14,1.67c-.56.73-1.09,1.5-1.62,2.22a18.25,18.25,0,0,0-1.44,2.14,5.76,5.76,0,0,0-.56,2.3,5.68,5.68,0,0,0,1.45,3.92,9.27,9.27,0,0,0,1.46,1.22l1.39,1,2.22,1.65,1.39,1.06a2.13,2.13,0,0,1,.47.4,3.71,3.71,0,0,1-.53-.32l-1.45-1-2.27-1.57-1.42-1a9.36,9.36,0,0,1-1.53-1.24,6,6,0,0,1-1-6.67,18.08,18.08,0,0,1,1.46-2.22c.53-.73,1-1.48,1.61-2.25a6,6,0,0,1,2.34-1.83,6.09,6.09,0,0,1,6,.61l4.91,3.53,1.18.85a6,6,0,0,1,1.41,8.54c-.94,1.29-1.79,2.5-2.63,3.59a5.92,5.92,0,0,1-5.93,2,5.66,5.66,0,0,1-1.63-.68A2.67,2.67,0,0,1,130.16,118.64Z" style="fill:#263238"></path><path d="M133.22,117.05c-1-.58-.77-2.94.56-5.26s3.23-3.73,4.25-3.15.77,2.94-.55,5.26S134.25,117.63,133.22,117.05Z" style="fill:#fff"></path><path d="M72.7,201.36c-.91-.76-.1-3.21,1.64-5.59s3.85-3.89,4.84-3.26.44,3.27-1.4,5.77S73.6,202.11,72.7,201.36Z" style="fill:#fff"></path><path d="M63.22,224.93c-.07.06-1-1.13-2.68-2.9a51.66,51.66,0,0,0-7.13-6.27,51.47,51.47,0,0,0-8.19-4.8c-2.2-1-3.62-1.55-3.59-1.64a4.77,4.77,0,0,1,1,.28c.65.2,1.58.54,2.72,1a43.17,43.17,0,0,1,15.43,11.16c.81.92,1.43,1.7,1.83,2.26A4.42,4.42,0,0,1,63.22,224.93Z" style="fill:#fff"></path><path d="M123.28,134.08a3.31,3.31,0,0,1-.24.6c-.19.44-.45,1-.76,1.71s-.76,1.64-1.29,2.66-1.09,2.21-1.8,3.47c-1.37,2.57-3.12,5.55-5.19,8.78s-4.51,6.69-7.23,10.18-5.52,6.66-8.15,9.47-5.12,5.2-7.28,7.14c-1.06,1-2.07,1.83-2.94,2.58s-1.64,1.39-2.28,1.89l-1.46,1.15a3.62,3.62,0,0,1-.54.38,2.49,2.49,0,0,1,.47-.46L86,182.4c.62-.52,1.37-1.17,2.22-2s1.84-1.63,2.88-2.63c2.12-2,4.56-4.41,7.18-7.2s5.36-6,8.09-9.46,5.13-6.92,7.24-10.12,3.86-6.16,5.26-8.69c.73-1.25,1.33-2.42,1.87-3.43s1-1.9,1.36-2.62.64-1.23.86-1.66A2.5,2.5,0,0,1,123.28,134.08Z" style="fill:#fff"></path><path d="M127.78,125.92a4.39,4.39,0,0,1-1,2.4c-.8,1.21-1.76,1.93-1.85,1.83a13.21,13.21,0,0,1,1.42-2.12A13.21,13.21,0,0,1,127.78,125.92Z" style="fill:#fff"></path><path d="M184.33,81.57s-.14-.12-.37-.4L183,80c-.41-.52-.92-1.16-1.54-1.88s-1.3-1.56-2.12-2.43-1.69-1.85-2.69-2.83-2.09-2-3.24-3.1a90.71,90.71,0,0,0-8-6.4A89,89,0,0,0,156.61,58c-1.4-.72-2.73-1.42-4-2s-2.47-1.11-3.58-1.56-2.12-.82-3-1.16-1.66-.6-2.3-.8l-1.46-.5a2.15,2.15,0,0,1-.5-.21,1.86,1.86,0,0,1,.53.11l1.49.4c.65.18,1.44.41,2.34.73s1.94.63,3.05,1.09,2.34.91,3.62,1.5,2.65,1.24,4.07,2a84.36,84.36,0,0,1,8.84,5.35,85.11,85.11,0,0,1,8,6.46c1.16,1.1,2.26,2.12,3.23,3.16s1.86,2,2.65,2.89,1.47,1.75,2.07,2.49,1.1,1.39,1.48,1.94l.9,1.26A3,3,0,0,1,184.33,81.57Z" style="fill:#fff"></path></g><g id="freepik--gua-sha--inject-32"><path d="M443.41,128c-8.09-19.67-23.77-35.43-41.31-47.46-6.89-4.73-15.11-9.14-23.23-7.19-5.92,1.43-10.7,6.19-13,11.8-1.5,3.61-1.64,8.16-1.23,12.53a17.2,17.2,0,0,1-3.92,12.41,31.54,31.54,0,0,0-4.08,6.23c-2.14,4.46-2.77,9.94-.42,14.29s7,6.7,11.47,8.75A297.91,297.91,0,0,0,420.1,158c6.23,1.55,13.21,2.78,18.79-.42,4.74-2.72,7.39-8.23,7.79-13.69S445.49,133,443.41,128Z" style="fill:#4E944F"></path><g style="opacity:0.2"><path d="M393.33,136.29c.91-4.78-.68-9.65-.94-14.51A26.82,26.82,0,0,1,398,104c2.42-3.08,5.52-5.64,7.48-9a18.67,18.67,0,0,0,2.3-10.35q-2.81-2.12-5.7-4.1c-1.8-1.24-3.68-2.45-5.63-3.53a20,20,0,0,1,2.88,14.18c-.75,4-3.38,8.18-7.43,8.69-2.58.32-5.08-.93-7.27-2.33A44.16,44.16,0,0,1,369,79.9a21.69,21.69,0,0,0-3.12,5.23A17.73,17.73,0,0,0,364.76,89c6.33,4.78,12.48,9.92,16.65,16.62,4.88,7.85,6.49,18.46,1.5,26.25-2.69,4.18-6.83,7-11.36,9.22q7.51,3.35,15.18,6.31C389.78,144.19,392.51,140.58,393.33,136.29Z" style="fill:#fff"></path></g><g style="opacity:0.2"><path d="M445.15,132.76c-.5-1.62-1.09-3.22-1.74-4.78-.52-1.26-1.06-2.5-1.64-3.72l-1.17,1.51c-2.44,3.15-5.49,6.6-9.47,6.51a7.92,7.92,0,0,1-6.22-3.79,13.6,13.6,0,0,1-1.87-7.24,21.51,21.51,0,0,1,6.66-15.53l.18-.15a115,115,0,0,0-10.45-11.19,22.88,22.88,0,0,0-7.27,8.49c-2.39,5.07-2.36,10.94-1.6,16.49s2.22,11,2.55,16.59a41.59,41.59,0,0,1-3.58,19.2q5.25,1.53,10.57,2.86c.78.2,1.58.39,2.38.57a20.26,20.26,0,0,1,3.44-8.56c3-4,7.53-6.51,11.5-9.57A44,44,0,0,0,445.15,132.76Z" style="fill:#fff"></path></g><g style="opacity:0.2"><path d="M365.09,129.53c4.77-.92,9-5.33,8.55-10.17-.34-3.74-3.18-6.77-6.19-9-1.54-1.16-3.18-2.22-4.73-3.37a18.11,18.11,0,0,1-2,3.11,31.54,31.54,0,0,0-4.08,6.23,17.38,17.38,0,0,0-1.49,11.5A15.65,15.65,0,0,0,365.09,129.53Z" style="fill:#fff"></path></g><path d="M436.47,130.32a5.64,5.64,0,0,1-.35-.71l-.93-2.06-.66-1.49c-.25-.54-.55-1.11-.86-1.73-.64-1.23-1.3-2.67-2.2-4.17-.43-.77-.88-1.56-1.36-2.39s-1-1.64-1.58-2.51c-1.07-1.76-2.39-3.52-3.73-5.4A92.75,92.75,0,0,0,403.28,89c-1.92-1.28-3.72-2.53-5.51-3.54C396.88,85,396,84.44,395.2,84l-2.43-1.27c-1.53-.85-3-1.47-4.25-2.06-.63-.29-1.21-.57-1.76-.81l-1.51-.61-2.08-.85a5.85,5.85,0,0,1-.72-.33,3.6,3.6,0,0,1,.75.23l2.13.77,1.53.56c.55.22,1.14.5,1.78.77,1.27.58,2.75,1.16,4.3,2l2.45,1.25c.85.44,1.7,1,2.59,1.49,1.81,1,3.64,2.24,5.58,3.52a90.8,90.8,0,0,1,21.63,20.92c1.34,1.9,2.64,3.68,3.7,5.45.54.88,1.1,1.71,1.57,2.55l1.33,2.41c.89,1.52,1.53,3,2.14,4.22.3.63.59,1.21.83,1.76s.43,1.05.62,1.51c.35.88.63,1.58.83,2.1A3.63,3.63,0,0,1,436.47,130.32Z" style="fill:#fff"></path><path d="M440.83,145.37c-.15,0,0-1.74-.36-3.81s-1.14-3.63-1-3.7a7.06,7.06,0,0,1,1.52,3.6A7,7,0,0,1,440.83,145.37Z" style="fill:#fff"></path></g><g id="freepik--Sparkles--inject-32"><polygon points="387.75 175.81 396.48 176.85 387.88 178.66 386.83 187.39 385.02 178.79 376.3 177.74 384.9 175.93 385.94 167.21 387.75 175.81" style="fill:#4E944F"></polygon><polygon points="317.63 51.78 326.36 52.82 317.76 54.63 316.71 63.36 314.9 54.76 306.18 53.72 314.78 51.91 315.82 43.18 317.63 51.78" style="fill:#4E944F"></polygon><polygon points="126.49 445.99 135.17 447.35 126.51 448.84 125.15 457.52 123.66 448.86 114.97 447.5 123.63 446.01 124.99 437.32 126.49 445.99" style="fill:#4E944F"></polygon><polygon points="161.08 145.18 170.76 146.33 161.22 148.34 160.06 158.02 158.05 148.48 148.38 147.32 157.91 145.32 159.07 135.64 161.08 145.18" style="fill:#4E944F"></polygon><polygon points="70.11 110.37 65.89 111.09 65.21 115.31 64.5 111.09 60.28 110.41 64.5 109.7 65.17 105.48 65.89 109.69 70.11 110.37" style="fill:#4E944F"></polygon><polygon points="100.96 412.48 96.73 413.1 95.96 417.31 95.34 413.08 91.13 412.31 95.37 411.69 96.14 407.48 96.76 411.71 100.96 412.48" style="fill:#4E944F"></polygon><polygon points="152.71 163.65 148.52 164.53 148.01 168.78 147.13 164.59 142.89 164.09 147.07 163.21 147.58 158.96 148.46 163.14 152.71 163.65" style="fill:#4E944F"></polygon><polygon points="440.2 357.91 435.97 358.54 435.21 362.75 434.58 358.52 430.37 357.76 434.6 357.13 435.36 352.92 435.99 357.15 440.2 357.91" style="fill:#4E944F"></polygon></g><g id="freepik--Character--inject-32"><path d="M104.8,306.34s16.55-4.92,25,5.37l14.76-1.34s-.45-5.71,7.83-5.2,12-.37,12-.37l1.37-1,19.39,107s-68.48-9.92-90.6-16.25c-11-3.15-32.53-12.76-42-17.1a13.47,13.47,0,0,1-7.82-13.14c.57-8.59,3-21.29,11.72-31.33C71,316.18,104.8,306.34,104.8,306.34Z" style="fill:#4E944F"></path><g style="opacity:0.30000000000000004"><path d="M79.89,354.41A48.14,48.14,0,0,0,62.78,339.1l-7.55,1.63a45.78,45.78,0,0,0-6.63,26.19c.11,2,.49,4.32,2.13,5.55s3.77,1,5.7.6a70.53,70.53,0,0,0,20.44-7.82c2.14-1.18,4.45-2.71,4.9-5.11C82.15,358.11,81.06,356.12,79.89,354.41Z"></path></g><path d="M77.25,365s-25.87-15.11-25.72-34.22c.16-19.44,28.93-40.58,49.85-55.75C121.66,260.32,168,232,168,232l26.4,13.46-85.87,90.8L96.29,348.05h0Z" style="fill:#ffbf9d"></path><path d="M121.62,363.18a2.27,2.27,0,0,1,.08-.49c.09-.37.19-.83.32-1.38.31-1.27.71-3,1.21-5.06,1-4.27,2.25-10.21,3.2-16.84s1.4-12.68,1.64-17.07c.1-2.13.19-3.89.25-5.19,0-.57.06-1,.08-1.42a2.16,2.16,0,0,1,.06-.49,1.51,1.51,0,0,1,0,.5c0,.38,0,.85,0,1.41,0,1.23,0,3-.09,5.21a162.6,162.6,0,0,1-1.5,17.12,164.43,164.43,0,0,1-3.35,16.86c-.55,2.13-1,3.85-1.37,5-.17.54-.3,1-.42,1.36S121.64,363.19,121.62,363.18Z" style="fill:#263238"></path><path d="M122.53,320.63a1.17,1.17,0,0,1-.14.2l-.45.57-1.75,2.13c-1.55,1.84-3.8,4.48-6.67,7.67a292.36,292.36,0,0,1-23.76,23.65c-2.46,2.17-4.89,4.26-7.27,6.22-1.18,1-2.37,1.94-3.52,2.88a27.42,27.42,0,0,1-3.58,2.53A53.94,53.94,0,0,1,68.1,370c-2.35.93-4.57,1.71-6.64,2.32a25.69,25.69,0,0,1-10.12.85,20.93,20.93,0,0,1-2.71-.57l-.69-.23a.73.73,0,0,1-.22-.09l.24,0,.7.18a23,23,0,0,0,2.71.46,25.75,25.75,0,0,0,10-1c2-.62,4.26-1.42,6.59-2.36a53.85,53.85,0,0,0,7.2-3.5,26.7,26.7,0,0,0,3.52-2.51c1.14-.94,2.33-1.88,3.51-2.88q3.56-3,7.24-6.22A324,324,0,0,0,113.25,331c2.9-3.15,5.19-5.76,6.78-7.55l1.83-2.07.49-.53C122.46,320.68,122.52,320.62,122.53,320.63Z" style="fill:#263238"></path><path d="M100.93,386.68c-.12.08-.89-.85-1.71-2.09a7.5,7.5,0,0,1-1.28-2.38c.12-.08.89.86,1.71,2.09A7.24,7.24,0,0,1,100.93,386.68Z" style="fill:#263238"></path><path d="M104.9,381.71a6,6,0,0,1-2.14-1.28c-1.1-.82-1.92-1.58-1.83-1.7a6.37,6.37,0,0,1,2.14,1.28C104.17,380.84,105,381.6,104.9,381.71Z" style="fill:#263238"></path><path d="M108.38,378.73a6.52,6.52,0,0,1-2.36-1,6.61,6.61,0,0,1-2.11-1.47,6.45,6.45,0,0,1,2.36,1A6.61,6.61,0,0,1,108.38,378.73Z" style="fill:#263238"></path><path d="M147.12,360.52a6.49,6.49,0,0,1-2.54-.22,6.39,6.39,0,0,1-2.44-.73,6.49,6.49,0,0,1,2.54.22A6.39,6.39,0,0,1,147.12,360.52Z" style="fill:#263238"></path><path d="M146.66,355.87a6.06,6.06,0,0,1-2.35-.76,6.19,6.19,0,0,1-2.13-1.23,6.06,6.06,0,0,1,2.35.76A5.9,5.9,0,0,1,146.66,355.87Z" style="fill:#263238"></path><path d="M149.14,352.88c-.1.11-1-.59-1.92-1.55s-1.66-1.82-1.56-1.92,1,.59,1.93,1.55S149.24,352.78,149.14,352.88Z" style="fill:#263238"></path><path d="M326.82,128.08C325.4,112,322.07,94.69,310.27,83.6c-10.64-10-26-12.9-40.58-14.21-10.82-1-22.25-1.22-32,3.63-7.5,3.74-13.34,10.24-17.62,17.45l-8,25.76c-8.53,8.37-13.65,19.75-16.08,31.45-5.48,26.47,3,55.65,22.6,74.31l99.68-11.72c5.59-3,7.24-20.41,8.2-26.68,1.48-9.73,1.34-17.24,1.44-23.58A306.47,306.47,0,0,0,326.82,128.08Z" style="fill:#e0e0e0"></path><path d="M208.2,202.72c-2-30.54,15.24-56.13,48.73-77.77l62,91c2,5.77,2,11.73,2,17.64q-.06,32.32-.11,64.66a722.56,722.56,0,0,1-106.2-.44C205,268,210.59,239.64,208.2,202.72Z" style="fill:#e0e0e0"></path><g style="opacity:0.30000000000000004"><path d="M280,264.44l1.28-22.18,36.35-12.44a39.15,39.15,0,0,1-14.69,28.3c-3.08,2.42-6.67,4.52-8.51,8-1.15,2.18-1.49,4.69-2,7.12-1.15,5.83-5.64,21.41-7.68,27l-8-3.85Z"></path></g><path d="M206.32,149.2c2.16-12.88,8.27-19.41,18.07-28,11.19-9.85,27.05-15.5,41.95-15.87,15.71-.4,25.06-.22,37.32,9.62,6.8,5.45,11.21,13.3,14.75,21.26,8.18,18.38,4.56,39.12,2.06,59.09s-4.38,39.07-20.72,50.81l-68.69-10.64c-15.16-5.62-20.21-22.93-24.5-38.51S203.64,165.14,206.32,149.2Z" style="fill:#263238"></path><path d="M320.47,162c-1.09-15.21-29.53-38.11-48.37-36.34l-11.47,3.65a48.57,48.57,0,0,0-40,45.47L225,191.25l-.55,104.22c12.77,3.5,25,63.21,38.82,64.07,6.7.42,21.55-57.27,21.55-57.27l2.43-42.77s26.75-3.8,32.12-35.2C322,208.68,322,183,320.47,162Z" style="fill:#ffbf9d"></path><path d="M307,189.63a4,4,0,0,1-3.94,4,3.85,3.85,0,0,1-4.11-3.69,4,4,0,0,1,3.93-4A3.86,3.86,0,0,1,307,189.63Z" style="fill:#263238"></path><path d="M313.65,175.31c-.5.52-3.53-1.78-7.88-1.82s-7.55,2.09-8,1.55c-.23-.24.29-1.18,1.69-2.18a11.11,11.11,0,0,1,6.43-1.89,10.7,10.7,0,0,1,6.26,2.1C313.46,174.12,313.9,175.07,313.65,175.31Z" style="fill:#263238"></path><path d="M268.07,189.63a4,4,0,0,1-3.94,4A3.86,3.86,0,0,1,260,190a4,4,0,0,1,3.93-4A3.86,3.86,0,0,1,268.07,189.63Z" style="fill:#263238"></path><path d="M271,175.6c-.51.52-3.54-1.78-7.88-1.82s-7.56,2.09-8,1.56c-.23-.24.29-1.19,1.69-2.18a11.11,11.11,0,0,1,6.43-1.9,10.67,10.67,0,0,1,6.26,2.11C270.76,174.41,271.2,175.37,271,175.6Z" style="fill:#263238"></path><path d="M286.33,208c0-.25,2.69-.68,7.07-1.19,1.11-.1,2.16-.31,2.36-1.06s-.18-2-.7-3.3L291.88,194c-4.41-12.08-7.59-22-7.1-22.18s4.46,9.48,8.87,21.55l3,8.54c.4,1.26,1.1,2.7.52,4.36a2.82,2.82,0,0,1-1.85,1.6,7.5,7.5,0,0,1-1.88.23C289.07,208.26,286.34,208.24,286.33,208Z" style="fill:#263238"></path><path d="M287.22,259.5s-22.27,1-43.09-11.83c0,0,10,22.19,42.64,19.7Z" style="fill:#ff9a6c"></path><path d="M284.37,218.44a7.84,7.84,0,0,0-7-3,7.15,7.15,0,0,0-5,2.59,4.54,4.54,0,0,0-.41,5.17c1.16,1.66,3.6,2.07,5.68,1.51a16.52,16.52,0,0,0,5.59-3.25,4.91,4.91,0,0,0,1.26-1.27,1.43,1.43,0,0,0,0-1.61" style="fill:#ff9a6c"></path><path d="M273.51,210.85c.71,0,.66,4.68,4.66,8.07s9,2.94,9,3.6c.07.3-1.13.9-3.25.93a11.67,11.67,0,0,1-7.55-2.73,10.17,10.17,0,0,1-3.6-6.77C272.65,212,273.19,210.82,273.51,210.85Z" style="fill:#263238"></path><path d="M272.08,161.34c-.44,1.17-4.77.56-9.88,1.11s-9.24,1.89-9.9.83c-.29-.51.43-1.61,2.11-2.74a17.26,17.26,0,0,1,15.07-1.48C271.34,159.84,272.27,160.78,272.08,161.34Z" style="fill:#263238"></path><path d="M313.7,160.41c-.77,1-3.75-.08-7.35-.17s-6.65.58-7.34-.46c-.3-.51.19-1.49,1.53-2.41a10.67,10.67,0,0,1,11.84.51C313.64,158.91,314.05,159.93,313.7,160.41Z" style="fill:#263238"></path><path d="M227.78,207.15c-.49-6.84-8.05-11.25-13.91-7.69-3.22,1.95-5.63,5.79-5.18,13.06,1.22,19.37,20.42,14.16,20.42,13.6C229.11,225.77,228.35,215.16,227.78,207.15Z" style="fill:#ffbf9d"></path><path d="M222.76,219.14c-.09-.06-.33.25-.88.55a3.3,3.3,0,0,1-2.52.22c-2.09-.61-4-3.75-4.36-7.23a11.19,11.19,0,0,1,.62-4.9A3.91,3.91,0,0,1,218,205a1.71,1.71,0,0,1,2,.79c.3.52.2.92.3.94s.4-.35.19-1.14a2.16,2.16,0,0,0-.84-1.16,2.52,2.52,0,0,0-1.9-.37c-1.49.2-2.74,1.67-3.33,3.24a11.51,11.51,0,0,0-.81,5.47c.39,3.9,2.63,7.42,5.48,8a3.58,3.58,0,0,0,3.05-.72C222.75,219.61,222.82,219.17,222.76,219.14Z" style="fill:#ff9a6c"></path><path d="M216.83,150.63A56.13,56.13,0,0,1,242.3,125c8.69-4.28,25.43-11.05,34.4-7.39l-6.48,8.19A36.76,36.76,0,0,1,253.69,153c-4.86,3.12-10.74,5.33-13.68,10.3-4.24,7.18-.42,16.89-4,24.44a15.37,15.37,0,0,0-.84,5.59,24.23,24.23,0,0,1-4,12.88l-1.73,2.63c-2.2-3.17-6-4.69-9-7.16-4.47-3.72-6.76-9.46-8-15.14A56.11,56.11,0,0,1,216.83,150.63Z" style="fill:#263238"></path><path d="M324.11,194.67c-4.42,8.31-1.66-23.45-3.64-32.65s-8-19.7-14.1-26.85c-6.29-7.34-29.74-17-38-21.93h0c-7.83,9.74-11.59,17.85-19.42,27.59-4.19,5.2-7.08,14.3-10.58,20-7.27,11.8-7.49,25.31-14.85,39.62l-3,1.2h0a6.52,6.52,0,0,0-8.56,2.22l-3.19,4.94s-5.3-8.5-7.28-24,5.64-50.79,7.2-53.61,19.36-26,32.36-30.8,55.09,2.83,63.57,7.91,17.91,25.61,20.14,38.43S327.23,188.79,324.11,194.67Z" style="fill:#e0e0e0"></path><path d="M287.42,72.13a3.84,3.84,0,0,1-.75,0c-.49-.06-1.22-.11-2.15-.19-1.87-.14-4.59-.26-7.94-.31s-7.35,0-11.78,0c-2.22.06-4.56.08-6.95.25a27.73,27.73,0,0,0-7.21,1.56,19.67,19.67,0,0,0-6.32,3.74,20.88,20.88,0,0,0-4.25,5.37,32.07,32.07,0,0,0-3.58,11.09c-.5,3.31-.72,6-.91,7.89-.09.89-.16,1.6-.21,2.15a5.8,5.8,0,0,1-.11.74,3.57,3.57,0,0,1,0-.75c0-.55.07-1.26.12-2.16.12-1.87.29-4.59.75-7.93a31.53,31.53,0,0,1,3.53-11.26A20.77,20.77,0,0,1,244,76.79a20.15,20.15,0,0,1,6.48-3.85,28.13,28.13,0,0,1,7.35-1.58c2.43-.17,4.75-.17,7-.22,4.44-.06,8.44,0,11.8.07s6.07.28,7.94.48c.94.11,1.66.19,2.15.29A3.76,3.76,0,0,1,287.42,72.13Z" style="fill:#263238"></path><path d="M231,84.94a21.37,21.37,0,0,1-.31,2.7,43.52,43.52,0,0,0-.31,6.5,42.84,42.84,0,0,0,.71,6.48,20.72,20.72,0,0,1,.47,2.67,10.83,10.83,0,0,1-.83-2.6,32.61,32.61,0,0,1-.41-13.1A10.83,10.83,0,0,1,231,84.94Z" style="fill:#263238"></path><path d="M211.06,176.5a4,4,0,0,1,.15-.57l.52-1.62c.46-1.4,1.18-3.4,2.13-5.86a171.7,171.7,0,0,1,19.34-36.23c1.51-2.15,2.77-3.87,3.68-5l1.05-1.33a2.36,2.36,0,0,1,.4-.44,3.75,3.75,0,0,1-.31.5l-1,1.39c-.86,1.2-2.08,2.94-3.55,5.12A200.2,200.2,0,0,0,222.9,150a203.2,203.2,0,0,0-8.7,18.59c-1,2.43-1.76,4.42-2.28,5.79l-.61,1.58A2.4,2.4,0,0,1,211.06,176.5Z" style="fill:#263238"></path><path d="M208.2,165.07a1.29,1.29,0,0,1,0-.47c.06-.37.13-.81.22-1.33s.23-1.28.42-2.09.38-1.74.68-2.75a71.47,71.47,0,0,1,2.28-7,78.39,78.39,0,0,1,3.76-8.19,79.2,79.2,0,0,1,4.76-7.65,69.89,69.89,0,0,1,4.58-5.76c.67-.8,1.34-1.47,1.91-2.08s1.08-1.11,1.51-1.51l1-.91a1.79,1.79,0,0,1,.37-.3s-.09.14-.3.37l-.91,1c-.41.42-.9.93-1.44,1.56s-1.2,1.3-1.86,2.12c-1.35,1.58-2.87,3.54-4.46,5.79a77.2,77.2,0,0,0-8.46,15.74c-1,2.57-1.81,4.92-2.38,6.92-.31,1-.53,1.92-.74,2.71s-.39,1.5-.51,2.07-.23.95-.32,1.31A3,3,0,0,1,208.2,165.07Z" style="fill:#263238"></path><path d="M218.11,112.05a2.39,2.39,0,0,1,.36-.23l1.06-.62c.95-.54,2.33-1.37,4.19-2.26a80.35,80.35,0,0,1,16.4-6.06,81,81,0,0,1,25.81-2.1,88.86,88.86,0,0,1,30.62,8.09,67.23,67.23,0,0,1,14,8.69,41.07,41.07,0,0,1,9.68,11.87,62.05,62.05,0,0,1,5.24,12.86,78.58,78.58,0,0,1,2.44,11.84,85,85,0,0,1,.49,17.48l-.24,2.74c-.11.78-.2,1.44-.27,2s-.14.92-.19,1.22-.07.42-.07.42a2.76,2.76,0,0,1,0-.43c0-.3.08-.7.13-1.22s.14-1.22.23-2,.12-1.71.19-2.73a88.28,88.28,0,0,0-.66-17.42A76.79,76.79,0,0,0,325,142.41a61.6,61.6,0,0,0-5.24-12.74A40.65,40.65,0,0,0,310.21,118a67.17,67.17,0,0,0-13.88-8.62,89,89,0,0,0-30.44-8.08,81,81,0,0,0-42.08,7.86c-1.87.86-3.26,1.66-4.22,2.17l-1.1.57Z" style="fill:#263238"></path><path d="M209.13,119.46a3.59,3.59,0,0,1,.37-.53,14.14,14.14,0,0,1,1.18-1.44,26,26,0,0,1,5.24-4.37,42.9,42.9,0,0,1,21.41-6.27,72.31,72.31,0,0,1,22.18,3.43c2.75.82,5,1.56,6.48,2.09l1.74.62a4.37,4.37,0,0,1,.6.25,2.46,2.46,0,0,1-.63-.15l-1.77-.53c-1.54-.46-3.76-1.15-6.52-1.93a75.87,75.87,0,0,0-22.06-3.26,43.68,43.68,0,0,0-21.23,6.06,27.78,27.78,0,0,0-5.29,4.2C209.72,118.78,209.18,119.49,209.13,119.46Z" style="fill:#263238"></path><path d="M290.86,117.41c-.05-.14.7-.57,1.54-1.21s1.47-1.25,1.58-1.15-.36.88-1.26,1.56S290.91,117.54,290.86,117.41Z" style="fill:#263238"></path><path d="M289.78,116.32c-.09-.12.46-.72,1.09-1.49s1.14-1.41,1.27-1.34-.19.87-.86,1.68S289.87,116.43,289.78,116.32Z" style="fill:#263238"></path><path d="M287.43,115.54c-.13-.06.09-.87.5-1.82s.84-1.66,1-1.61-.09.87-.5,1.82S287.56,115.59,287.43,115.54Z" style="fill:#263238"></path><path d="M298.59,92.39c0-.15.83-.4,1.81-.86s1.71-1,1.8-.85-.53.83-1.58,1.32S298.61,92.53,298.59,92.39Z" style="fill:#263238"></path><path d="M297,91.39c-.11-.09.37-.88,1.08-1.77s1.37-1.54,1.48-1.45-.37.89-1.07,1.77S297.16,91.48,297,91.39Z" style="fill:#263238"></path><path d="M294.3,91.57a8,8,0,0,1,.18-2.83,8.12,8.12,0,0,1,.7-2.75,8,8,0,0,1-.18,2.83A7.86,7.86,0,0,1,294.3,91.57Z" style="fill:#263238"></path><path d="M251.14,87.65c.14-.05.55.77.93,1.82s.58,2,.44,2-.55-.77-.93-1.82S251,87.7,251.14,87.65Z" style="fill:#263238"></path><path d="M249,90.59c.11-.09.61.31,1.13.91s.84,1.15.73,1.24-.61-.31-1.13-.9S248.87,90.68,249,90.59Z" style="fill:#263238"></path><path d="M245.75,93.15c.05-.13.82.06,1.72.43s1.57.78,1.52.91-.83-.06-1.72-.43S245.69,93.28,245.75,93.15Z" style="fill:#263238"></path><path d="M220,187.84c.05,0,.14.11.26.35l-.25.09a19.21,19.21,0,0,1-1-2.25,8.41,8.41,0,0,1-.85-2.79,8.21,8.21,0,0,1,1.33,2.6,17.48,17.48,0,0,1,.81,2.34l-.25.1C220,188,220,187.85,220,187.84Z" style="fill:#263238"></path><path d="M217.45,188.93a16.71,16.71,0,0,1-.19-2.55,17.25,17.25,0,0,1-.29-2.54,6,6,0,0,1,.48,5.09Z" style="fill:#263238"></path><path d="M214.37,189.8a7.69,7.69,0,0,1-.25-2.74,7.54,7.54,0,0,1,.28-2.74,7.56,7.56,0,0,1,.24,2.74A7.42,7.42,0,0,1,214.37,189.8Z" style="fill:#263238"></path><path d="M204.27,131a14.76,14.76,0,0,1,4.86,2.7,7.62,7.62,0,0,1-2.55-1.12A7.79,7.79,0,0,1,204.27,131Z" style="fill:#263238"></path><path d="M203.39,135.5a4.37,4.37,0,0,1,2.32.29c1.25.38,2.15.94,2.09,1.07a7.71,7.71,0,0,1-2.24-.57C204.36,135.92,203.36,135.65,203.39,135.5Z" style="fill:#263238"></path><path d="M201,140.87a9.92,9.92,0,0,1,2.83-1.47,9.53,9.53,0,0,1,3-1,9.76,9.76,0,0,1-2.83,1.46A10.05,10.05,0,0,1,201,140.87Z" style="fill:#263238"></path><path d="M315.15,263.43a10.89,10.89,0,0,1-2.44-2.34,11.34,11.34,0,0,1-2-2.68,10.73,10.73,0,0,1,2.43,2.34A11,11,0,0,1,315.15,263.43Z" style="fill:#263238"></path><path d="M312.26,266.32a7.48,7.48,0,0,1-1.66-2.3,7.84,7.84,0,0,1-1.22-2.56,7.81,7.81,0,0,1,1.66,2.3A7.94,7.94,0,0,1,312.26,266.32Z" style="fill:#263238"></path><path d="M310.3,268.29a19.91,19.91,0,0,1-3.09-5.74A10.49,10.49,0,0,1,309,265.3,10.22,10.22,0,0,1,310.3,268.29Z" style="fill:#263238"></path><g style="opacity:0.30000000000000004"><path d="M232.9,91.85c.23-3.31,1.07-6.91,3.73-8.89.62-.46,1.56-.79,2.12-.25a1.66,1.66,0,0,1,.24,1.8c-2.6,5.61-3.34,11.91-3.73,19.8l-1.38.44A41.7,41.7,0,0,1,232.9,91.85Z"></path></g><path d="M166.8,233.06s9.49-16.61,14.57-23.9A52.3,52.3,0,0,1,191.71,198s4.58-6.95,9.67-10.68,10.34-3,10.85-1.35-5.09,4.74-6.95,5.76-4.58,5.93-4.58,5.93l-.34,4.92,6.73.68,30.9,5.59s-3.41,7.63-6.36,11-12.24,12.16-24.11,19.6A182.47,182.47,0,0,1,188.83,250" style="fill:#ffbf9d"></path><path d="M188.83,250l.28-.15.83-.42c.72-.38,1.8-.94,3.18-1.69,2.77-1.5,6.77-3.76,11.69-6.81a137.63,137.63,0,0,0,16.8-12,105,105,0,0,0,9.17-8.51,27.3,27.3,0,0,0,3.83-5.47c1.12-2,2.17-4.08,3.16-6.24l.18.34-30.9-5.58h0l-.73-.08-6-.6-.25,0,0-.25c.12-1.65.23-3.29.34-4.91v-.06l0-.05a28.8,28.8,0,0,1,3.38-4.92,5.88,5.88,0,0,1,1.14-1c.43-.27.85-.47,1.27-.72.84-.47,1.66-1,2.45-1.47a18,18,0,0,0,2.25-1.68,4.44,4.44,0,0,0,.86-1,.78.78,0,0,0,0-1,2.13,2.13,0,0,0-1.06-.62,5.63,5.63,0,0,0-1.3-.24,9.83,9.83,0,0,0-2.65.22c-3.53.73-6.34,3.06-8.7,5.44a54.61,54.61,0,0,0-6.19,7.59l0,0,0,0a55.44,55.44,0,0,0-11.71,13.18c-2.91,4.4-5.28,8.34-7.24,11.57s-3.45,5.76-4.49,7.52l-1.18,2c-.27.45-.42.67-.42.67s.11-.24.36-.7l1.12-2c1-1.75,2.47-4.32,4.39-7.58s4.28-7.21,7.16-11.64a55.64,55.64,0,0,1,11.76-13.33l-.06,0a56.21,56.21,0,0,1,6.23-7.68,27.86,27.86,0,0,1,4-3.4,14,14,0,0,1,5-2.19,10.32,10.32,0,0,1,2.78-.23,5.82,5.82,0,0,1,1.42.26,2.66,2.66,0,0,1,1.3.77,1.25,1.25,0,0,1,.31.79,1.5,1.5,0,0,1-.25.78,4.56,4.56,0,0,1-.95,1.13,19.39,19.39,0,0,1-2.31,1.74c-.81.52-1.64,1-2.48,1.49-.41.24-.87.47-1.25.71a5,5,0,0,0-1,.92,28.06,28.06,0,0,0-3.29,4.82l0-.11c-.11,1.62-.23,3.26-.34,4.92l-.23-.28,6,.6.73.08h0l30.9,5.61.31,0-.13.29c-1,2.18-2.06,4.27-3.2,6.28a28.13,28.13,0,0,1-3.9,5.54,103.94,103.94,0,0,1-9.24,8.52A135.45,135.45,0,0,1,205,241.2c-4.95,3-9,5.23-11.77,6.69-1.4.73-2.49,1.27-3.23,1.62l-.84.39A1.18,1.18,0,0,1,188.83,250Z" style="fill:#ff9a6c"></path><path d="M220,198.19a68.78,68.78,0,0,0-13.64-1l-1.52,4.95a82.48,82.48,0,0,0,11.47,5c6.13,2.08,16.87,1.93,16.87,1.93l.86-4.82S227,199.72,220,198.19Z" style="fill:#4E944F"></path><path d="M237.25,206.45l.24-1,1.51.35a2,2,0,0,0,2-.78l7.76-9.85a2.73,2.73,0,0,1,2.73-1.05,2.85,2.85,0,0,1,1.93,3.57l-3.35,14-.9-.21,3.35-14a1.87,1.87,0,0,0-1.27-2.34,1.79,1.79,0,0,0-1.8.69l-7.76,9.84a2.93,2.93,0,0,1-3,1.14Z" style="fill:#e0e0e0"></path><path d="M237.25,206.45a5.8,5.8,0,0,1,.75.12,4.19,4.19,0,0,0,2,.1,3,3,0,0,0,1.26-.75c.37-.38.72-.91,1.13-1.41l2.74-3.54,3.34-4.28c.31-.39.58-.77.94-1.18a2,2,0,0,1,1.54-.66,1.88,1.88,0,0,1,1.5.89,2.3,2.3,0,0,1,.28,1.74c-1,4.29-2.14,9-3.33,14l-.2-.32.91.21-.31.19c.06-.25.13-.53.19-.8,1.08-4.45,2.11-8.72,3.06-12.68a3.16,3.16,0,0,0-.21-2.7,2.24,2.24,0,0,0-2.2-1.1,2.93,2.93,0,0,0-2,1.39l-1.59,2-5.27,6.57a10.36,10.36,0,0,1-1,1.21,2.06,2.06,0,0,1-1.32.47,15.71,15.71,0,0,1-1.94-.43l.07-.05-.21.75a1.84,1.84,0,0,1-.09.26s0-.07,0-.24.09-.47.16-.79v-.06h.06c.46.07,1.13.28,1.91.35a1.89,1.89,0,0,0,1.17-.46,10.06,10.06,0,0,0,1-1.2l5.16-6.64,1.57-2a3.42,3.42,0,0,1,2.32-1.57,2.71,2.71,0,0,1,2.65,1.3,3.67,3.67,0,0,1,.29,3.07c-.95,4-2,8.23-3,12.68-.07.28-.13.55-.2.81l-.06.25-.25-.06-.9-.21-.26-.06.06-.25c1.21-5,2.35-9.7,3.38-14A1.62,1.62,0,0,0,251,195.3a1.57,1.57,0,0,0-1.2.51c-.31.35-.63.77-.93,1.14l-3.39,4.25-2.8,3.48c-.42.51-.76,1-1.18,1.42a3.34,3.34,0,0,1-1.38.76,3.92,3.92,0,0,1-2.15-.21Z" style="fill:#263238"></path><path d="M236.54,209.39l.25-1,1.5.34a2.88,2.88,0,0,1,2.13,2.31l2.47,12.2a1.74,1.74,0,0,0,1.29,1.4,1.91,1.91,0,0,0,2.2-1.55l3.35-14,.91.21-3.35,13.95a2.94,2.94,0,0,1-3.36,2.36,2.66,2.66,0,0,1-2-2.14l-2.47-12.19a2,2,0,0,0-1.45-1.58Z" style="fill:#e0e0e0"></path><path d="M236.54,209.39s.29,0,.79.13c.25,0,.54.1.91.19a2,2,0,0,1,1,.8,4.27,4.27,0,0,1,.5,1.56c.12.58.26,1.2.4,1.87.29,1.35.61,2.88,1,4.57.18.84.37,1.73.56,2.65.1.46.19.93.29,1.41a10.16,10.16,0,0,0,.35,1.42,2.31,2.31,0,0,0,2.25,1.49,2.76,2.76,0,0,0,2.31-1.77c1.12-4.36,2.24-9.32,3.49-14.43l.19.31-.2,0-.7-.17.31-.19c-1.06,4.36-2.06,8.54-3,12.41-.12.48-.23,1-.35,1.44a2.39,2.39,0,0,1-.78,1.35,2,2,0,0,1-1.48.51,1.85,1.85,0,0,1-1.32-.75,2.94,2.94,0,0,1-.48-1.35c-.09-.43-.17-.86-.26-1.28-.16-.84-.33-1.66-.48-2.45-.61-3.15-1.15-5.87-1.57-8.07a2.81,2.81,0,0,0-1.65-2.07c-.74-.24-1.4-.37-1.85-.5l.07,0-.21.74a1.1,1.1,0,0,1-.09.26,1.79,1.79,0,0,1,0-.24c.05-.21.1-.46.16-.79v-.05h.06c.47.11,1.09.19,1.89.42a3.05,3.05,0,0,1,1.85,2.2l1.69,8.05c.17.79.34,1.6.51,2.44l.27,1.28a2.55,2.55,0,0,0,.41,1.17,1.44,1.44,0,0,0,2.13.16,2,2,0,0,0,.62-1.12c.12-.47.23-.95.35-1.43.92-3.88,1.92-8.06,3-12.42l.06-.25.25.06.71.16.2,0,.26.06-.07.26c-1.25,5.14-2.36,10-3.55,14.49a3.19,3.19,0,0,1-2.73,2,2.75,2.75,0,0,1-2.67-1.78,9.09,9.09,0,0,1-.35-1.49c-.1-.48-.19-1-.28-1.42-.19-.92-.36-1.81-.53-2.66-.32-1.69-.62-3.22-.89-4.58-.12-.67-.24-1.3-.35-1.88a4.36,4.36,0,0,0-.43-1.5c-.48-.84-1.36-.85-1.84-1A6.26,6.26,0,0,1,236.54,209.39Z" style="fill:#263238"></path><path d="M201.88,199.61l-.19.76-1.11-.26a1.49,1.49,0,0,0-1.5.58l-5.76,7.3a2,2,0,0,1-2,.78,2.13,2.13,0,0,1-1.43-2.65l2.48-10.35.67.16-2.48,10.34a1.39,1.39,0,0,0,.94,1.74,1.3,1.3,0,0,0,1.33-.51l5.76-7.3a2.17,2.17,0,0,1,2.19-.84Z" style="fill:#e0e0e0"></path><path d="M201.88,199.61a3.81,3.81,0,0,1-.57-.08,3.17,3.17,0,0,0-1.49-.06,2.13,2.13,0,0,0-.93.56c-.26.27-.53.67-.83,1l-2,2.63-2.47,3.18c-.23.29-.43.57-.7.88a1.53,1.53,0,0,1-1.19.51,1.44,1.44,0,0,1-1.15-.68,1.81,1.81,0,0,1-.23-1.34l2.47-10.38.2.31-.68-.15.32-.2c-.05.19-.1.4-.15.6-.79,3.3-1.56,6.46-2.27,9.4a2.29,2.29,0,0,0,.15,2,1.6,1.6,0,0,0,1.57.78,2.14,2.14,0,0,0,1.47-1l1.18-1.48,3.92-4.86a7,7,0,0,1,.79-.9,1.6,1.6,0,0,1,1-.36,12.57,12.57,0,0,1,1.44.34l-.07,0a5.75,5.75,0,0,1,.24-.74,5.66,5.66,0,0,1-.13.77v.05h-.06c-.34,0-.85-.2-1.41-.24a1.34,1.34,0,0,0-.85.33,7.91,7.91,0,0,0-.72.89l-3.82,4.94c-.38.48-.76,1-1.16,1.5A2.55,2.55,0,0,1,192,209a2.07,2.07,0,0,1-2-1,2.79,2.79,0,0,1-.22-2.32c.7-2.95,1.46-6.11,2.25-9.41,0-.21.09-.41.14-.6l.06-.25.25.06.67.15.26.06-.06.26c-.9,3.68-1.74,7.18-2.51,10.36a1.14,1.14,0,0,0,.93,1.47,1.11,1.11,0,0,0,.85-.36c.22-.25.46-.57.69-.84.9-1.13,1.74-2.18,2.52-3.14l2.08-2.58c.32-.38.57-.74.89-1.05a2.42,2.42,0,0,1,1-.57,2.92,2.92,0,0,1,1.61.17A3.18,3.18,0,0,1,201.88,199.61Z" style="fill:#263238"></path><path d="M202.4,197.43l-.18.75-1.12-.26a2.12,2.12,0,0,1-1.57-1.71l-1.84-9a1.28,1.28,0,0,0-.95-1,1.43,1.43,0,0,0-1.64,1.15l-2.48,10.34-.67-.15,2.48-10.35a2.19,2.19,0,0,1,2.49-1.75,2,2,0,0,1,1.45,1.59l1.84,9a1.44,1.44,0,0,0,1.07,1.17Z" style="fill:#e0e0e0"></path><path d="M202.4,197.43s-.22,0-.59-.09c-.19,0-.39-.06-.67-.13a1.5,1.5,0,0,1-.8-.6,3.29,3.29,0,0,1-.37-1.16c-.09-.43-.2-.9-.3-1.39-.22-1-.46-2.14-.73-3.38s-.53-2.68-.89-4.05a1.66,1.66,0,0,0-1.61-1.07,2,2,0,0,0-1.66,1.28c-.82,3.21-1.66,6.9-2.58,10.69l-.2-.32.15,0,.53.12-.32.19c.79-3.23,1.54-6.32,2.23-9.2.09-.36.18-.71.26-1.06a1.9,1.9,0,0,1,.6-1,1.55,1.55,0,0,1,1.14-.39,1.45,1.45,0,0,1,1,.58,2.33,2.33,0,0,1,.36,1c.06.33.13.64.19,1l.35,1.81c.45,2.33.84,4.34,1.15,6a2.07,2.07,0,0,0,1.2,1.52c.54.18,1,.27,1.36.37l-.07,0a7.37,7.37,0,0,1,.24-.74,6.31,6.31,0,0,1-.12.77l0,.05h0c-.35-.08-.81-.14-1.41-.31a2.26,2.26,0,0,1-1.4-1.65c-.35-1.63-.78-3.64-1.27-6l-.38-1.81c-.07-.31-.13-.63-.2-.95a1.86,1.86,0,0,0-.29-.84,1,1,0,0,0-1.5-.11,1.41,1.41,0,0,0-.44.8c-.09.35-.17.71-.25,1.07-.69,2.87-1.43,6-2.2,9.2l-.06.25-.25-.05-.52-.12-.15,0-.26-.06.06-.25c.94-3.82,1.75-7.41,2.64-10.75a2.43,2.43,0,0,1,2.09-1.55,2.1,2.1,0,0,1,2,1.35c.39,1.54.59,2.88.85,4.15s.46,2.38.65,3.39c.09.5.18,1,.26,1.4a3.19,3.19,0,0,0,.31,1.1c.34.61,1,.63,1.35.76A2.48,2.48,0,0,1,202.4,197.43Z" style="fill:#263238"></path><path d="M255.43,199.82l-4.56-1q-7.83,9.57-5.54,23.09l4.55,1A30.77,30.77,0,0,0,255.43,199.82Z" style="fill:#4E944F"></path><path d="M195.69,190.19l-3.68-.85a17.09,17.09,0,0,0-3.3,13.73l3.68.85A18.25,18.25,0,0,0,195.69,190.19Z" style="fill:#4E944F"></path><g style="opacity:0.2"><path d="M253.59,211a4.64,4.64,0,0,1-.73-2.38,6.55,6.55,0,0,1,.19-3.08,6.17,6.17,0,0,1,2.49-2.69l.17-.12c-.05-.94-.14-1.89-.28-2.86l-4.56-1a28.12,28.12,0,0,0-1.91,2.65,4.35,4.35,0,0,1,1.24.85,5.21,5.21,0,0,1,1.43,3.36c.08,1.4-.35,2.8-.38,4.21a5.75,5.75,0,0,0,1,3.5,3.88,3.88,0,0,0,1.9,1.43,28.55,28.55,0,0,0,.84-2.91A2.66,2.66,0,0,1,253.59,211Z" style="fill:#fff"></path></g><g style="opacity:0.2"><path d="M249,219.35a8,8,0,0,1,2.56,1.05,29.12,29.12,0,0,0,1.73-3.38,3.68,3.68,0,0,1-2.7-1.25,23,23,0,0,1-1.73-3,5.87,5.87,0,0,0-3.43-2.54,30,30,0,0,0-.42,8.84C246.28,219.25,247.66,219.09,249,219.35Z" style="fill:#fff"></path></g><g style="opacity:0.2"><path d="M233.18,209l.44-2.44a2.55,2.55,0,0,0-1.11-1.16c-.94-.42-2.17,0-3-.62a3,3,0,0,1-.65-2.66c0-.23.06-.47.1-.71-1.17-.56-2.47-1.13-3.84-1.66a5.41,5.41,0,0,0,.7,3.48c.73,1.11,1.95,1.7,2.72,2.78a5.78,5.78,0,0,1,.9,2.93C231.67,209,233.18,209,233.18,209Z" style="fill:#fff"></path></g><g style="opacity:0.2"><path d="M225.78,208.14c-1.81-1.95-4.48-2.6-6.59-4.15a5.92,5.92,0,0,1-2.35-3.14,6.63,6.63,0,0,1,0-3.19c-.86-.11-1.73-.2-2.58-.27a7.67,7.67,0,0,1,.3,4,25.83,25.83,0,0,1-1.74,4.11c0,.09-.06.19-.1.29.65.26,1.33.52,2,.77a2,2,0,0,1,.67-.61,2.57,2.57,0,0,1,2.51.42,12.8,12.8,0,0,1,2.16,1.68,58.22,58.22,0,0,0,6.17.74A7.91,7.91,0,0,0,225.78,208.14Z" style="fill:#fff"></path></g><g style="opacity:0.2"><path d="M206.32,202.64l-.15.15c.66.33,1.54.76,2.57,1.24a6.83,6.83,0,0,0,1.44-4.57,8.36,8.36,0,0,0-.43-2.3l-1.6,0a5.63,5.63,0,0,1,.1,1.59A6.92,6.92,0,0,1,206.32,202.64Z" style="fill:#fff"></path></g><g style="opacity:0.2"><path d="M195.77,195.57a8.76,8.76,0,0,1-4.18,3.27,5.13,5.13,0,0,1-3.1,0,20.1,20.1,0,0,0,.07,2.89,4.75,4.75,0,0,0,3.07.13,8,8,0,0,0,3-2.07A17.39,17.39,0,0,0,195.77,195.57Z" style="fill:#fff"></path></g><g style="opacity:0.2"><path d="M195.56,190.16l-3.55-.82a16.49,16.49,0,0,0-2.21,3.74,7.68,7.68,0,0,1,1.57-.26,11.44,11.44,0,0,1,4.12.8l.43.14a19.06,19.06,0,0,0-.22-3.42Z" style="fill:#fff"></path></g><path d="M200.39,200.2l.72-3a2.06,2.06,0,0,1,2.37-1.66l1.27.29a2,2,0,0,1,1.36,2.52l-.73,3A2.06,2.06,0,0,1,203,203l-1.26-.29A2,2,0,0,1,200.39,200.2Z" style="fill:#e0e0e0"></path><path d="M200.39,200.2s0,.31.05.83a1.82,1.82,0,0,0,1.33,1.51c.46.08,1,.24,1.54.3a1.76,1.76,0,0,0,1.41-.68,2.11,2.11,0,0,0,.4-.79c.07-.32.15-.66.23-1,.17-.69.33-1.4.51-2.12a2,2,0,0,0-.43-1.79,1.5,1.5,0,0,0-.77-.44l-1-.23a1.87,1.87,0,0,0-2.39,1.37,20.13,20.13,0,0,1-.92,3,18,18,0,0,1,.56-3.12,2.51,2.51,0,0,1,.93-1.43,2.18,2.18,0,0,1,1.93-.32l1,.22a2,2,0,0,1,1,.56,2.43,2.43,0,0,1,.57,2.27c-.17.72-.34,1.43-.51,2.12-.09.34-.17.68-.26,1a2.41,2.41,0,0,1-.51,1,2.16,2.16,0,0,1-1.8.8c-.64-.1-1.1-.26-1.59-.37a1.91,1.91,0,0,1-1.13-.85,2,2,0,0,1-.32-1C200.21,200.48,200.36,200.19,200.39,200.2Z" style="fill:#263238"></path><path d="M232.83,207.8l.64-2.65a2.07,2.07,0,0,1,2.37-1.66l1.26.29a2,2,0,0,1,1.36,2.52l-.63,2.64a2.08,2.08,0,0,1-2.37,1.67l-1.26-.29A2,2,0,0,1,232.83,207.8Z" style="fill:#e0e0e0"></path><path d="M232.83,207.8s0,.3,0,.8a1.85,1.85,0,0,0,1.24,1.5c.42.1,1,.21,1.48.31a1.63,1.63,0,0,0,1.41-.5,2.86,2.86,0,0,0,.72-1.63c.15-.66.32-1.34.48-2a2,2,0,0,0-.38-1.74,1.51,1.51,0,0,0-.71-.46l-.92-.22a1.87,1.87,0,0,0-2.46,1.09,21.2,21.2,0,0,1-.91,2.89,2.64,2.64,0,0,1,.1-.82c.1-.53.21-1.25.47-2.21a2.43,2.43,0,0,1,1-1.27,2.16,2.16,0,0,1,.91-.28,3.23,3.23,0,0,1,1,.13c.31.07.61.13.95.22a2,2,0,0,1,1,.59,2.48,2.48,0,0,1,.51,2.2l-.5,2a6.87,6.87,0,0,1-.28,1,2.49,2.49,0,0,1-.59.86,2.11,2.11,0,0,1-1.82.58c-.57-.13-1-.25-1.52-.39a2,2,0,0,1-1.33-1.83A1.27,1.27,0,0,1,232.83,207.8Z" style="fill:#263238"></path><path d="M251.93,215.5c-.17-.08,0-.85.27-2.05.15-.59.3-1.31.48-2.09s.34-1.66.5-2.57.29-1.79.4-2.59c0-.4.11-.78.15-1.14,0-.18.05-.35.07-.51s0-.33.06-.48c.15-1.22.28-2,.48-2s.41.72.5,2l0,.5c0,.17,0,.35,0,.54,0,.37,0,.77,0,1.19a23.8,23.8,0,0,1-.31,2.73,24.64,24.64,0,0,1-.63,2.68,17.7,17.7,0,0,1-.8,2.12C252.59,215,252.1,215.59,251.93,215.5Z" style="fill:#fff"></path><path d="M250.29,221.16a.25.25,0,0,1-.31,0,1,1,0,0,1-.26-.57,2.68,2.68,0,0,1,0-.8,5.34,5.34,0,0,1,.17-.81c.31-1.12.86-2,1.23-1.85s.41,1.1.1,2.22a6.44,6.44,0,0,1-.27.78,3.23,3.23,0,0,1-.27.51c-.07.13-.14.22-.2.32A.85.85,0,0,1,250.29,221.16Z" style="fill:#fff"></path><path d="M233.67,208.6c.06-.42.81-.69,1.68-.59s1.51.51,1.45.94-.81.69-1.68.59S233.61,209,233.67,208.6Z" style="fill:#fff"></path><path d="M207,201.79c.19-.42,5.12,1.78,11.56,3.15s11.85,1.47,11.83,1.93c0,.1-.34.21-1,.3l-.51.07-.62,0c-.44,0-.94.07-1.5.06h-.87l-.94,0c-.65,0-1.35-.08-2.08-.14a40,40,0,0,1-9.26-2c-.68-.25-1.34-.48-1.94-.73l-.86-.36-.79-.37c-.5-.23-.94-.47-1.33-.68l-.53-.3-.44-.27C207.25,202.12,207,201.89,207,201.79Z" style="fill:#fff"></path><path d="M200.82,201c.13-.41,1-.51,1.91-.28s1.63.69,1.55,1.12-.95.62-1.93.38S200.69,201.43,200.82,201Z" style="fill:#fff"></path><path d="M192,202.25c-.16-.12,0-.74.36-1.68.08-.24.18-.49.27-.77s.19-.56.3-.87c.2-.62.42-1.29.62-2s.36-1.41.51-2c.07-.32.14-.62.19-.9s.12-.55.17-.8c.2-1,.36-1.6.56-1.62s.38.61.42,1.65a8.21,8.21,0,0,1,0,.86c0,.31,0,.64-.08,1a14.36,14.36,0,0,1-.44,2.23,15.21,15.21,0,0,1-.78,2.14c-.14.32-.29.62-.44.89s-.3.51-.44.73C192.61,201.92,192.13,202.36,192,202.25Z" style="fill:#fff"></path><path d="M209.69,195.25a4.52,4.52,0,0,1,3.8-3.9c3.72-.72,7.23,3.24,7.23,3.24a8.35,8.35,0,0,1,6,0c3.66,1.16,3.58,6.36,3.58,6.36a5.2,5.2,0,0,1,5.77-2.84c4.32.66,5.8,3.48,3.6,7.77h0c-2.83,4.5-12.21,1.75-9.78-3.56,0,0-2.83,4.88-5.91,4.47s-4.6-3.91-4.27-9.06c0,0-2.58,4-6.19,3.14C210.17,200.07,209.44,197.43,209.69,195.25Z" style="fill:#ffbf9d"></path><path d="M209.69,195.25s0,.36,0,1a4.64,4.64,0,0,0,4.94,4.55c1.79,0,3.61-1.38,4.87-3.2l.39-.56,0,.67a16.69,16.69,0,0,0,.21,4.08,6.67,6.67,0,0,0,1.93,3.85,3.64,3.64,0,0,0,2,.89,3.52,3.52,0,0,0,2.2-.63,11.84,11.84,0,0,0,3.39-3.73l.44.23a3.46,3.46,0,0,0-.06,2.85,4.4,4.4,0,0,0,2.26,2,6.21,6.21,0,0,0,6.21-.55,4.68,4.68,0,0,0,.93-1v0a6.69,6.69,0,0,0,.89-4.26,3.92,3.92,0,0,0-2.86-2.8,6.88,6.88,0,0,0-4.08-.18,5,5,0,0,0-2.87,2.52l-.44.9v-1a9.44,9.44,0,0,0-.76-3.61,4.48,4.48,0,0,0-2.31-2.41,8.68,8.68,0,0,0-6.17-.18l-.13.05-.09-.09a10.75,10.75,0,0,0-4.78-3.11,5.06,5.06,0,0,0-4.15.61,4.38,4.38,0,0,0-1.68,2.11,9.38,9.38,0,0,0-.28.93s0-.08,0-.25a3.29,3.29,0,0,1,.17-.71,4.38,4.38,0,0,1,1.66-2.25,5.31,5.31,0,0,1,4.34-.72,11,11,0,0,1,5,3.14l-.23,0a9.1,9.1,0,0,1,6.51.11,4.92,4.92,0,0,1,2.56,2.63,9.61,9.61,0,0,1,.81,3.79l-.46-.09a5.37,5.37,0,0,1,3.15-2.81,7.35,7.35,0,0,1,4.4.16,5.91,5.91,0,0,1,2,1.13,3.82,3.82,0,0,1,1.19,2,7.18,7.18,0,0,1-.92,4.6v0h0a4.91,4.91,0,0,1-1,1.14,5.87,5.87,0,0,1-3.33,1.23,7.38,7.38,0,0,1-3.42-.61,4.92,4.92,0,0,1-2.51-2.27,4,4,0,0,1,.07-3.28l.44.23a12.21,12.21,0,0,1-3.56,3.89A4,4,0,0,1,224,207a4.08,4.08,0,0,1-2.29-1,7.12,7.12,0,0,1-2-4.12,17,17,0,0,1-.18-4.18l.35.11c-1.35,1.9-3.25,3.27-5.18,3.3a5.23,5.23,0,0,1-4.18-2,4.94,4.94,0,0,1-.88-2.83A4,4,0,0,1,209.69,195.25Z" style="fill:#ff9a6c"></path><path d="M220.72,194.59c.14,0,.27.87-.11,1.85s-.86,1.61-1,1.55.16-.83.5-1.73S220.57,194.59,220.72,194.59Z" style="fill:#ff9a6c"></path><path d="M229.71,203.19c-.13-.05-.11-.61.06-1.26s.42-1.14.56-1.12.11.59-.06,1.25S229.85,203.23,229.71,203.19Z" style="fill:#ff9a6c"></path><path d="M182.56,231.88s9.66-11.53,24.58-12.55c0,0,3.9-9,10.17-10.85s13.39-1.86,14.24,2-5.76,1.35-9,6.61-3.56,9.83-9.16,17S189.68,250,189.68,250" style="fill:#ffbf9d"></path><path d="M189.68,250l.27-.16.79-.42,3.06-1.66c2.63-1.46,6.46-3.58,10.93-6.59a52.1,52.1,0,0,0,6.88-5.46,22.56,22.56,0,0,0,1.61-1.76c.49-.65,1-1.31,1.48-2a38.67,38.67,0,0,0,2.67-4.44c1.66-3.13,2.75-6.76,4.76-10.15a8,8,0,0,1,4.6-3.77c1-.35,2-.56,2.92-.85s1.88-.78,1.69-1.78a3.37,3.37,0,0,0-2.47-2.84,11.81,11.81,0,0,0-4.05-.6,26.4,26.4,0,0,0-7.9,1.37,10.41,10.41,0,0,0-3.27,1.91,18.07,18.07,0,0,0-2.6,2.65,28.94,28.94,0,0,0-3.71,6l-.05.12h-.13a33.59,33.59,0,0,0-11.12,2.8,40.53,40.53,0,0,0-7.66,4.44,44.78,44.78,0,0,0-4.38,3.66c-.48.46-.83.82-1.07,1.06l-.37.37a2.51,2.51,0,0,1,.32-.41c.22-.26.56-.64,1-1.11a40.65,40.65,0,0,1,12-8.34,33.67,33.67,0,0,1,11.23-2.91l-.19.13a29.16,29.16,0,0,1,3.74-6.08,19,19,0,0,1,2.66-2.73,10.87,10.87,0,0,1,3.41-2,26.59,26.59,0,0,1,8.07-1.41,12.43,12.43,0,0,1,4.24.62,4.68,4.68,0,0,1,1.88,1.21,3.29,3.29,0,0,1,.92,2.09,2.31,2.31,0,0,1-.08.86,1.84,1.84,0,0,1-.52.73,3.84,3.84,0,0,1-1.45.71c-1,.3-2,.51-2.9.84a7.5,7.5,0,0,0-4.34,3.55c-2,3.31-3.08,6.94-4.77,10.11a39.55,39.55,0,0,1-2.73,4.48c-.48.7-1,1.36-1.5,2a23.91,23.91,0,0,1-1.66,1.8,50,50,0,0,1-7,5.45,123.82,123.82,0,0,1-11,6.47c-1.34.7-2.39,1.23-3.11,1.57l-.82.38A1.43,1.43,0,0,1,189.68,250Z" style="fill:#ff9a6c"></path><path d="M287.22,274.55l-29.34,70-33.37-65.13s-47.08,20-49.7,21.51-7.47-2.61-10.83,2.62,14.42,127,14.8,143,.07,18.5,6.42,22.24l143.44.2,21.7-86.47L337.59,272Z" style="fill:#4E944F"></path><path d="M287.22,274.55c.13.06-18.09,43.64-40.7,97.32s-41,97.19-41.17,97.13,18.08-43.62,40.69-97.33S287.08,274.5,287.22,274.55Z" style="fill:#263238"></path><path d="M304,273.78c.13.05-18.09,43.91-40.69,98s-41,97.81-41.18,97.75,18.09-43.9,40.7-98S303.83,273.72,304,273.78Z" style="fill:#263238"></path><g style="opacity:0.30000000000000004"><path d="M214.11,428.44c-4.08,12.52-8.69,25.7-8,38.85L257,346.46C242.17,373.57,223.67,399.07,214.11,428.44Z"></path></g><path d="M168,312.28a1.36,1.36,0,0,1,0,.29c0,.23,0,.51.06.87,0,.81.1,1.93.17,3.35.15,2.95.36,7.15.61,12.33.53,10.41,1.37,24.78,2.55,40.63s2.5,30.19,3.52,40.56c.52,5.16.94,9.34,1.23,12.28l.33,3.34c0,.36.05.65.07.87s0,.3,0,.3a1.19,1.19,0,0,1-.06-.29l-.13-.87-.42-3.33c-.36-2.89-.84-7.08-1.39-12.26-1.12-10.36-2.49-24.7-3.68-40.56s-2-30.24-2.39-40.65c-.22-5.21-.37-9.42-.45-12.34,0-1.43-.06-2.55-.08-3.35v-.88A1.29,1.29,0,0,1,168,312.28Z" style="fill:#263238"></path><path d="M337.59,272s20.8.54,35.8,35.83c7.52,17.67,42,161.13,42,161.13H339.18S323.27,379.88,321,377.9,337.59,272,337.59,272Z" style="fill:#4E944F"></path><path d="M371.93,315.27a2,2,0,0,1-.09.4l-.33,1.17c-.3,1.05-.74,2.55-1.3,4.47l-4.8,16.42c-4,13.88-9.51,33.08-15.43,54.32s-11.21,40.48-15.07,54.43L330.37,463c-.54,1.92-1,3.43-1.26,4.48-.14.49-.25.88-.34,1.16a2.71,2.71,0,0,1-.13.39,2.38,2.38,0,0,1,.08-.4c.07-.29.17-.68.29-1.18.27-1.06.66-2.57,1.16-4.5,1-3.94,2.54-9.58,4.39-16.55,3.74-14,9-33.22,14.92-54.47s11.46-40.42,15.57-54.28c2.08-6.92,3.76-12.52,5-16.38.6-1.91,1.06-3.4,1.39-4.44.16-.49.28-.87.38-1.15A2,2,0,0,1,371.93,315.27Z" style="fill:#263238"></path><g style="opacity:0.30000000000000004"><path d="M168.79,334.36A93.15,93.15,0,0,0,174,410Z"></path></g><g style="opacity:0.30000000000000004"><path d="M364.14,341.4,334.86,445.21s9.49-14.46,12.45-23.92c5.34-17,5.92-25.2,9.13-35.78C359.89,374.15,364.14,349.09,364.14,341.4Z"></path></g><path d="M202.32,368.83a10.65,10.65,0,0,1-3.29-.5,10.77,10.77,0,0,1-3.17-1,21.51,21.51,0,0,1,6.46,1.5Z" style="fill:#263238"></path><path d="M204.81,366.8a10.76,10.76,0,0,1-6-5.47c.13-.08,1.15,1.44,2.8,2.93S204.89,366.66,204.81,366.8Z" style="fill:#263238"></path><path d="M208.79,363.82a8.43,8.43,0,0,1-1.71-2.35,8,8,0,0,1-1.27-2.62,8.43,8.43,0,0,1,1.71,2.35A8.26,8.26,0,0,1,208.79,363.82Z" style="fill:#263238"></path><path d="M298.73,429.45a31.58,31.58,0,0,1-4-7,15.49,15.49,0,0,1,2.22,3.35A15,15,0,0,1,298.73,429.45Z" style="fill:#263238"></path><path d="M304.65,425.5a27.28,27.28,0,0,1-4-6.44,28.17,28.17,0,0,1,4,6.44Z" style="fill:#263238"></path><path d="M307.21,419a6.85,6.85,0,0,1-2.58-.75,7.09,7.09,0,0,1-2.39-1.23,6.9,6.9,0,0,1,2.58.75A7.35,7.35,0,0,1,307.21,419Z" style="fill:#263238"></path><path d="M361,446.26c-.11.09-1-.84-1.94-2.08a8,8,0,0,1-1.53-2.4c.11-.09,1,.84,1.94,2.08A7.77,7.77,0,0,1,361,446.26Z" style="fill:#263238"></path><path d="M364.38,442.34a4.86,4.86,0,0,1-2.68-1.93,4.93,4.93,0,0,1-1.33-3c.15-.05.62,1.34,1.74,2.69S364.46,442.21,364.38,442.34Z" style="fill:#263238"></path><path d="M369.86,437.79a21.1,21.1,0,0,1-6.46-1.49,21.1,21.1,0,0,1,6.46,1.49Z" style="fill:#263238"></path><path d="M340,312.62a10.18,10.18,0,0,1-2.59,2,10.5,10.5,0,0,1-2.87,1.52,10.18,10.18,0,0,1,2.59-2A10.5,10.5,0,0,1,340,312.62Z" style="fill:#263238"></path><path d="M342,318.64a10.17,10.17,0,0,1-2.9,1.25,9.54,9.54,0,0,1-3.06.75,10,10,0,0,1,2.9-1.25A9.54,9.54,0,0,1,342,318.64Z" style="fill:#263238"></path><path d="M344,326a7.23,7.23,0,0,1-2.73.26,7.3,7.3,0,0,1-2.74-.26,7.55,7.55,0,0,1,2.74-.26A7.47,7.47,0,0,1,344,326Z" style="fill:#263238"></path><path d="M194.38,311.13c-.11.1-1-.72-1.94-1.82a6.84,6.84,0,0,1-1.54-2.15c.1-.1,1,.71,1.93,1.81A7.3,7.3,0,0,1,194.38,311.13Z" style="fill:#263238"></path><path d="M196.26,309.2a6.57,6.57,0,0,1-1.48-2.1,6.65,6.65,0,0,1-1-2.36c.13-.07.79.87,1.48,2.1A6.37,6.37,0,0,1,196.26,309.2Z" style="fill:#263238"></path><path d="M199.43,309.13a10,10,0,0,1-.47-4.47,10,10,0,0,1,.47,4.47Z" style="fill:#263238"></path></g></svg>
