<svg xmlns="http://www.w3.org/2000/svg" viewBox="0 0 500 500"><g id="freepik--background-complete--inject-29"><path d="M444.71,349.14H264a5.87,5.87,0,0,1-5.86-5.86V80A5.87,5.87,0,0,1,264,74.15H444.71A5.87,5.87,0,0,1,450.57,80V343.28A5.87,5.87,0,0,1,444.71,349.14ZM264,74.4A5.61,5.61,0,0,0,258.35,80V343.28a5.61,5.61,0,0,0,5.61,5.61H444.71a5.61,5.61,0,0,0,5.61-5.61V80a5.61,5.61,0,0,0-5.61-5.61Z" style="fill:#e0e0e0"></path><path d="M236.28,349.14H55.53a5.87,5.87,0,0,1-5.86-5.86V80a5.87,5.87,0,0,1,5.86-5.86H236.28A5.87,5.87,0,0,1,242.14,80V343.28A5.87,5.87,0,0,1,236.28,349.14ZM55.53,74.4A5.61,5.61,0,0,0,49.92,80V343.28a5.61,5.61,0,0,0,5.61,5.61H236.28a5.61,5.61,0,0,0,5.61-5.61V80a5.61,5.61,0,0,0-5.61-5.61Z" style="fill:#e0e0e0"></path><rect x="0.79" y="410.21" width="500" height="0.25" style="fill:#e0e0e0"></rect><rect x="94.95" y="87.61" width="81.97" height="151.2" style="fill:#f0f0f0"></rect><rect x="99.96" y="92.61" width="71.96" height="141.19" style="fill:#fafafa"></rect><polygon points="171.92 92.61 171.92 98.98 99.96 170.94 99.96 142.75 150.1 92.61 171.92 92.61" style="fill:#fff"></polygon><polygon points="171.92 147.65 171.92 175.84 113.96 233.8 99.96 233.8 99.96 219.61 171.92 147.65" style="fill:#fff"></polygon><rect x="319.74" y="87.61" width="109.81" height="59.68" style="fill:#f0f0f0"></rect><rect x="324.74" y="92.61" width="99.81" height="49.67" style="fill:#fafafa"></rect><polygon points="386.04 92.61 336.37 142.28 324.74 142.28 324.74 134.56 366.69 92.61 386.04 92.61" style="fill:#fff"></polygon><polygon points="424.55 92.61 424.55 94.17 376.44 142.28 361.42 142.28 411.09 92.61 424.55 92.61" style="fill:#fff"></polygon><rect x="315.89" y="183.07" width="117.5" height="4.48" style="fill:#f0f0f0"></rect><path d="M424.77,182.9V308.12h-71V182.9a2.25,2.25,0,0,1,2.25-2.25h66.5A2.25,2.25,0,0,1,424.77,182.9Z" style="fill:#fafafa"></path><rect x="353.77" y="205.81" width="71" height="2.74" style="fill:#f0f0f0"></rect><rect x="353.77" y="212.5" width="71" height="2.75" style="fill:#f0f0f0"></rect><circle cx="440.26" cy="185.33" r="7.5" style="fill:#f0f0f0"></circle><circle cx="310.61" cy="185.33" r="7.5" style="fill:#f0f0f0"></circle><path d="M398.06,182.9V308.12h-71V182.9a2.25,2.25,0,0,1,2.25-2.25h66.5A2.25,2.25,0,0,1,398.06,182.9Z" style="fill:#f0f0f0"></path><rect x="327.06" y="205.81" width="71" height="2.74" style="fill:#e0e0e0"></rect><rect x="327.06" y="212.5" width="71" height="2.75" style="fill:#e0e0e0"></rect><polygon points="89.28 305.09 75.87 305.09 76.78 295.01 77.39 288.28 78.38 277.41 86.77 277.41 87.76 288.28 88.37 295.01 89.28 305.09" style="fill:#e6e6e6"></polygon><polygon points="87.76 288.28 88.37 295.01 76.78 295.01 77.39 288.28 87.76 288.28" style="fill:#f0f0f0"></polygon><polygon points="104.3 305.09 90.88 305.09 91.8 295.01 92.41 288.28 93.4 277.41 101.78 277.41 102.77 288.28 103.38 295.01 104.3 305.09" style="fill:#e6e6e6"></polygon><polygon points="103.38 295.01 91.8 295.01 92.41 288.28 102.77 288.28 103.38 295.01" style="fill:#f0f0f0"></polygon><rect x="130.12" y="272.96" width="1.74" height="9" style="fill:#e6e6e6"></rect><rect x="126.04" y="270.2" width="9.89" height="3.08" style="fill:#e6e6e6"></rect><path d="M122.91,305.09h16.16a14.69,14.69,0,1,0-16.16,0Z" style="fill:#e6e6e6"></path><path d="M158.24,296.38h23.9a3.38,3.38,0,0,1,3.38,3.38v5a0,0,0,0,1,0,0H154.86a0,0,0,0,1,0,0v-5A3.38,3.38,0,0,1,158.24,296.38Z" style="fill:#e6e6e6"></path><rect x="67.77" y="305.09" width="127.96" height="13.32" style="fill:#f0f0f0"></rect><polygon points="77.98 318.41 83.84 331.63 92.48 331.63 92.48 318.41 77.98 318.41" style="fill:#4E944F"></polygon><polygon points="77.98 318.41 83.84 331.63 92.48 331.63 92.48 318.41 77.98 318.41" style="fill:#e6e6e6"></polygon><polygon points="185.51 318.41 179.66 331.63 171.02 331.63 171.02 318.41 185.51 318.41" style="fill:#4E944F"></polygon><polygon points="185.51 318.41 179.66 331.63 171.02 331.63 171.02 318.41 185.51 318.41" style="fill:#e6e6e6"></polygon></g><g id="freepik--Table--inject-29"><rect x="49.11" y="422.27" width="423.44" height="15.44" rx="7.6" style="fill:#e0e0e0"></rect><path d="M452.22,446.72H72.94a9,9,0,0,1-9-9H461.22A9,9,0,0,1,452.22,446.72Z" style="fill:#ebebeb"></path></g><g id="freepik--body-lotion--inject-29"><rect x="402.37" y="368.73" width="2.89" height="15" style="fill:#4E944F"></rect><rect x="402.37" y="368.73" width="2.89" height="15" style="opacity:0.30000000000000004"></rect><polygon points="414.37 368.37 413.73 369.92 408.88 368.75 396.15 368.75 396.15 364.78 408.88 364.78 414.37 368.37" style="fill:#4E944F"></polygon><path d="M428.29,401.87a24.35,24.35,0,0,1-11,20.4H390.36a24.46,24.46,0,0,1-10.3-14.54,24.06,24.06,0,0,1-.72-5.86,24.48,24.48,0,1,1,49,0Z" style="fill:#4E944F"></path><path d="M428.29,401.87a24.35,24.35,0,0,1-11,20.4H390.36a24.46,24.46,0,0,1-10.3-14.54,24.06,24.06,0,0,1-.72-5.86,24.48,24.48,0,1,1,49,0Z" style="fill:#fff;opacity:0.30000000000000004"></path><path d="M428.29,401.87a24.55,24.55,0,0,1-.71,5.86H380.06a24.06,24.06,0,0,1-.72-5.86,24.43,24.43,0,0,1,2.09-9.91H426.2A24.43,24.43,0,0,1,428.29,401.87Z" style="fill:#4E944F"></path></g><g id="freepik--Towels--inject-29"><path d="M66.86,393.53h47a6.28,6.28,0,0,1,6.28,6.28V416a6.28,6.28,0,0,1-6.28,6.28H66.25A4.25,4.25,0,0,1,62,418V407.65a4.25,4.25,0,0,1,4.25-4.25h0L65,402.87a4.85,4.85,0,0,1-3-4.48h0A4.87,4.87,0,0,1,66.86,393.53Z" style="fill:#4E944F"></path><path d="M66.86,393.53h47a6.28,6.28,0,0,1,6.28,6.28V416a6.28,6.28,0,0,1-6.28,6.28H66.25A4.25,4.25,0,0,1,62,418V407.65a4.25,4.25,0,0,1,4.25-4.25h0L65,402.87a4.85,4.85,0,0,1-3-4.48h0A4.87,4.87,0,0,1,66.86,393.53Z" style="fill:#fff;opacity:0.4"></path><path d="M107.49,416.79H72.71a4.76,4.76,0,0,1,0-9.51h31.51a.62.62,0,1,1,0,1.24H72.71a3.52,3.52,0,1,0,0,7h34.78A3.52,3.52,0,0,0,111,412v-8.46a3.53,3.53,0,0,0-3.52-3.52H69.94a.61.61,0,0,1-.61-.62.61.61,0,0,1,.61-.61h37.55a4.75,4.75,0,0,1,4.75,4.75V412A4.75,4.75,0,0,1,107.49,416.79Z" style="opacity:0.2"></path><path d="M125,393.53h47a6.29,6.29,0,0,1,6.29,6.28V416a6.29,6.29,0,0,1-6.29,6.28h-47.6a4.25,4.25,0,0,1-4.25-4.25V407.65a4.26,4.26,0,0,1,4.25-4.25h0l-1.27-.53a4.87,4.87,0,0,1-3-4.48h0A4.87,4.87,0,0,1,125,393.53Z" style="fill:#4E944F"></path><path d="M125,393.53h47a6.29,6.29,0,0,1,6.29,6.28V416a6.29,6.29,0,0,1-6.29,6.28h-47.6a4.25,4.25,0,0,1-4.25-4.25V407.65a4.26,4.26,0,0,1,4.25-4.25h0l-1.27-.53a4.87,4.87,0,0,1-3-4.48h0A4.87,4.87,0,0,1,125,393.53Z" style="fill:#fff;opacity:0.5"></path><path d="M165.62,416.79H130.84a4.76,4.76,0,0,1,0-9.51h31.51a.62.62,0,1,1,0,1.24H130.84a3.52,3.52,0,1,0,0,7h34.78a3.52,3.52,0,0,0,3.52-3.51v-8.46a3.53,3.53,0,0,0-3.52-3.52H128.08a.62.62,0,0,1-.62-.62.61.61,0,0,1,.62-.61h37.54a4.75,4.75,0,0,1,4.75,4.75V412A4.75,4.75,0,0,1,165.62,416.79Z" style="opacity:0.2"></path><path d="M95.92,365h47a6.28,6.28,0,0,1,6.28,6.28v16.18a6.28,6.28,0,0,1-6.28,6.28H95.32a4.25,4.25,0,0,1-4.25-4.25V379.12a4.25,4.25,0,0,1,4.25-4.25h0l-1.27-.53a4.85,4.85,0,0,1-3-4.48h0A4.86,4.86,0,0,1,95.92,365Z" style="fill:#4E944F"></path><path d="M95.92,365h47a6.28,6.28,0,0,1,6.28,6.28v16.18a6.28,6.28,0,0,1-6.28,6.28H95.32a4.25,4.25,0,0,1-4.25-4.25V379.12a4.25,4.25,0,0,1,4.25-4.25h0l-1.27-.53a4.85,4.85,0,0,1-3-4.48h0A4.86,4.86,0,0,1,95.92,365Z" style="fill:#fff;opacity:0.7000000000000001"></path><g style="opacity:0.2"><path d="M136.55,388.26H101.77a4.76,4.76,0,0,1,0-9.51h31.51a.62.62,0,0,1,0,1.24H101.77a3.52,3.52,0,0,0,0,7h34.78a3.52,3.52,0,0,0,3.52-3.51v-8.46a3.53,3.53,0,0,0-3.52-3.52H99a.62.62,0,0,1-.62-.62.61.61,0,0,1,.62-.61h37.54a4.76,4.76,0,0,1,4.76,4.75v8.46A4.76,4.76,0,0,1,136.55,388.26Z"></path></g></g><g id="freepik--Character--inject-29"><path d="M240,253.58l-5.86,3.26-5.8,3.09c-3.86,2.06-7.78,4-11.7,6-5.13,2.52-10.29,5-15.52,7.39-.7.33-1.39.65-2.09,1-2.11.95-4.22,1.89-6.35,2.8l-1.06.45-3,1.28c-6.87,2.89-13.88,5.62-21.28,8.08a141.8,141.8,0,0,1-14,4,79.75,79.75,0,0,1-8.2,1.43c-1.51.18-3.11.31-4.93.35a36,36,0,0,1-6.31-.38,28.32,28.32,0,0,1-4.2-1,23.77,23.77,0,0,1-5.25-2.36,22,22,0,0,1-5.66-4.95,21.22,21.22,0,0,1-3.69-6.91l-.26-.87-.2-.81a15.46,15.46,0,0,1-.3-1.61,14.36,14.36,0,0,1-.19-1.57c0-.59-.07-1.18-.07-1.75,0-.35,0-.46,0-.69l0-.59c0-.38,0-.85.09-1.1l.12-.89.06-.45.06-.36a39.37,39.37,0,0,1,1.13-4.74c.77-2.68,1.59-4.9,2.42-7.14s1.68-4.31,2.54-6.39c1.7-4.17,3.53-8.18,5.36-12.17s3.67-7.92,5.6-11.82l5.79-11.63c2-3.85,4-7.68,6-11.5,4.06-7.63,8.6-15.87,13-23.38l16.43,8.06c-5,16.32-8.92,33.64-13.93,49.79-2,6.49-4.75,15.05-7.11,18.37l0,0c1-.39,2.07-.81,3.11-1.25l2-.86,1-.42.4-.18c2.47-1.07,5-2.21,7.45-3.4q5.49-2.55,11-5.33c7.33-3.7,14.69-7.55,22-11.51l10.71-6.16L225,215.37Z" style="fill:#4E944F"></path><g style="opacity:0.2"><path d="M139.32,292.7c0-.06-.51-6-7.17-10.8s-15.51-2.63-15.6-2.61l-.25-1c.38-.1,9.38-2.34,16.44,2.77s7.56,11.28,7.57,11.54Z"></path></g><g style="opacity:0.2"><path d="M165.55,195.42a16.18,16.18,0,0,1-6.52-1.49c-6.82-3-7.22-8.59-7.24-8.83l1-.06c0,.22.4,5.23,6.64,8s10.21.55,10.25.52l.51.86A9.52,9.52,0,0,1,165.55,195.42Z"></path></g><path d="M156.76,251.75c-3.56,6.07-9.77,16-9.77,16a67.7,67.7,0,0,1,4.63-13.88c1-.39,2.07-.81,3.11-1.25Z" style="opacity:0.2"></path><path d="M217,233.49c.13,9.71-10.55,29.25-15.85,39.81-.7.33-1.39.65-2.09,1-2.11.95-4.22,1.89-6.35,2.8l-1.06.45C203.76,261.15,217,233.49,217,233.49Z" style="opacity:0.2"></path><path d="M156.32,176.92s2.93-23,8.4-24,19,1.79,23.86,4-15.73,29-15.73,29C165.51,191.2,155.22,182.43,156.32,176.92Z" style="fill:#ffc3bd"></path><path d="M184.37,165l-1,4s-13.12-1.36-17.64-2.8c-3.46-1.11-3-3.59-2.58-4.68a3.49,3.49,0,0,1,.24-.52Z" style="opacity:0.2"></path><path d="M168.91,150.77s-4.49.36-6.31,3.72,5.46,1.7,5.46,1.7Z" style="fill:#ffc3bd"></path><path d="M155,159.07l-.93,4.86a2.87,2.87,0,0,0,5.36,1.89l2.42-4.54,1.45.27.12-.57-1.88-.36-2.63,4.93a2.28,2.28,0,0,1-4.26-1.51l.93-4.86Z"></path><path d="M156,153.69l-.93,4.85.58.11.93-4.85a2.29,2.29,0,0,1,4.52.17l.62,5.55,1.88.36.11-.57-1.45-.28-.58-5.13a2.84,2.84,0,0,0-2.31-2.49A2.88,2.88,0,0,0,156,153.69Z"></path><path d="M188.81,167.3c3.49,2,6.6,8.48,7.13,11.35a2.42,2.42,0,0,0,1.94,2,2.45,2.45,0,0,0,2.86-1.94l.6-3.15-.57-.11-.6,3.15a1.86,1.86,0,0,1-3.66,0c-.52-2.86-3.62-9.6-7.41-11.76Z"></path><path d="M189.55,163.42l.08.58c4.33-.6,9.69-5.72,11.24-8.18a1.86,1.86,0,0,1,3.4,1.34l-.61,3.15.58.11.6-3.15a2.44,2.44,0,0,0-4.47-1.76C198.82,158,193.53,162.87,189.55,163.42Z"></path><path d="M164.51,159.13,164,162c-.22,1.16,29.41,6.84,29.63,5.68l.55-2.89C194.37,163.64,164.73,158,164.51,159.13Z" style="fill:#4E944F"></path><path d="M205.86,160.85c.14-.71-4.3-1.56-4.43-.85-1.63,2-2.54,7.29-2.54,7.29s-1.09,5.21-.34,7.71c-.1.51,4.34,1.36,4.43.85,1.63-2,2.54-7.29,2.54-7.29S206.62,163.35,205.86,160.85Z" style="fill:#4E944F"></path><path d="M192.64,163.61c-.26,0-1.14,4.59-.89,4.64l2.58.49a15.9,15.9,0,0,0,.89-4.63Z"></path><path d="M163.4,158c-.26,0-1.14,4.59-.89,4.63l2.58.5a16,16,0,0,0,.89-4.63Z"></path><g style="opacity:0.4"><path d="M205.86,160.85c.14-.71-4.3-1.56-4.43-.85-1.63,2-2.54,7.29-2.54,7.29s-1.09,5.21-.34,7.71c-.1.51,4.34,1.36,4.43.85,1.63-2,2.54-7.29,2.54-7.29S206.62,163.35,205.86,160.85Z" style="fill:#fff"></path></g><path d="M158.39,155.18c.07-.39-4.5-1.27-4.58-.88-1.47,1-1.92,3.95-1.92,3.95s-.66,2.88.33,4.38c-.06.28,4.52,1.16,4.57.87,1.47-1,1.93-3.94,1.93-3.94S159.37,156.67,158.39,155.18Z" style="fill:#4E944F"></path><g style="opacity:0.4"><path d="M158.39,155.18c.07-.39-4.5-1.27-4.58-.88-1.47,1-1.92,3.95-1.92,3.95s-.66,2.88.33,4.38c-.06.28,4.52,1.16,4.57.87,1.47-1,1.93-3.94,1.93-3.94S159.37,156.67,158.39,155.18Z" style="fill:#fff"></path></g><path d="M186.23,170.74a2.53,2.53,0,0,1-.18.42v0c-.26.6-8.39,15.34-13.27,11.13-1.52-1.32,1.38-7.78,3.39-10.51-2.42-.2-8-2.42-8.39-5.07-.54-3.36,10.38-2.86,15.76-.26C186.23,167.78,186.68,169.37,186.23,170.74Z" style="fill:#ffc3bd"></path><path d="M165.77,153.68s-.52,7.51,2.13,9,3.4-3.48,3.4-3.48-.5,4.91,2.54,5.53,3.68-4,3.68-4-1.41,4.64,1.14,5.59,3.5-3.86,3.5-3.86-.84,5.14,3,5.14c2.83,0,5.1-9.4,4-11.68a3.12,3.12,0,0,0-4.65-1.11,3,3,0,0,0-2.6-2.23c-2.29-.42-2.52.63-2.52.63a3.76,3.76,0,0,0-3.39-2.18,5.74,5.74,0,0,0-3.43,1.28s-1.62-3.24-5.58-1.36C166.12,151.39,165.77,153.68,165.77,153.68Z" style="fill:#ffc3bd"></path><path d="M231.55,111.1s20.7-10.31,41.5,4.24,11.81,42.57,5.47,50.91S268,180.67,269.41,189.4Z"></path><path d="M270.05,194.15s15.95-1.65,25.73,7.32c5.59,5.14,3.5,8.94,3.5,8.94L274.57,206Z" style="fill:#4E944F"></path><path d="M279.66,205.8s5.62-4.58-1.55-6.88-28.17,1.59-32.08,5.57c-2.34,2.38,1.48,4.06,1.48,4.06Z" style="opacity:0.2"></path><path d="M327.93,268.85c-.24.93-.49,1.87-.74,2.81q-.66,2.38-1.36,4.76c-.47,1.58-.95,3.16-1.45,4.71-.7,2.23-1.44,4.42-2.19,6.56l-.6,1.69c-.26.73-.52,1.45-.79,2.16a141.52,141.52,0,0,1-8.43,19s.2,1.56.51,4.22c1,8.53,3.19,28.31,3.72,43.39.71,19.75-107.37,16.4-114.43,10.05-3-2.67-3.71-14.16-3.6-26.61.06-5.92.31-12,.62-17.54.47-8.52,1.09-15.53,1.31-17.93,0-.57.07-.87.07-.87A18.65,18.65,0,0,1,196.5,300a14.65,14.65,0,0,1-.79-1.64c-2.2-5.21-3-13.19,3.81-23.41,12.69-19,19.94-42.9,20.19-52.48s27.85-16.62,27.85-16.62h32.1s36.94,6.46,48.93,16.62C335.33,228.14,333.23,248.35,327.93,268.85Z" style="fill:#4E944F"></path><path d="M327.93,268.85c-.24.93-.49,1.87-.74,2.81q-.66,2.38-1.36,4.76c-.47,1.58-.95,3.16-1.45,4.71-6.66-8.69-14.19-21.67-20.09-32.88Z" style="opacity:0.2"></path><path d="M312.88,314.76c-5.83,4.59-12.76,6.33-20.26,6.59a43.74,43.74,0,0,0,19.75-10.81S312.57,312.1,312.88,314.76Z" style="opacity:0.2"></path><path d="M333.67,422.27c1.52-6.52,2.67-18.82.61-28a65.18,65.18,0,0,0-17-30.65s-72.58,21.54-118.42,3.88c-2.83,3-9.48,29.81-14.42,54.79Z" style="fill:#4E944F"></path><g style="opacity:0.2"><path d="M199.22,331.63l-.76-.65c.74-.89,75.16-89.23,101-120.64l.77.64C274.39,242.39,200,330.74,199.22,331.63Z"></path></g><g style="opacity:0.2"><rect x="203.33" y="237.07" width="53" height="1" transform="translate(-33.04 437.97) rotate(-83.27)"></rect></g><path d="M248.31,197.07s-13.6,1.81-14.7,14.18l15.82-3.07Z" style="fill:#4E944F"></path><path d="M200.5,306.12c0-.57.07-.87.07-.87A18.65,18.65,0,0,1,196.5,300l43.95-51.53Z" style="opacity:0.2"></path><path d="M228.45,112.3s-16.21,4.89-20.54,19a33.8,33.8,0,0,0,2.91,25.79Z"></path><path d="M246.69,213c1.1-2.86,1.09-8.4.39-11.54a39,39,0,0,0-3.3-8.9l3.6-4.7,20-21.56c.24,13.57,1.34,32.73,12.32,39.49l-39.22,42.63Z" style="fill:#ffc3bd"></path><path d="M254.68,223.6a7.89,7.89,0,0,1-6-2.31c-2.52-2.73-2.25-6.81-2.23-7l.62-.43s-.15,4.43,2.15,6.91a7.17,7.17,0,0,0,5.49,2.08c10.05,0,16.09-8.43,16.15-8.52l.6.43C271.37,214.87,265.11,223.6,254.68,223.6Z" style="fill:#fff"></path><g style="opacity:0.2"><path d="M247.08,201.47a39,39,0,0,0-3.3-8.9l3.6-4.7,11.24-2S255,197.58,247.08,201.47Z"></path></g><path d="M271,142.63c.43,22.29.33,28-9.75,40.28-15.17,18.44-41.38,17.71-48.33-4-6.25-19.56-5.9-52.73,14.7-63.24,20.29-10.37,43,4.69,43.38,27" style="fill:#ffc3bd"></path><path d="M262.06,157.25a3.45,3.45,0,0,1-1.33-.28c-5-2.08-1.21-18.37-1-19.06l.73.18c-1.09,4.54-3.09,16.66.6,18.19a2.3,2.3,0,0,0,2.14-.08c2.64-1.51,3.57-7.93,3.58-8l.74.11c0,.28-1,6.85-3.94,8.54A2.94,2.94,0,0,1,262.06,157.25Z"></path><path d="M248.45,119.48s2.1,19.06,11.6,19.85c0,0,1.84,12.92,9.36,14.83s10.35-6.61,6.2-19.78C271.25,120.57,257.53,105.81,248.45,119.48Z"></path><path d="M227.25,174.41a11.21,11.21,0,0,1-2.34-.23.5.5,0,1,1,.21-1c.88.19,8.72,1.62,12.14-7a.5.5,0,0,1,.93.37C235.51,173.32,230.32,174.41,227.25,174.41Z"></path><path d="M261.87,117.26s-11.71-10.6-12.7,10c-.32,6.46-26.79,4.43-36,4.76s2.36-15.63,10.75-21.25S258.13,111.74,261.87,117.26Z"></path><path d="M233.18,153.43c.15,1.81-.7,3.35-1.87,3.45s-2.26-1.3-2.4-3.11.69-3.34,1.88-3.44,2.25,1.3,2.39,3.1"></path><path d="M215.71,155.39c.15,1.81-.69,3.35-1.87,3.44s-2.26-1.29-2.4-3.1.69-3.34,1.88-3.44,2.25,1.3,2.39,3.1"></path><path d="M213.85,152.35l-4.44-.91s2.49,3.22,4.44.91"></path><path d="M222.64,152.22s-4.1,6.47-7.15,10.89c-1,1.44-.27,2.17,1.36,2.81a15.49,15.49,0,0,0,5.79.93Z" style="fill:#ed847e"></path><path d="M238.08,145.82a1,1,0,0,1-.68-.5,8.46,8.46,0,0,0-6.35-4.32,1.09,1.09,0,0,1-1-1.12,1.06,1.06,0,0,1,1.12-1,10.54,10.54,0,0,1,8.09,5.38,1.07,1.07,0,0,1-.38,1.45,1,1,0,0,1-.78.12"></path><path d="M207.62,144.77a1,1,0,0,1-.74-.27,1.08,1.08,0,0,1-.07-1.51,10.57,10.57,0,0,1,9-3.59,1.06,1.06,0,0,1-.33,2.1,8.43,8.43,0,0,0-7.12,2.93,1,1,0,0,1-.76.34"></path><path d="M231.31,150.39l-4.43-.9s2.49,3.21,4.43.9"></path><path d="M280.15,157.37a14.3,14.3,0,0,1-8.12,8.52c-4.82,1.77-7.7-3.44-6.75-9,.85-5,4.39-12,9.42-11.35s7.33,6.84,5.45,11.87" style="fill:#ffc3bd"></path><path d="M271.41,168.24a3.64,3.64,0,1,0-1.61-4.9A3.64,3.64,0,0,0,271.41,168.24Z" style="fill:#fff"></path><path d="M198.57,344.74c-3.12-.24-6.51,22.74-.11,28.39,5.19,4.57,103,13.58,122-8.64,0,0,3.13-14.57-4.31-25.56C316.17,338.93,262.38,364.23,198.57,344.74Z" style="fill:#4E944F"></path><path d="M198.57,344.74c-3.12-.24-6.51,22.74-.11,28.39,5.19,4.57,103,13.58,122-8.64,0,0,3.13-14.57-4.31-25.56C316.17,338.93,262.38,364.23,198.57,344.74Z" style="fill:#fff;opacity:0.5"></path><path d="M194.83,360.13s8,7.28,56,7.72c57.84.52,66.73-15.7,70.31-14.82s2.24,9.7,0,13.76S297.74,382,254,382c-36.91,0-54.78-4.63-57.5-8.13C192.42,368.59,194.83,360.13,194.83,360.13Z" style="fill:#4E944F"></path><path d="M194.83,360.13s8,7.28,56,7.72c57.84.52,66.73-15.7,70.31-14.82s2.24,9.7,0,13.76S297.74,382,254,382c-36.91,0-54.78-4.63-57.5-8.13C192.42,368.59,194.83,360.13,194.83,360.13Z" style="fill:#fff;opacity:0.4"></path><path d="M223.44,108.62S233.76,88,251.2,83.07s25.5,6.7,25.5,6.7,7.11-3.88,13.81,3.88,9.87,28.26,6.34,37-8.12,10-8.12,10Z" style="fill:#4E944F"></path><path d="M296.85,130.7c-3.52,8.79-8.11,10-8.11,10l-65.3-32.12S233.76,88,251.2,83.07s25.5,6.69,25.5,6.69a9.59,9.59,0,0,1,3.12-.88c2.69-.33,6.76.22,10.68,4.77C297.21,101.4,300.39,121.91,296.85,130.7Z" style="fill:#fff;opacity:0.2"></path><path d="M228.45,105s14.13-9.17,30.06-4.33,23.6,20.66,23.6,20.66-11.87-16.49-28.5-19A51.46,51.46,0,0,0,228.45,105Z" style="opacity:0.2"></path><path d="M285.8,107.56c-1.38-8.32-9.1-17.8-9.1-17.8a9.59,9.59,0,0,1,3.12-.88C285.67,96.91,285.8,107.56,285.8,107.56Z" style="opacity:0.2"></path><path d="M209.18,128.08s1.41-19.2,20.15-24c21.87-5.64,47.18,14.58,54.93,26s4.85,19.93-1.55,28.25c0,0-9.48-19.72-34.88-31.62S209.18,128.08,209.18,128.08Z" style="fill:#4E944F"></path><path d="M287.47,150.39a27.72,27.72,0,0,1-1.52,3.1,41.28,41.28,0,0,1-3.25,4.83s-9.47-19.71-34.87-31.61-38.65,1.36-38.65,1.36a25.87,25.87,0,0,1,.61-3.5h0c.19-.81.45-1.73.78-2.73,2-6,7-14.76,18.75-17.79,21.87-5.64,47.19,14.59,54.93,26C289.58,137.93,289.88,144.41,287.47,150.39Z" style="fill:#fff;opacity:0.4"></path><path d="M238.13,118c-18.39-4.4-28.33,6.59-28.33,6.59.19-.81.45-1.73.78-2.73C222.64,111.69,238.13,118,238.13,118Z" style="opacity:0.2"></path><path d="M287.47,150.39a27.72,27.72,0,0,1-1.52,3.1c-.35-3.4-2.9-18.94-20.83-30C265.82,123.69,282.86,131.17,287.47,150.39Z" style="opacity:0.2"></path><path d="M398.23,304a22.09,22.09,0,0,1-.38,4.37,25.4,25.4,0,0,1-.79,3.13c-.18.56-.36,1.08-.55,1.58s-.29.75-.44,1.1c-.27.67-.56,1.28-.84,1.87a56.75,56.75,0,0,1-3.8,6.57c-1.29,1.93-2.6,3.68-3.91,5.38a206.39,206.39,0,0,1-16.2,18.17c-5.53,5.65-11.23,11-17,16.2-3.59,3.21-7.18,6.35-10.86,9.43l-.83.69c-2,1.69-4.06,3.35-6.15,5l-12.19-12.31q3.81-4.86,7.63-9.73l.71-.9c6.54-8.33,13-16.7,19.17-25.07,4.32-6,8.61-12,12.06-17.81.86-1.45,1.64-2.89,2.33-4.23l.4-.79c-1.45-1.84-3.3-4-5.24-6.08-2.32-2.51-4.82-5-7.4-7.54-5.1-5.08-10.55-10.06-16-15.08-2.73-2.51-5.5-5-8.28-7.48s-5.55-5-8.35-7.48l-8.37-7.48-8.27-7.45,22.65-26.68,4.57,3.76,4.44,3.8c2.94,2.55,5.83,5.14,8.72,7.75s5.71,5.29,8.54,8,5.6,5.44,8.38,8.21,5.52,5.6,8.23,8.49,5.41,5.82,8.07,8.86,5.26,6.2,7.85,9.54A98.11,98.11,0,0,1,393.83,291c.32.56.64,1.14,1,1.75.18.33.36.68.54,1s.29.58.43.88.32.7.48,1.06l.25.55.13.3c.13.31.26.63.38.94A19.39,19.39,0,0,1,398.23,304Z" style="fill:#4E944F"></path><g style="opacity:0.2"><path d="M343.45,371.84l-.83.69-10.71-17,.71-.9Z"></path></g><g style="opacity:0.2"><path d="M396.51,313.12c-.14.38-.29.75-.44,1.1a18.19,18.19,0,0,1-3.89-9.2c-.68-6.3,1.37-10.4,2.62-12.24.18.33.36.68.54,1a17.49,17.49,0,0,0-2.17,11.09A17.22,17.22,0,0,0,396.51,313.12Z"></path></g><path d="M384.58,303.36c-6.38,1-17.82,3.68-17.82,3.68l-.12,0a.79.79,0,0,0,0-.13c-.52-.78-1.15-1.73-2-2.78A49,49,0,0,1,384.58,303.36Z" style="opacity:0.2"></path><path d="M327.38,361.44s-7.6,5.28-6,12.47,8.5,13.8,9.67,19.7,2.39,20.61,3.76,21,4.41-19.54,4.26-23.28-2.61-14.56-2.61-14.56Z" style="fill:#ffc3bd"></path><path d="M338.89,394.23s1.78,7.56,1,10.3-2.25,9.39-2.06,11.26-3-.64-2.33-6.22A151.86,151.86,0,0,1,338.89,394.23Z" style="fill:#ffc3bd"></path><path d="M322.52,372.35a18.27,18.27,0,0,0-.13,8.16,55.77,55.77,0,0,1,1.49,12.59c-.05,3.53,2.54,5.83,3.92,4.77s.65-7.75,1.35-12.74S322.52,372.35,322.52,372.35Z" style="fill:#ffc3bd"></path></g></svg>
